{"glyphs":{"0":{"ha":908,"x_min":0,"x_max":0,"o":"m 382 -7 b 885 482 638 -7 817 161 b 590 976 953 801 828 976 b 79 482 338 976 147 801 b 382 -7 14 172 144 -7 z m 414 153 b 263 483 272 153 217 271 b 556 817 307 694 414 817 b 704 483 697 817 749 694 b 414 153 658 271 556 153 z "},"1":{"ha":817,"x_min":0,"x_max":0,"o":"m 21 0 l 699 0 l 731 151 l 508 151 l 683 965 l 524 965 b 174 719 475 792 353 724 l 143 568 b 435 661 264 568 383 594 l 325 151 l 54 151 z "},"2":{"ha":890,"x_min":0,"x_max":0,"o":"m 0 0 l 754 0 l 786 153 l 338 153 l 546 272 b 896 643 718 369 860 476 b 608 972 935 833 815 972 b 149 621 393 972 211 849 l 329 621 b 575 814 368 749 471 814 b 713 643 681 814 736 747 b 432 375 690 536 589 463 l 31 151 z "},"3":{"ha":900,"x_min":0,"x_max":0,"o":"m 410 -7 b 829 279 638 -7 794 118 b 693 503 853 394 792 479 b 888 699 790 532 865 588 b 603 972 921 854 783 972 b 169 661 400 972 240 876 l 347 661 b 574 821 386 767 461 821 b 708 690 671 821 724 761 b 515 576 693 622 632 576 l 472 576 l 440 424 l 483 424 b 654 290 604 424 674 381 b 422 144 635 204 539 144 b 233 310 321 144 226 197 l 53 310 b 410 -7 44 90 228 -7 z "},"4":{"ha":935,"x_min":0,"x_max":0,"o":"m 490 0 l 674 0 l 721 225 l 861 225 l 893 375 l 754 375 l 879 965 l 640 965 l 44 365 l 14 225 l 539 225 z m 256 375 l 658 788 l 571 375 z "},"5":{"ha":890,"x_min":0,"x_max":0,"o":"m 385 -7 b 818 310 610 -7 775 107 b 568 629 861 513 718 631 b 292 538 460 629 375 601 l 393 804 l 853 804 l 886 965 l 281 965 l 103 490 l 258 406 b 483 493 332 464 408 493 b 638 319 589 493 661 433 b 407 146 615 217 515 146 b 231 321 300 146 225 207 l 47 303 b 385 -7 44 106 203 -7 z "},"6":{"ha":867,"x_min":0,"x_max":0,"o":"m 372 -7 b 800 311 593 -7 760 122 b 536 629 839 493 722 629 b 249 501 429 629 325 592 b 558 819 318 717 447 819 b 699 676 629 819 701 788 l 869 676 b 597 972 872 906 724 972 b 72 440 392 972 153 821 b 372 -7 7 129 168 -7 z m 396 144 b 236 319 279 144 215 226 b 471 492 257 421 350 492 b 626 319 590 492 647 419 b 396 144 604 219 518 144 z "},"7":{"ha":907,"x_min":0,"x_max":0,"o":"m 208 0 l 401 0 b 914 782 486 378 622 561 l 903 965 l 176 965 l 142 804 l 744 804 b 208 0 486 606 294 386 z "},"8":{"ha":897,"x_min":0,"x_max":0,"o":"m 353 -7 b 800 272 624 -7 768 115 b 661 501 828 397 738 475 b 854 706 729 525 831 589 b 561 972 885 856 769 972 b 157 713 342 972 189 861 b 261 504 132 601 206 528 b 31 281 172 478 58 408 b 353 -7 -3 124 118 -7 z m 475 567 b 331 697 361 567 315 621 b 529 825 346 763 411 825 b 672 697 649 825 688 763 b 475 567 657 621 589 567 z m 385 140 b 207 286 246 140 190 207 b 444 429 225 369 307 429 b 622 286 582 429 640 369 b 385 140 606 207 522 140 z "},"9":{"ha":868,"x_min":0,"x_max":0,"o":"m 353 -7 b 851 515 578 -7 769 135 b 556 972 922 844 758 972 b 124 654 321 972 163 835 b 401 335 86 472 200 335 b 681 461 500 335 610 372 b 375 142 614 232 499 142 b 219 283 296 142 222 179 l 56 283 b 353 -7 54 82 210 -7 z m 454 472 b 299 646 336 472 278 543 b 531 821 321 747 407 821 b 689 646 651 821 710 747 b 454 472 667 544 574 472 z "}," ":{"ha":371,"x_min":0,"x_max":0,"o":""},"A":{"ha":1024,"x_min":0,"x_max":0,"o":"m -61 0 l 156 0 l 285 224 l 710 224 l 753 0 l 938 0 l 735 965 l 528 965 z m 368 376 l 604 782 l 682 376 z "},"Á":{"ha":1024,"x_min":0,"x_max":0,"o":"m 585 1096 l 729 1096 l 929 1313 l 764 1313 z m -61 0 l 156 0 l 285 224 l 710 224 l 753 0 l 938 0 l 735 965 l 528 965 z m 368 376 l 604 782 l 682 376 z "},"Ă":{"ha":1024,"x_min":0,"x_max":0,"o":"m 660 1085 b 913 1304 792 1085 876 1140 l 808 1304 b 678 1185 786 1214 740 1185 b 601 1304 613 1185 583 1221 l 500 1304 b 660 1085 468 1158 544 1085 z m -61 0 l 156 0 l 285 224 l 710 224 l 753 0 l 938 0 l 735 965 l 528 965 z m 368 376 l 604 782 l 682 376 z "},"Ắ":{"ha":1024,"x_min":0,"x_max":0,"o":"m 629 1328 l 774 1328 l 974 1544 l 808 1544 z m 660 1085 b 913 1304 792 1085 876 1140 l 808 1304 b 678 1185 786 1214 740 1185 b 601 1304 613 1185 583 1221 l 500 1304 b 660 1085 468 1158 544 1085 z m -61 0 l 156 0 l 285 224 l 710 224 l 753 0 l 938 0 l 735 965 l 528 965 z m 368 376 l 604 782 l 682 376 z "},"Ặ":{"ha":1024,"x_min":0,"x_max":0,"o":"m 660 1085 b 913 1304 792 1085 876 1140 l 808 1304 b 678 1185 786 1214 740 1185 b 601 1304 613 1185 583 1221 l 500 1304 b 660 1085 468 1158 544 1085 z m -61 0 l 156 0 l 285 224 l 710 224 l 753 0 l 938 0 l 735 965 l 528 965 z m 368 376 l 604 782 l 682 376 z m 299 -287 l 476 -287 l 511 -119 l 335 -119 z "},"Ằ":{"ha":1024,"x_min":0,"x_max":0,"o":"m 638 1324 l 776 1324 l 704 1540 l 551 1540 z m 660 1085 b 911 1304 792 1085 875 1140 l 808 1304 b 676 1185 785 1214 739 1185 b 601 1304 611 1185 582 1221 l 499 1304 b 660 1085 467 1158 543 1085 z m -61 0 l 156 0 l 285 224 l 710 224 l 753 0 l 938 0 l 735 965 l 528 965 z m 368 376 l 604 782 l 682 376 z "},"Ẳ":{"ha":1024,"x_min":0,"x_max":0,"o":"m 642 1317 l 764 1317 b 799 1419 779 1349 793 1392 b 681 1550 815 1497 775 1550 b 550 1529 643 1550 596 1543 l 528 1418 b 629 1436 564 1429 603 1436 b 668 1385 665 1436 676 1422 b 642 1317 663 1363 656 1343 z m 660 1085 b 913 1304 792 1085 875 1140 l 808 1304 b 678 1185 786 1214 740 1185 b 601 1304 613 1185 582 1221 l 500 1304 b 660 1085 468 1158 544 1085 z m -61 0 l 156 0 l 285 224 l 710 224 l 753 0 l 938 0 l 735 965 l 528 965 z m 368 376 l 604 782 l 682 376 z "},"Ẵ":{"ha":1024,"x_min":0,"x_max":0,"o":"m 508 1350 l 593 1350 b 653 1440 607 1411 626 1440 b 781 1350 692 1440 704 1350 b 943 1553 851 1350 914 1410 l 858 1553 b 796 1451 844 1486 826 1451 b 667 1553 753 1451 744 1553 b 508 1350 599 1553 538 1494 z m 660 1085 b 913 1304 792 1085 875 1140 l 808 1304 b 678 1185 786 1214 740 1185 b 601 1304 613 1185 582 1221 l 500 1304 b 660 1085 468 1158 544 1085 z m -61 0 l 156 0 l 285 224 l 710 224 l 753 0 l 938 0 l 735 965 l 528 965 z m 368 376 l 604 782 l 682 376 z "},"Ǎ":{"ha":1024,"x_min":0,"x_max":0,"o":"m 599 1100 l 749 1100 l 929 1310 l 781 1310 l 681 1161 l 626 1310 l 486 1310 z m -61 0 l 156 0 l 285 224 l 710 224 l 753 0 l 938 0 l 735 965 l 528 965 z m 368 376 l 604 782 l 682 376 z "},"Â":{"ha":1024,"x_min":0,"x_max":0,"o":"m 446 1100 l 594 1100 l 692 1243 l 749 1100 l 889 1100 l 778 1310 l 626 1310 z m -61 0 l 156 0 l 285 224 l 710 224 l 753 0 l 938 0 l 735 965 l 528 965 z m 368 376 l 604 782 l 682 376 z "},"Ấ":{"ha":1024,"x_min":0,"x_max":0,"o":"m 829 1257 l 944 1257 l 1104 1451 l 971 1451 z m 444 1100 l 594 1100 l 690 1242 l 747 1100 l 888 1100 l 778 1310 l 626 1310 z m -61 0 l 156 0 l 285 224 l 710 224 l 753 0 l 938 0 l 735 965 l 528 965 z m 368 376 l 604 782 l 682 376 z "},"Ậ":{"ha":1024,"x_min":0,"x_max":0,"o":"m 446 1100 l 594 1100 l 692 1243 l 749 1100 l 889 1100 l 778 1310 l 626 1310 z m -61 0 l 156 0 l 285 224 l 710 224 l 753 0 l 938 0 l 735 965 l 528 965 z m 368 376 l 604 782 l 682 376 z m 299 -287 l 476 -287 l 511 -119 l 335 -119 z "},"Ầ":{"ha":1024,"x_min":0,"x_max":0,"o":"m 428 1256 l 539 1256 l 481 1451 l 360 1451 z m 446 1100 l 594 1100 l 690 1242 l 747 1100 l 888 1100 l 778 1310 l 626 1310 z m -61 0 l 156 0 l 285 224 l 710 224 l 753 0 l 938 0 l 735 965 l 528 965 z m 368 376 l 604 782 l 682 376 z "},"Ẩ":{"ha":1024,"x_min":0,"x_max":0,"o":"m 838 1275 l 958 1275 b 994 1378 975 1307 989 1350 b 876 1508 1010 1456 971 1508 b 746 1488 838 1508 792 1501 l 724 1376 b 824 1394 760 1388 799 1394 b 864 1343 861 1394 872 1381 b 838 1275 858 1321 851 1301 z m 444 1100 l 594 1100 l 690 1242 l 747 1100 l 888 1100 l 778 1310 l 626 1310 z m -61 0 l 156 0 l 285 224 l 710 224 l 753 0 l 938 0 l 735 965 l 528 965 z m 368 376 l 604 782 l 682 376 z "},"Ẫ":{"ha":1024,"x_min":0,"x_max":0,"o":"m 508 1361 l 594 1361 b 654 1451 608 1422 628 1451 b 781 1361 693 1451 706 1361 b 944 1564 853 1361 915 1421 l 860 1564 b 797 1464 846 1497 828 1464 b 668 1564 754 1464 746 1564 b 508 1361 600 1564 539 1506 z m 444 1100 l 594 1100 l 690 1242 l 747 1100 l 888 1100 l 778 1310 l 626 1310 z m -61 0 l 156 0 l 285 224 l 710 224 l 753 0 l 938 0 l 735 965 l 528 965 z m 368 376 l 604 782 l 682 376 z "},"Ä":{"ha":1024,"x_min":0,"x_max":0,"o":"m 450 1121 l 624 1121 l 658 1289 l 486 1289 z m 715 1121 l 888 1121 l 924 1289 l 750 1289 z m -61 0 l 156 0 l 285 224 l 710 224 l 753 0 l 938 0 l 735 965 l 528 965 z m 368 376 l 604 782 l 682 376 z "},"Ạ":{"ha":1024,"x_min":0,"x_max":0,"o":"m -61 0 l 156 0 l 285 224 l 710 224 l 753 0 l 938 0 l 735 965 l 528 965 z m 368 376 l 604 782 l 682 376 z m 299 -287 l 476 -287 l 511 -119 l 335 -119 z "},"À":{"ha":1024,"x_min":0,"x_max":0,"o":"m 588 1096 l 726 1096 l 654 1313 l 501 1313 z m -61 0 l 156 0 l 285 224 l 710 224 l 753 0 l 938 0 l 735 965 l 528 965 z m 368 376 l 604 782 l 682 376 z "},"Ả":{"ha":1024,"x_min":0,"x_max":0,"o":"m 606 1085 l 728 1085 b 763 1188 743 1118 757 1160 b 644 1319 778 1267 739 1319 b 514 1299 607 1319 560 1313 l 492 1186 b 592 1206 528 1197 567 1206 b 632 1153 629 1206 640 1190 b 606 1085 626 1132 619 1113 z m -61 0 l 156 0 l 285 224 l 710 224 l 753 0 l 938 0 l 735 965 l 528 965 z m 368 376 l 604 782 l 682 376 z "},"Ā":{"ha":1024,"x_min":0,"x_max":0,"o":"m 460 1138 l 881 1138 l 910 1271 l 489 1271 z m -61 0 l 156 0 l 285 224 l 710 224 l 753 0 l 938 0 l 735 965 l 528 965 z m 368 376 l 604 782 l 682 376 z "},"Ą":{"ha":1024,"x_min":0,"x_max":0,"o":"m 693 -161 b 863 0 703 -115 746 -76 l 938 0 l 735 965 l 528 965 l -61 0 l 156 0 l 285 224 l 710 224 l 750 13 b 569 -165 651 -39 583 -103 b 711 -324 549 -268 608 -324 b 833 -310 760 -324 800 -317 l 856 -207 b 760 -218 822 -214 788 -218 b 693 -161 707 -218 685 -196 z m 368 376 l 604 782 l 682 376 z "},"Å":{"ha":1024,"x_min":0,"x_max":0,"o":"m 658 1078 b 818 1207 733 1078 801 1128 b 714 1335 832 1276 782 1335 b 554 1207 639 1335 571 1281 b 658 1078 540 1138 588 1078 z m 676 1157 b 635 1207 647 1157 629 1179 b 697 1257 642 1235 668 1257 b 738 1207 724 1257 743 1235 b 676 1157 731 1179 703 1157 z m -61 0 l 156 0 l 285 224 l 710 224 l 753 0 l 938 0 l 735 965 l 528 965 z m 368 376 l 604 782 l 682 376 z "},"Ã":{"ha":1024,"x_min":0,"x_max":0,"o":"m 440 1092 l 536 1092 b 601 1192 550 1160 572 1192 b 743 1092 644 1192 658 1092 b 925 1317 822 1092 892 1158 l 831 1317 b 761 1204 814 1243 794 1204 b 618 1317 713 1204 703 1317 b 440 1092 542 1317 474 1253 z m -61 0 l 156 0 l 285 224 l 710 224 l 753 0 l 938 0 l 735 965 l 528 965 z m 368 376 l 604 782 l 682 376 z "},"Æ":{"ha":1483,"x_min":0,"x_max":0,"o":"m -61 0 l 169 0 l 344 219 l 682 219 l 635 0 l 1349 0 l 1383 160 l 850 160 l 906 419 l 1367 419 l 1400 576 l 940 576 l 988 807 l 1519 807 l 1554 965 l 728 965 z m 463 371 l 806 801 l 714 371 z "},"B":{"ha":919,"x_min":0,"x_max":0,"o":"m -1 0 l 450 0 b 858 272 690 0 821 94 b 722 499 881 381 832 465 b 935 710 840 525 911 600 b 651 965 967 864 871 965 l 204 965 z m 307 572 l 358 818 l 622 818 b 754 693 732 818 771 771 b 569 572 738 617 678 572 z m 215 147 l 275 421 l 536 421 b 678 286 654 421 696 369 b 478 147 660 199 596 147 z "},"C":{"ha":974,"x_min":0,"x_max":0,"o":"m 421 -7 b 936 385 685 -7 853 139 l 756 385 b 454 151 692 238 588 151 b 264 483 301 151 221 282 b 596 818 307 688 444 818 b 786 585 731 818 794 732 l 968 585 b 629 976 983 832 853 976 b 82 482 342 976 143 772 b 421 -7 21 201 174 -7 z "},"Ć":{"ha":974,"x_min":0,"x_max":0,"o":"m 576 1096 l 721 1096 l 921 1313 l 756 1313 z m 421 -7 b 936 385 685 -7 853 139 l 756 385 b 454 151 692 238 588 151 b 264 483 301 151 221 282 b 596 818 307 688 444 818 b 786 585 731 818 794 732 l 968 585 b 629 976 983 832 853 976 b 82 482 342 976 143 772 b 421 -7 21 201 174 -7 z "},"Č":{"ha":974,"x_min":0,"x_max":0,"o":"m 589 1100 l 739 1100 l 919 1310 l 771 1310 l 671 1161 l 617 1310 l 476 1310 z m 421 -7 b 936 385 685 -7 853 139 l 756 385 b 454 151 692 238 588 151 b 264 483 301 151 221 282 b 596 818 307 688 444 818 b 786 585 731 818 794 732 l 968 585 b 629 976 983 832 853 976 b 82 482 342 976 143 772 b 421 -7 21 201 174 -7 z "},"Ç":{"ha":974,"x_min":0,"x_max":0,"o":"m 968 585 b 629 976 983 832 853 976 b 82 482 342 976 143 772 b 367 -3 25 222 151 25 l 342 -119 b 456 -176 444 -122 461 -151 b 340 -225 447 -212 407 -225 b 233 -221 299 -225 264 -224 l 215 -308 b 338 -315 257 -312 290 -315 b 571 -185 479 -315 554 -264 b 460 -58 586 -115 546 -67 l 472 -6 b 936 385 707 13 858 156 l 756 385 b 454 151 692 238 588 151 b 264 483 301 151 221 282 b 596 818 307 688 444 818 b 786 585 731 818 794 732 z "},"Ċ":{"ha":974,"x_min":0,"x_max":0,"o":"m 561 1111 l 754 1111 l 794 1300 l 600 1300 z m 421 -7 b 936 385 685 -7 853 139 l 756 385 b 454 151 692 238 588 151 b 264 483 301 151 221 282 b 596 818 307 688 444 818 b 786 585 731 818 794 732 l 968 585 b 629 976 983 832 853 976 b 82 482 342 976 143 772 b 421 -7 21 201 174 -7 z "},"D":{"ha":982,"x_min":0,"x_max":0,"o":"m -1 0 l 396 0 b 957 481 707 0 894 179 b 592 965 1022 788 849 965 l 204 965 z m 219 163 l 356 803 l 557 803 b 774 482 731 803 819 694 b 421 163 731 275 593 163 z "},"Ð":{"ha":1010,"x_min":0,"x_max":0,"o":"m 619 965 l 232 965 l 142 542 l 42 542 l 17 425 l 117 425 l 26 0 l 424 0 b 985 481 735 0 922 179 b 619 965 1050 788 876 965 z m 801 482 b 449 163 758 275 621 163 l 247 163 l 303 425 l 569 425 l 594 542 l 328 542 l 383 803 l 585 803 b 801 482 758 803 847 694 z "},"Ď":{"ha":982,"x_min":0,"x_max":0,"o":"m 504 1100 l 654 1100 l 835 1310 l 686 1310 l 586 1161 l 532 1310 l 392 1310 z m -1 0 l 396 0 b 957 481 707 0 894 179 b 592 965 1022 788 849 965 l 204 965 z m 219 163 l 356 803 l 557 803 b 774 482 731 803 819 694 b 421 163 731 275 593 163 z "},"Đ":{"ha":1010,"x_min":0,"x_max":0,"o":"m 619 965 l 232 965 l 142 542 l 42 542 l 17 425 l 117 425 l 26 0 l 424 0 b 985 481 735 0 922 179 b 619 965 1050 788 876 965 z m 801 482 b 449 163 758 275 621 163 l 247 163 l 303 425 l 569 425 l 594 542 l 328 542 l 383 803 l 585 803 b 801 482 758 803 847 694 z "},"E":{"ha":875,"x_min":0,"x_max":0,"o":"m -1 0 l 742 0 l 776 160 l 218 160 l 274 419 l 756 419 l 790 576 l 307 576 l 357 807 l 913 807 l 947 965 l 204 965 z "},"É":{"ha":875,"x_min":0,"x_max":0,"o":"m 535 1096 l 679 1096 l 879 1313 l 714 1313 z m -1 0 l 742 0 l 776 160 l 218 160 l 274 419 l 756 419 l 790 576 l 307 576 l 357 807 l 913 807 l 947 965 l 204 965 z "},"Ě":{"ha":875,"x_min":0,"x_max":0,"o":"m 547 1100 l 697 1100 l 878 1310 l 729 1310 l 629 1161 l 575 1310 l 435 1310 z m -1 0 l 742 0 l 776 160 l 218 160 l 274 419 l 756 419 l 790 576 l 307 576 l 357 807 l 913 807 l 947 965 l 204 965 z "},"Ȩ":{"ha":875,"x_min":0,"x_max":0,"o":"m 913 807 l 947 965 l 204 965 l -1 0 l 329 0 l 304 -119 b 418 -176 407 -122 424 -151 b 303 -225 410 -212 369 -225 b 196 -221 261 -225 226 -224 l 178 -308 b 300 -315 219 -312 253 -315 b 533 -185 442 -315 517 -264 b 422 -58 549 -115 508 -67 l 435 0 l 742 0 l 776 160 l 218 160 l 274 419 l 756 419 l 790 576 l 307 576 l 357 807 z "},"Ê":{"ha":875,"x_min":0,"x_max":0,"o":"m 394 1100 l 543 1100 l 640 1243 l 697 1100 l 838 1100 l 726 1310 l 575 1310 z m -1 0 l 742 0 l 776 160 l 218 160 l 274 419 l 756 419 l 790 576 l 307 576 l 357 807 l 913 807 l 947 965 l 204 965 z "},"Ế":{"ha":875,"x_min":0,"x_max":0,"o":"m 779 1257 l 894 1257 l 1054 1451 l 921 1451 z m 394 1100 l 544 1100 l 640 1242 l 697 1100 l 838 1100 l 728 1310 l 576 1310 z m -1 0 l 742 0 l 776 160 l 218 160 l 274 419 l 756 419 l 790 576 l 307 576 l 357 807 l 913 807 l 947 965 l 204 965 z "},"Ệ":{"ha":875,"x_min":0,"x_max":0,"o":"m 394 1100 l 543 1100 l 640 1243 l 697 1100 l 838 1100 l 726 1310 l 575 1310 z m -1 0 l 742 0 l 776 160 l 218 160 l 274 419 l 756 419 l 790 576 l 307 576 l 357 807 l 913 807 l 947 965 l 204 965 z m 232 -287 l 410 -287 l 444 -119 l 268 -119 z "},"Ề":{"ha":875,"x_min":0,"x_max":0,"o":"m 378 1256 l 489 1256 l 431 1451 l 310 1451 z m 396 1100 l 544 1100 l 640 1242 l 697 1100 l 838 1100 l 728 1310 l 576 1310 z m -1 0 l 742 0 l 776 160 l 218 160 l 274 419 l 756 419 l 790 576 l 307 576 l 357 807 l 913 807 l 947 965 l 204 965 z "},"Ể":{"ha":875,"x_min":0,"x_max":0,"o":"m 788 1275 l 908 1275 b 944 1378 925 1307 939 1350 b 826 1508 960 1456 921 1508 b 696 1488 788 1508 742 1501 l 674 1376 b 774 1394 710 1388 749 1394 b 814 1343 811 1394 822 1381 b 788 1275 808 1321 801 1301 z m 394 1100 l 544 1100 l 640 1242 l 697 1100 l 838 1100 l 728 1310 l 576 1310 z m -1 0 l 742 0 l 776 160 l 218 160 l 274 419 l 756 419 l 790 576 l 307 576 l 357 807 l 913 807 l 947 965 l 204 965 z "},"Ễ":{"ha":875,"x_min":0,"x_max":0,"o":"m 458 1361 l 544 1361 b 604 1451 558 1422 578 1451 b 731 1361 643 1451 656 1361 b 894 1564 803 1361 865 1421 l 810 1564 b 747 1464 796 1497 778 1464 b 618 1564 704 1464 696 1564 b 458 1361 550 1564 489 1506 z m 394 1100 l 544 1100 l 640 1242 l 697 1100 l 838 1100 l 728 1310 l 576 1310 z m -1 0 l 742 0 l 776 160 l 218 160 l 274 419 l 756 419 l 790 576 l 307 576 l 357 807 l 913 807 l 947 965 l 204 965 z "},"Ë":{"ha":875,"x_min":0,"x_max":0,"o":"m 399 1121 l 572 1121 l 607 1289 l 435 1289 z m 664 1121 l 836 1121 l 872 1289 l 699 1289 z m -1 0 l 742 0 l 776 160 l 218 160 l 274 419 l 756 419 l 790 576 l 307 576 l 357 807 l 913 807 l 947 965 l 204 965 z "},"Ė":{"ha":875,"x_min":0,"x_max":0,"o":"m 519 1111 l 713 1111 l 753 1300 l 558 1300 z m -1 0 l 742 0 l 776 160 l 218 160 l 274 419 l 756 419 l 790 576 l 307 576 l 357 807 l 913 807 l 947 965 l 204 965 z "},"Ẹ":{"ha":875,"x_min":0,"x_max":0,"o":"m -1 0 l 742 0 l 776 160 l 218 160 l 274 419 l 756 419 l 790 576 l 307 576 l 357 807 l 913 807 l 947 965 l 204 965 z m 232 -287 l 410 -287 l 444 -119 l 268 -119 z "},"È":{"ha":875,"x_min":0,"x_max":0,"o":"m 538 1096 l 676 1096 l 604 1313 l 451 1313 z m -1 0 l 742 0 l 776 160 l 218 160 l 274 419 l 756 419 l 790 576 l 307 576 l 357 807 l 913 807 l 947 965 l 204 965 z "},"Ẻ":{"ha":875,"x_min":0,"x_max":0,"o":"m 554 1085 l 676 1085 b 711 1188 692 1118 706 1160 b 593 1319 726 1267 688 1319 b 463 1299 556 1319 508 1313 l 440 1186 b 540 1206 476 1197 515 1206 b 581 1153 578 1206 589 1190 b 554 1085 575 1132 568 1113 z m -1 0 l 742 0 l 776 160 l 218 160 l 274 419 l 756 419 l 790 576 l 307 576 l 357 807 l 913 807 l 947 965 l 204 965 z "},"Ē":{"ha":875,"x_min":0,"x_max":0,"o":"m 408 1138 l 829 1138 l 858 1271 l 438 1271 z m -1 0 l 742 0 l 776 160 l 218 160 l 274 419 l 756 419 l 790 576 l 307 576 l 357 807 l 913 807 l 947 965 l 204 965 z "},"Ę":{"ha":875,"x_min":0,"x_max":0,"o":"m 913 807 l 947 965 l 204 965 l -1 0 l 608 0 b 440 -171 517 -50 454 -111 b 582 -329 419 -274 479 -329 b 704 -315 631 -329 671 -322 l 726 -212 b 631 -224 693 -219 658 -224 b 564 -167 578 -224 556 -201 b 742 0 574 -119 619 -81 l 776 160 l 218 160 l 274 419 l 756 419 l 790 576 l 307 576 l 357 807 z "},"Ẽ":{"ha":875,"x_min":0,"x_max":0,"o":"m 389 1092 l 485 1092 b 550 1192 499 1160 521 1192 b 692 1092 593 1192 607 1092 b 874 1317 771 1092 840 1158 l 779 1317 b 710 1204 763 1243 743 1204 b 567 1317 661 1204 651 1317 b 389 1092 490 1317 422 1253 z m -1 0 l 742 0 l 776 160 l 218 160 l 274 419 l 756 419 l 790 576 l 307 576 l 357 807 l 913 807 l 947 965 l 204 965 z "},"F":{"ha":846,"x_min":0,"x_max":0,"o":"m -1 0 l 185 0 l 272 411 l 760 411 l 793 568 l 306 568 l 357 807 l 897 807 l 931 965 l 204 965 z "},"G":{"ha":1021,"x_min":0,"x_max":0,"o":"m 413 -11 b 763 171 561 -11 686 54 l 753 0 l 872 0 l 974 476 l 531 476 l 501 338 l 733 338 b 454 143 688 215 579 143 b 260 482 297 143 217 279 b 617 821 301 681 449 821 b 821 585 761 821 836 728 l 996 585 b 646 978 1013 824 890 978 b 82 482 356 978 144 776 b 413 -11 21 194 171 -11 z "},"Ğ":{"ha":1021,"x_min":0,"x_max":0,"o":"m 667 1085 b 919 1304 799 1085 883 1140 l 815 1304 b 685 1185 793 1214 747 1185 b 608 1304 619 1185 590 1221 l 507 1304 b 667 1085 475 1158 551 1085 z m 413 -11 b 763 171 561 -11 686 54 l 753 0 l 872 0 l 974 476 l 531 476 l 501 338 l 733 338 b 454 143 688 215 579 143 b 260 482 297 143 217 279 b 617 821 301 681 449 821 b 821 585 761 821 836 728 l 996 585 b 646 978 1013 824 890 978 b 82 482 356 978 144 776 b 413 -11 21 194 171 -11 z "},"Ǧ":{"ha":1021,"x_min":0,"x_max":0,"o":"m 606 1100 l 756 1100 l 936 1310 l 788 1310 l 688 1161 l 633 1310 l 493 1310 z m 413 -11 b 763 171 561 -11 686 54 l 753 0 l 872 0 l 974 476 l 531 476 l 501 338 l 733 338 b 454 143 688 215 579 143 b 260 482 297 143 217 279 b 617 821 301 681 449 821 b 821 585 761 821 836 728 l 996 585 b 646 978 1013 824 890 978 b 82 482 356 978 144 776 b 413 -11 21 194 171 -11 z "},"Ģ":{"ha":1021,"x_min":0,"x_max":0,"o":"m 413 -11 b 763 171 561 -11 686 54 l 753 0 l 872 0 l 974 476 l 531 476 l 501 338 l 733 338 b 454 143 688 215 579 143 b 260 482 297 143 217 279 b 617 821 301 681 449 821 b 821 585 761 821 836 728 l 996 585 b 646 978 1013 824 890 978 b 82 482 356 978 144 776 b 413 -11 21 194 171 -11 z m 224 -386 l 340 -386 l 475 -107 l 349 -107 z "},"Ġ":{"ha":1021,"x_min":0,"x_max":0,"o":"m 578 1111 l 771 1111 l 811 1300 l 617 1300 z m 413 -11 b 763 171 561 -11 686 54 l 753 0 l 872 0 l 974 476 l 531 476 l 501 338 l 733 338 b 454 143 688 215 579 143 b 260 482 297 143 217 279 b 617 821 301 681 449 821 b 821 585 761 821 836 728 l 996 585 b 646 978 1013 824 890 978 b 82 482 356 978 144 776 b 413 -11 21 194 171 -11 z "},"H":{"ha":971,"x_min":0,"x_max":0,"o":"m -1 0 l 185 0 l 272 413 l 728 413 l 639 0 l 825 0 l 1031 965 l 844 965 l 761 571 l 307 571 l 390 965 l 204 965 z "},"Ħ":{"ha":969,"x_min":0,"x_max":0,"o":"m 1060 814 l 997 814 l 1029 965 l 843 965 l 811 814 l 357 814 l 389 965 l 203 965 l 171 814 l 107 814 l 83 699 l 146 699 l -3 0 l 183 0 l 271 413 l 726 413 l 638 0 l 824 0 l 972 699 l 1035 699 z m 760 571 l 306 571 l 332 699 l 786 699 z "},"I":{"ha":331,"x_min":0,"x_max":0,"o":"m -1 0 l 185 0 l 390 965 l 204 965 z "},"Í":{"ha":331,"x_min":0,"x_max":0,"o":"m 246 1096 l 390 1096 l 590 1313 l 425 1313 z m -1 0 l 185 0 l 390 965 l 204 965 z "},"Ǐ":{"ha":331,"x_min":0,"x_max":0,"o":"m 258 1100 l 408 1100 l 589 1310 l 440 1310 l 340 1161 l 286 1310 l 146 1310 z m -1 0 l 185 0 l 390 965 l 204 965 z "},"Î":{"ha":331,"x_min":0,"x_max":0,"o":"m 107 1100 l 256 1100 l 353 1243 l 410 1100 l 550 1100 l 439 1310 l 288 1310 z m -1 0 l 185 0 l 390 965 l 204 965 z "},"Ï":{"ha":331,"x_min":0,"x_max":0,"o":"m 111 1121 l 285 1121 l 319 1289 l 147 1289 z m 376 1121 l 549 1121 l 585 1289 l 411 1289 z m -1 0 l 185 0 l 390 965 l 204 965 z "},"İ":{"ha":331,"x_min":0,"x_max":0,"o":"m 231 1111 l 424 1111 l 464 1300 l 269 1300 z m -1 0 l 185 0 l 390 965 l 204 965 z "},"Ị":{"ha":331,"x_min":0,"x_max":0,"o":"m -1 0 l 185 0 l 390 965 l 204 965 z m -61 -287 l 117 -287 l 151 -119 l -25 -119 z "},"Ì":{"ha":331,"x_min":0,"x_max":0,"o":"m 249 1096 l 388 1096 l 315 1313 l 163 1313 z m -1 0 l 185 0 l 390 965 l 204 965 z "},"Ỉ":{"ha":331,"x_min":0,"x_max":0,"o":"m 267 1085 l 389 1085 b 424 1188 404 1118 418 1160 b 306 1319 439 1267 400 1319 b 175 1299 268 1319 221 1313 l 153 1186 b 253 1206 189 1197 228 1206 b 293 1153 290 1206 301 1190 b 267 1085 288 1132 281 1113 z m -1 0 l 185 0 l 390 965 l 204 965 z "},"Ī":{"ha":331,"x_min":0,"x_max":0,"o":"m 121 1138 l 542 1138 l 571 1271 l 150 1271 z m -1 0 l 185 0 l 390 965 l 204 965 z "},"Į":{"ha":331,"x_min":0,"x_max":0,"o":"m 129 0 l 185 0 l 390 965 l 204 965 l -1 1 b -165 -167 -90 -49 -151 -107 b -24 -325 -186 -269 -126 -325 b 99 -311 25 -325 65 -318 l 121 -208 b 25 -219 88 -215 53 -219 b -42 -162 -28 -219 -50 -197 b 129 0 -32 -117 13 -78 z "},"Ĩ":{"ha":331,"x_min":0,"x_max":0,"o":"m 101 1092 l 197 1092 b 263 1192 211 1160 233 1192 b 404 1092 306 1192 319 1092 b 586 1317 483 1092 553 1158 l 492 1317 b 422 1204 475 1243 456 1204 b 279 1317 374 1204 364 1317 b 101 1092 203 1317 135 1253 z m -1 0 l 185 0 l 390 965 l 204 965 z "},"J":{"ha":594,"x_min":0,"x_max":0,"o":"m -56 -7 b 528 353 240 -7 465 56 l 658 965 l 474 965 l 353 396 b -19 164 313 214 188 164 z "},"K":{"ha":975,"x_min":0,"x_max":0,"o":"m 1092 965 l 829 965 l 303 557 l 390 965 l 204 965 l -1 0 l 185 0 l 254 328 l 419 453 l 678 0 l 892 0 l 560 560 z "},"Ķ":{"ha":975,"x_min":0,"x_max":0,"o":"m 1092 965 l 829 965 l 303 557 l 390 965 l 204 965 l -1 0 l 185 0 l 254 328 l 419 453 l 678 0 l 892 0 l 560 560 z m 218 -386 l 335 -386 l 469 -107 l 343 -107 z "},"L":{"ha":819,"x_min":0,"x_max":0,"o":"m -1 0 l 700 0 l 733 160 l 218 160 l 390 965 l 204 965 z "},"Ĺ":{"ha":819,"x_min":0,"x_max":0,"o":"m 246 1096 l 390 1096 l 590 1313 l 425 1313 z m -1 0 l 700 0 l 733 160 l 218 160 l 390 965 l 204 965 z "},"Ľ":{"ha":819,"x_min":0,"x_max":0,"o":"m 258 1100 l 408 1100 l 589 1310 l 440 1310 l 340 1161 l 286 1310 l 146 1310 z m -1 0 l 700 0 l 733 160 l 218 160 l 390 965 l 204 965 z "},"Ļ":{"ha":819,"x_min":0,"x_max":0,"o":"m -1 0 l 700 0 l 733 160 l 218 160 l 390 965 l 204 965 z m 178 -386 l 294 -386 l 429 -107 l 303 -107 z "},"Ḷ":{"ha":819,"x_min":0,"x_max":0,"o":"m -1 0 l 700 0 l 733 160 l 218 160 l 390 965 l 204 965 z m 235 -287 l 413 -287 l 447 -119 l 271 -119 z "},"Ł":{"ha":819,"x_min":0,"x_max":0,"o":"m 218 160 l 278 442 l 399 488 l 433 650 l 313 604 l 390 965 l 204 965 l 111 528 l -15 479 l -49 317 l 76 364 l -1 0 l 700 0 l 733 160 z "},"M":{"ha":1232,"x_min":0,"x_max":0,"o":"m -1 0 l 182 0 l 318 631 l 453 0 l 654 0 l 1042 647 l 903 0 l 1088 0 l 1293 965 l 1046 965 l 576 146 l 411 965 l 204 965 z "},"Ḿ":{"ha":1232,"x_min":0,"x_max":0,"o":"m 697 1096 l 842 1096 l 1042 1313 l 876 1313 z m -1 0 l 182 0 l 318 631 l 453 0 l 654 0 l 1042 647 l 903 0 l 1088 0 l 1293 965 l 1046 965 l 576 146 l 411 965 l 204 965 z "},"N":{"ha":994,"x_min":0,"x_max":0,"o":"m -1 0 l 183 0 l 338 731 l 624 0 l 849 0 l 1054 965 l 871 965 l 714 231 l 426 965 l 204 965 z "},"Ń":{"ha":994,"x_min":0,"x_max":0,"o":"m 571 1096 l 715 1096 l 915 1313 l 750 1313 z m -1 0 l 183 0 l 338 731 l 624 0 l 849 0 l 1054 965 l 871 965 l 714 231 l 426 965 l 204 965 z "},"Ň":{"ha":994,"x_min":0,"x_max":0,"o":"m 583 1100 l 733 1100 l 914 1310 l 765 1310 l 665 1161 l 611 1310 l 471 1310 z m -1 0 l 183 0 l 338 731 l 624 0 l 849 0 l 1054 965 l 871 965 l 714 231 l 426 965 l 204 965 z "},"Ņ":{"ha":994,"x_min":0,"x_max":0,"o":"m -1 0 l 183 0 l 338 731 l 624 0 l 849 0 l 1054 965 l 871 965 l 714 231 l 426 965 l 204 965 z m 210 -386 l 326 -386 l 461 -107 l 335 -107 z "},"Ṇ":{"ha":994,"x_min":0,"x_max":0,"o":"m -1 0 l 183 0 l 338 731 l 624 0 l 849 0 l 1054 965 l 871 965 l 714 231 l 426 965 l 204 965 z m 267 -287 l 444 -287 l 479 -119 l 303 -119 z "},"Ŋ":{"ha":1019,"x_min":0,"x_max":0,"o":"m 510 -329 b 868 -31 700 -329 822 -247 l 1079 965 l 894 965 l 739 233 l 435 965 l 204 965 l -1 0 l 183 0 l 342 744 l 669 -56 b 500 -164 640 -133 589 -164 b 400 -158 467 -164 450 -161 l 365 -324 b 510 -329 419 -329 467 -329 z "},"Ñ":{"ha":994,"x_min":0,"x_max":0,"o":"m 425 1092 l 521 1092 b 586 1192 535 1160 557 1192 b 728 1092 629 1192 643 1092 b 910 1317 807 1092 876 1158 l 815 1317 b 746 1204 799 1243 779 1204 b 603 1317 697 1204 688 1317 b 425 1092 526 1317 458 1253 z m -1 0 l 183 0 l 338 731 l 624 0 l 849 0 l 1054 965 l 871 965 l 714 231 l 426 965 l 204 965 z "},"O":{"ha":1010,"x_min":0,"x_max":0,"o":"m 433 -14 b 986 482 749 -14 922 190 b 638 979 1047 765 911 979 b 82 482 338 979 142 769 b 433 -14 21 199 169 -14 z m 461 144 b 265 483 283 144 222 283 b 607 821 307 682 435 821 b 803 483 783 821 844 682 b 461 144 760 283 639 144 z "},"Ó":{"ha":1010,"x_min":0,"x_max":0,"o":"m 589 1096 l 733 1096 l 933 1313 l 768 1313 z m 433 -14 b 986 482 749 -14 922 190 b 638 979 1047 765 911 979 b 82 482 338 979 142 769 b 433 -14 21 199 169 -14 z m 461 144 b 265 483 283 144 222 283 b 607 821 307 682 435 821 b 803 483 783 821 844 682 b 461 144 760 283 639 144 z "},"Ǒ":{"ha":1010,"x_min":0,"x_max":0,"o":"m 601 1100 l 751 1100 l 932 1310 l 783 1310 l 683 1161 l 629 1310 l 489 1310 z m 433 -14 b 986 482 749 -14 922 190 b 638 979 1047 765 911 979 b 82 482 338 979 142 769 b 433 -14 21 199 169 -14 z m 461 144 b 265 483 283 144 222 283 b 607 821 307 682 435 821 b 803 483 783 821 844 682 b 461 144 760 283 639 144 z "},"Ô":{"ha":1010,"x_min":0,"x_max":0,"o":"m 450 1100 l 599 1100 l 696 1243 l 753 1100 l 893 1100 l 782 1310 l 631 1310 z m 433 -14 b 986 482 749 -14 922 190 b 638 979 1047 765 911 979 b 82 482 338 979 142 769 b 433 -14 21 199 169 -14 z m 461 144 b 265 483 283 144 222 283 b 607 821 307 682 435 821 b 803 483 783 821 844 682 b 461 144 760 283 639 144 z "},"Ố":{"ha":1010,"x_min":0,"x_max":0,"o":"m 833 1257 l 949 1257 l 1108 1451 l 975 1451 z m 449 1100 l 599 1100 l 694 1242 l 751 1100 l 892 1100 l 782 1310 l 631 1310 z m 433 -14 b 986 482 749 -14 922 190 b 638 979 1047 765 911 979 b 82 482 338 979 142 769 b 433 -14 21 199 169 -14 z m 461 144 b 265 483 283 144 222 283 b 607 821 307 682 435 821 b 803 483 783 821 844 682 b 461 144 760 283 639 144 z "},"Ộ":{"ha":1010,"x_min":0,"x_max":0,"o":"m 450 1100 l 599 1100 l 696 1243 l 753 1100 l 893 1100 l 782 1310 l 631 1310 z m 433 -14 b 986 482 749 -14 922 190 b 638 979 1047 765 911 979 b 82 482 338 979 142 769 b 433 -14 21 199 169 -14 z m 461 144 b 265 483 283 144 222 283 b 607 821 307 682 435 821 b 803 483 783 821 844 682 b 461 144 760 283 639 144 z m 281 -287 l 458 -287 l 493 -119 l 317 -119 z "},"Ồ":{"ha":1010,"x_min":0,"x_max":0,"o":"m 432 1256 l 543 1256 l 485 1451 l 364 1451 z m 450 1100 l 599 1100 l 694 1242 l 751 1100 l 892 1100 l 782 1310 l 631 1310 z m 433 -14 b 986 482 749 -14 922 190 b 638 979 1047 765 911 979 b 82 482 338 979 142 769 b 433 -14 21 199 169 -14 z m 461 144 b 265 483 283 144 222 283 b 607 821 307 682 435 821 b 803 483 783 821 844 682 b 461 144 760 283 639 144 z "},"Ổ":{"ha":1010,"x_min":0,"x_max":0,"o":"m 842 1275 l 963 1275 b 999 1378 979 1307 993 1350 b 881 1508 1014 1456 975 1508 b 750 1488 842 1508 796 1501 l 728 1376 b 828 1394 764 1388 803 1394 b 868 1343 865 1394 876 1381 b 842 1275 863 1321 856 1301 z m 449 1100 l 599 1100 l 694 1242 l 751 1100 l 892 1100 l 782 1310 l 631 1310 z m 433 -14 b 986 482 749 -14 922 190 b 638 979 1047 765 911 979 b 82 482 338 979 142 769 b 433 -14 21 199 169 -14 z m 461 144 b 265 483 283 144 222 283 b 607 821 307 682 435 821 b 803 483 783 821 844 682 b 461 144 760 283 639 144 z "},"Ỗ":{"ha":1010,"x_min":0,"x_max":0,"o":"m 513 1361 l 599 1361 b 658 1451 613 1422 632 1451 b 785 1361 697 1451 710 1361 b 949 1564 857 1361 919 1421 l 864 1564 b 801 1464 850 1497 832 1464 b 672 1564 758 1464 750 1564 b 513 1361 604 1564 543 1506 z m 449 1100 l 599 1100 l 694 1242 l 751 1100 l 892 1100 l 782 1310 l 631 1310 z m 433 -14 b 986 482 749 -14 922 190 b 638 979 1047 765 911 979 b 82 482 338 979 142 769 b 433 -14 21 199 169 -14 z m 461 144 b 265 483 283 144 222 283 b 607 821 307 682 435 821 b 803 483 783 821 844 682 b 461 144 760 283 639 144 z "},"Ö":{"ha":1010,"x_min":0,"x_max":0,"o":"m 453 1121 l 626 1121 l 661 1289 l 489 1289 z m 718 1121 l 890 1121 l 926 1289 l 753 1289 z m 433 -14 b 986 482 749 -14 922 190 b 638 979 1047 765 911 979 b 82 482 338 979 142 769 b 433 -14 21 199 169 -14 z m 461 144 b 265 483 283 144 222 283 b 607 821 307 682 435 821 b 803 483 783 821 844 682 b 461 144 760 283 639 144 z "},"Ọ":{"ha":1010,"x_min":0,"x_max":0,"o":"m 433 -14 b 986 482 749 -14 922 190 b 638 979 1047 765 911 979 b 82 482 338 979 142 769 b 433 -14 21 199 169 -14 z m 461 144 b 265 483 283 144 222 283 b 607 821 307 682 435 821 b 803 483 783 821 844 682 b 461 144 760 283 639 144 z m 281 -287 l 458 -287 l 493 -119 l 317 -119 z "},"Ò":{"ha":1010,"x_min":0,"x_max":0,"o":"m 592 1096 l 731 1096 l 658 1313 l 506 1313 z m 433 -14 b 986 482 749 -14 922 190 b 638 979 1047 765 911 979 b 82 482 338 979 142 769 b 433 -14 21 199 169 -14 z m 461 144 b 265 483 283 144 222 283 b 607 821 307 682 435 821 b 803 483 783 821 844 682 b 461 144 760 283 639 144 z "},"Ỏ":{"ha":1010,"x_min":0,"x_max":0,"o":"m 610 1085 l 732 1085 b 767 1188 747 1118 761 1160 b 649 1319 782 1267 743 1319 b 518 1299 611 1319 564 1313 l 496 1186 b 596 1206 532 1197 571 1206 b 636 1153 633 1206 644 1190 b 610 1085 631 1132 624 1113 z m 433 -14 b 986 482 749 -14 922 190 b 638 979 1047 765 911 979 b 82 482 338 979 142 769 b 433 -14 21 199 169 -14 z m 461 144 b 265 483 283 144 222 283 b 607 821 307 682 435 821 b 803 483 783 821 844 682 b 461 144 760 283 639 144 z "},"Ơ":{"ha":1010,"x_min":0,"x_max":0,"o":"m 1079 1067 l 950 1067 b 864 913 942 1019 931 936 b 638 979 806 956 729 979 b 82 482 338 979 142 769 b 433 -14 21 199 169 -14 b 986 482 749 -14 922 190 b 935 840 1017 625 997 751 b 1079 1067 1039 876 1060 969 z m 803 483 b 461 144 760 283 639 144 b 265 483 283 144 222 283 b 607 821 307 682 435 821 b 803 483 783 821 844 682 z "},"Ớ":{"ha":1010,"x_min":0,"x_max":0,"o":"m 933 1313 l 768 1313 l 589 1096 l 733 1096 z m 1079 1067 l 950 1067 b 864 913 942 1019 931 936 b 638 979 806 956 729 979 b 82 482 338 979 142 769 b 433 -14 21 199 169 -14 b 986 482 749 -14 922 190 b 935 840 1017 625 997 751 b 1079 1067 1039 876 1060 969 z m 803 483 b 461 144 760 283 639 144 b 265 483 283 144 222 283 b 607 821 307 682 435 821 b 803 483 783 821 844 682 z "},"Ợ":{"ha":1010,"x_min":0,"x_max":0,"o":"m 1079 1067 l 950 1067 b 864 913 942 1019 931 936 b 638 979 806 956 729 979 b 82 482 338 979 142 769 b 433 -14 21 199 169 -14 b 986 482 749 -14 922 190 b 935 840 1017 625 997 751 b 1079 1067 1039 876 1060 969 z m 803 483 b 461 144 760 283 639 144 b 265 483 283 144 222 283 b 607 821 307 682 435 821 b 803 483 783 821 844 682 z m 281 -287 l 458 -287 l 493 -119 l 317 -119 z "},"Ờ":{"ha":1010,"x_min":0,"x_max":0,"o":"m 731 1096 l 658 1313 l 506 1313 l 592 1096 z m 1079 1067 l 950 1067 b 864 913 942 1019 931 936 b 638 979 806 956 729 979 b 82 482 338 979 142 769 b 433 -14 21 199 169 -14 b 986 482 749 -14 922 190 b 935 840 1017 625 997 751 b 1079 1067 1039 876 1060 969 z m 803 483 b 461 144 760 283 639 144 b 265 483 283 144 222 283 b 607 821 307 682 435 821 b 803 483 783 821 844 682 z "},"Ở":{"ha":1010,"x_min":0,"x_max":0,"o":"m 636 1153 b 610 1085 631 1132 624 1113 l 732 1085 b 767 1188 747 1118 761 1160 b 649 1319 782 1267 743 1319 b 518 1299 611 1319 564 1313 l 496 1186 b 596 1206 532 1197 571 1206 b 636 1153 633 1206 644 1190 z m 1079 1067 l 950 1067 b 864 913 942 1019 931 936 b 638 979 806 956 729 979 b 82 482 338 979 142 769 b 433 -14 21 199 169 -14 b 986 482 749 -14 922 190 b 935 840 1017 625 997 751 b 1079 1067 1039 876 1060 969 z m 803 483 b 461 144 760 283 639 144 b 265 483 283 144 222 283 b 607 821 307 682 435 821 b 803 483 783 821 844 682 z "},"Ỡ":{"ha":1010,"x_min":0,"x_max":0,"o":"m 606 1192 b 747 1092 649 1192 663 1092 b 929 1317 826 1092 896 1158 l 835 1317 b 765 1204 818 1243 799 1204 b 622 1317 717 1204 707 1317 b 444 1092 546 1317 478 1253 l 540 1092 b 606 1192 554 1160 576 1192 z m 1079 1067 l 950 1067 b 864 913 942 1019 931 936 b 638 979 806 956 729 979 b 82 482 338 979 142 769 b 433 -14 21 199 169 -14 b 986 482 749 -14 922 190 b 935 840 1017 625 997 751 b 1079 1067 1039 876 1060 969 z m 803 483 b 461 144 760 283 639 144 b 265 483 283 144 222 283 b 607 821 307 682 435 821 b 803 483 783 821 844 682 z "},"Ő":{"ha":1010,"x_min":0,"x_max":0,"o":"m 493 1100 l 625 1100 l 818 1310 l 668 1310 z m 701 1100 l 835 1100 l 1029 1310 l 876 1310 z m 433 -14 b 986 482 749 -14 922 190 b 638 979 1047 765 911 979 b 82 482 338 979 142 769 b 433 -14 21 199 169 -14 z m 461 144 b 265 483 283 144 222 283 b 607 821 307 682 435 821 b 803 483 783 821 844 682 b 461 144 760 283 639 144 z "},"Ō":{"ha":1010,"x_min":0,"x_max":0,"o":"m 463 1138 l 883 1138 l 913 1271 l 492 1271 z m 433 -14 b 986 482 749 -14 922 190 b 638 979 1047 765 911 979 b 82 482 338 979 142 769 b 433 -14 21 199 169 -14 z m 461 144 b 265 483 283 144 222 283 b 607 821 307 682 435 821 b 803 483 783 821 844 682 b 461 144 760 283 639 144 z "},"Ø":{"ha":1010,"x_min":0,"x_max":0,"o":"m 1071 1043 l 919 1043 l 829 935 b 638 979 776 964 713 979 b 82 482 338 979 142 769 b 150 110 49 331 76 199 l -6 -78 l 147 -78 l 239 33 b 433 -14 293 3 358 -14 b 986 482 749 -14 922 190 b 919 860 1019 636 994 771 z m 265 483 b 607 821 307 682 435 821 b 717 797 650 821 686 813 l 271 258 b 265 483 247 317 246 393 z m 803 483 b 461 144 760 283 639 144 b 350 169 417 144 381 153 l 796 708 b 803 483 819 650 822 574 z "},"Ǿ":{"ha":1010,"x_min":0,"x_max":0,"o":"m 933 1313 l 768 1313 l 589 1096 l 733 1096 z m 1071 1043 l 919 1043 l 829 935 b 638 979 776 964 713 979 b 82 482 338 979 142 769 b 150 110 49 331 76 199 l -6 -78 l 147 -78 l 239 33 b 433 -14 293 3 358 -14 b 986 482 749 -14 922 190 b 919 860 1019 636 994 771 z m 265 483 b 607 821 307 682 435 821 b 717 797 650 821 686 813 l 271 258 b 265 483 247 317 246 393 z m 803 483 b 461 144 760 283 639 144 b 350 169 417 144 381 153 l 796 708 b 803 483 819 650 822 574 z "},"Õ":{"ha":1010,"x_min":0,"x_max":0,"o":"m 444 1092 l 540 1092 b 606 1192 554 1160 576 1192 b 747 1092 649 1192 663 1092 b 929 1317 826 1092 896 1158 l 835 1317 b 765 1204 818 1243 799 1204 b 622 1317 717 1204 707 1317 b 444 1092 546 1317 478 1253 z m 433 -14 b 986 482 749 -14 922 190 b 638 979 1047 765 911 979 b 82 482 338 979 142 769 b 433 -14 21 199 169 -14 z m 461 144 b 265 483 283 144 222 283 b 607 821 307 682 435 821 b 803 483 783 821 844 682 b 461 144 760 283 639 144 z "},"Œ":{"ha":1606,"x_min":0,"x_max":0,"o":"m 433 -14 b 749 100 564 -14 668 28 l 728 0 l 1471 0 l 1506 160 l 947 160 l 1003 419 l 1486 419 l 1519 576 l 1036 576 l 1085 807 l 1643 807 l 1676 965 l 933 965 l 907 840 b 628 979 853 925 758 979 b 82 482 338 979 142 769 b 433 -14 21 199 169 -14 z m 461 144 b 265 483 283 144 222 283 b 607 821 307 682 435 821 b 803 483 783 821 844 682 b 461 144 760 283 639 144 z "},"P":{"ha":874,"x_min":0,"x_max":0,"o":"m -1 0 l 183 0 l 260 353 l 486 353 b 910 649 717 353 865 443 b 615 965 953 851 835 965 l 204 965 z m 292 510 l 356 808 l 600 808 b 736 658 713 808 756 744 b 536 510 718 571 649 510 z "},"Þ":{"ha":876,"x_min":0,"x_max":0,"o":"m -1 0 l 185 0 l 222 176 l 451 176 b 876 474 675 176 831 258 b 581 789 919 674 785 789 l 353 789 l 390 965 l 204 965 z m 257 333 l 319 631 l 569 631 b 700 482 678 631 718 569 b 506 333 682 394 613 333 z "},"Q":{"ha":1018,"x_min":0,"x_max":0,"o":"m 986 482 b 638 979 1047 765 911 979 b 82 482 338 979 142 769 b 433 -14 21 199 169 -14 b 593 6 492 -14 544 -7 l 726 -207 l 874 -121 l 732 68 b 986 482 864 153 946 300 z m 461 144 b 265 483 283 144 222 283 b 607 821 307 682 435 821 b 803 483 783 821 844 682 b 461 144 760 283 639 144 z "},"R":{"ha":915,"x_min":0,"x_max":0,"o":"m -1 0 l 185 0 l 264 375 l 451 375 b 613 217 547 375 601 329 l 633 0 l 814 0 l 789 235 b 631 436 776 347 732 414 b 925 672 806 451 900 557 b 640 965 965 865 858 965 l 204 965 z m 297 526 l 358 813 l 596 813 b 750 671 729 813 769 757 b 531 526 732 585 658 526 z "},"Ŕ":{"ha":915,"x_min":0,"x_max":0,"o":"m 483 1096 l 628 1096 l 828 1313 l 663 1313 z m -1 0 l 185 0 l 264 375 l 451 375 b 613 217 547 375 601 329 l 633 0 l 814 0 l 789 235 b 631 436 776 347 732 414 b 925 672 806 451 900 557 b 640 965 965 865 858 965 l 204 965 z m 297 526 l 358 813 l 596 813 b 750 671 729 813 769 757 b 531 526 732 585 658 526 z "},"Ř":{"ha":915,"x_min":0,"x_max":0,"o":"m 496 1100 l 646 1100 l 826 1310 l 678 1310 l 578 1161 l 524 1310 l 383 1310 z m -1 0 l 185 0 l 264 375 l 451 375 b 613 217 547 375 601 329 l 633 0 l 814 0 l 789 235 b 631 436 776 347 732 414 b 925 672 806 451 900 557 b 640 965 965 865 858 965 l 204 965 z m 297 526 l 358 813 l 596 813 b 750 671 729 813 769 757 b 531 526 732 585 658 526 z "},"Ŗ":{"ha":915,"x_min":0,"x_max":0,"o":"m -1 0 l 185 0 l 264 375 l 451 375 b 613 217 547 375 601 329 l 633 0 l 814 0 l 789 235 b 631 436 776 347 732 414 b 925 672 806 451 900 557 b 640 965 965 865 858 965 l 204 965 z m 297 526 l 358 813 l 596 813 b 750 671 729 813 769 757 b 531 526 732 585 658 526 z m 219 -386 l 336 -386 l 471 -107 l 344 -107 z "},"S":{"ha":885,"x_min":0,"x_max":0,"o":"m 413 -14 b 839 265 642 -14 800 89 b 593 549 871 422 778 521 l 421 575 b 313 693 336 588 297 624 b 521 824 329 774 415 824 b 701 647 635 824 706 761 l 878 647 b 542 979 893 857 761 979 b 133 699 326 979 169 865 b 365 422 103 554 193 449 l 524 399 b 654 271 631 382 671 347 b 431 140 638 193 551 140 b 207 318 301 140 214 206 l 24 318 b 413 -14 19 117 185 -14 z "},"Ś":{"ha":885,"x_min":0,"x_max":0,"o":"m 489 1096 l 633 1096 l 833 1313 l 668 1313 z m 413 -14 b 839 265 642 -14 800 89 b 593 549 871 422 778 521 l 421 575 b 313 693 336 588 297 624 b 521 824 329 774 415 824 b 701 647 635 824 706 761 l 878 647 b 542 979 893 857 761 979 b 133 699 326 979 169 865 b 365 422 103 554 193 449 l 524 399 b 654 271 631 382 671 347 b 431 140 638 193 551 140 b 207 318 301 140 214 206 l 24 318 b 413 -14 19 117 185 -14 z "},"Š":{"ha":885,"x_min":0,"x_max":0,"o":"m 501 1100 l 651 1100 l 832 1310 l 683 1310 l 583 1161 l 529 1310 l 389 1310 z m 413 -14 b 839 265 642 -14 800 89 b 593 549 871 422 778 521 l 421 575 b 313 693 336 588 297 624 b 521 824 329 774 415 824 b 701 647 635 824 706 761 l 878 647 b 542 979 893 857 761 979 b 133 699 326 979 169 865 b 365 422 103 554 193 449 l 524 399 b 654 271 631 382 671 347 b 431 140 638 193 551 140 b 207 318 301 140 214 206 l 24 318 b 413 -14 19 117 185 -14 z "},"Ş":{"ha":885,"x_min":0,"x_max":0,"o":"m 878 647 b 542 979 893 857 761 979 b 133 699 326 979 169 865 b 365 422 103 554 193 449 l 524 399 b 654 271 631 382 671 347 b 431 140 638 193 551 140 b 207 318 301 140 214 206 l 24 318 b 353 -11 19 135 157 10 l 331 -119 b 444 -176 433 -122 450 -151 b 329 -225 436 -212 396 -225 b 222 -221 288 -225 253 -224 l 204 -308 b 326 -315 246 -312 279 -315 b 560 -185 468 -315 543 -264 b 449 -58 575 -115 535 -67 l 458 -12 b 839 265 663 0 803 101 b 593 549 871 422 778 521 l 421 575 b 313 693 336 588 297 624 b 521 824 329 774 415 824 b 701 647 635 824 706 761 z "},"Ș":{"ha":885,"x_min":0,"x_max":0,"o":"m 413 -14 b 839 265 642 -14 800 89 b 593 549 871 422 778 521 l 421 575 b 313 693 336 588 297 624 b 521 824 329 774 415 824 b 701 647 635 824 706 761 l 878 647 b 542 979 893 857 761 979 b 133 699 326 979 169 865 b 365 422 103 554 193 449 l 524 399 b 654 271 631 382 671 347 b 431 140 638 193 551 140 b 207 318 301 140 214 206 l 24 318 b 413 -14 19 117 185 -14 z m 200 -386 l 317 -386 l 451 -107 l 325 -107 z "},"Ṣ":{"ha":885,"x_min":0,"x_max":0,"o":"m 413 -14 b 839 265 642 -14 800 89 b 593 549 871 422 778 521 l 421 575 b 313 693 336 588 297 624 b 521 824 329 774 415 824 b 701 647 635 824 706 761 l 878 647 b 542 979 893 857 761 979 b 133 699 326 979 169 865 b 365 422 103 554 193 449 l 524 399 b 654 271 631 382 671 347 b 431 140 638 193 551 140 b 207 318 301 140 214 206 l 24 318 b 413 -14 19 117 185 -14 z m 258 -287 l 436 -287 l 471 -119 l 294 -119 z "},"ẞ":{"ha":956,"x_min":0,"x_max":0,"o":"m 478 -7 b 907 260 703 -7 868 75 b 663 536 936 390 851 496 l 907 815 b 585 965 857 886 754 965 b 128 608 396 965 179 851 l -1 0 l 185 0 l 313 601 b 569 811 340 731 443 811 b 694 781 619 811 661 799 l 499 554 l 472 426 b 736 272 724 410 750 338 b 499 150 719 196 636 150 b 281 161 436 150 378 151 l 246 4 b 478 -7 321 -1 393 -7 z "},"T":{"ha":907,"x_min":0,"x_max":0,"o":"m 286 0 l 472 0 l 644 806 l 982 806 l 1015 965 l 154 965 l 121 806 l 458 806 z "},"Ŧ":{"ha":907,"x_min":0,"x_max":0,"o":"m 982 806 l 1015 965 l 154 965 l 121 806 l 458 806 l 401 542 l 221 542 l 196 425 l 376 425 l 286 0 l 472 0 l 563 425 l 749 425 l 774 542 l 588 542 l 644 806 z "},"Ť":{"ha":907,"x_min":0,"x_max":0,"o":"m 551 1100 l 701 1100 l 882 1310 l 733 1310 l 633 1161 l 579 1310 l 439 1310 z m 286 0 l 472 0 l 644 806 l 982 806 l 1015 965 l 154 965 l 121 806 l 458 806 z "},"Ţ":{"ha":907,"x_min":0,"x_max":0,"o":"m 154 965 l 121 806 l 458 806 l 286 0 l 331 0 l 306 -119 b 419 -176 408 -122 425 -151 b 304 -225 411 -212 371 -225 b 197 -221 263 -225 228 -224 l 179 -308 b 301 -315 221 -312 254 -315 b 535 -185 443 -315 518 -264 b 424 -58 550 -115 510 -67 l 436 0 l 472 0 l 644 806 l 982 806 l 1015 965 z "},"Ț":{"ha":907,"x_min":0,"x_max":0,"o":"m 286 0 l 472 0 l 644 806 l 982 806 l 1015 965 l 154 965 l 121 806 l 458 806 z m 175 -386 l 292 -386 l 426 -107 l 300 -107 z "},"Ṭ":{"ha":907,"x_min":0,"x_max":0,"o":"m 286 0 l 472 0 l 644 806 l 982 806 l 1015 965 l 154 965 l 121 806 l 458 806 z m 233 -287 l 411 -287 l 446 -119 l 269 -119 z "},"U":{"ha":999,"x_min":0,"x_max":0,"o":"m 429 -14 b 942 399 697 -14 881 114 l 1063 965 l 876 965 l 757 401 b 463 149 722 238 601 149 b 267 401 303 149 231 236 l 386 965 l 200 965 l 79 399 b 429 -14 24 138 194 -14 z "},"Ú":{"ha":999,"x_min":0,"x_max":0,"o":"m 583 1096 l 728 1096 l 928 1313 l 763 1313 z m 429 -14 b 942 399 697 -14 881 114 l 1063 965 l 876 965 l 757 401 b 463 149 722 238 601 149 b 267 401 303 149 231 236 l 386 965 l 200 965 l 79 399 b 429 -14 24 138 194 -14 z "},"Ǔ":{"ha":999,"x_min":0,"x_max":0,"o":"m 596 1100 l 746 1100 l 926 1310 l 778 1310 l 678 1161 l 624 1310 l 483 1310 z m 429 -14 b 942 399 697 -14 881 114 l 1063 965 l 876 965 l 757 401 b 463 149 722 238 601 149 b 267 401 303 149 231 236 l 386 965 l 200 965 l 79 399 b 429 -14 24 138 194 -14 z "},"Û":{"ha":999,"x_min":0,"x_max":0,"o":"m 444 1100 l 593 1100 l 690 1243 l 747 1100 l 888 1100 l 776 1310 l 625 1310 z m 429 -14 b 942 399 697 -14 881 114 l 1063 965 l 876 965 l 757 401 b 463 149 722 238 601 149 b 267 401 303 149 231 236 l 386 965 l 200 965 l 79 399 b 429 -14 24 138 194 -14 z "},"Ü":{"ha":999,"x_min":0,"x_max":0,"o":"m 447 1121 l 621 1121 l 656 1289 l 483 1289 z m 713 1121 l 885 1121 l 921 1289 l 747 1289 z m 429 -14 b 942 399 697 -14 881 114 l 1063 965 l 876 965 l 757 401 b 463 149 722 238 601 149 b 267 401 303 149 231 236 l 386 965 l 200 965 l 79 399 b 429 -14 24 138 194 -14 z "},"Ụ":{"ha":999,"x_min":0,"x_max":0,"o":"m 429 -14 b 942 399 697 -14 881 114 l 1063 965 l 876 965 l 757 401 b 463 149 722 238 601 149 b 267 401 303 149 231 236 l 386 965 l 200 965 l 79 399 b 429 -14 24 138 194 -14 z m 276 -287 l 454 -287 l 489 -119 l 313 -119 z "},"Ù":{"ha":999,"x_min":0,"x_max":0,"o":"m 586 1096 l 725 1096 l 653 1313 l 500 1313 z m 429 -14 b 942 399 697 -14 881 114 l 1063 965 l 876 965 l 757 401 b 463 149 722 238 601 149 b 267 401 303 149 231 236 l 386 965 l 200 965 l 79 399 b 429 -14 24 138 194 -14 z "},"Ủ":{"ha":999,"x_min":0,"x_max":0,"o":"m 604 1085 l 726 1085 b 761 1188 742 1118 756 1160 b 643 1319 776 1267 738 1319 b 513 1299 606 1319 558 1313 l 490 1186 b 590 1206 526 1197 565 1206 b 631 1153 628 1206 639 1190 b 604 1085 625 1132 618 1113 z m 429 -14 b 942 399 697 -14 881 114 l 1063 965 l 876 965 l 757 401 b 463 149 722 238 601 149 b 267 401 303 149 231 236 l 386 965 l 200 965 l 79 399 b 429 -14 24 138 194 -14 z "},"Ư":{"ha":999,"x_min":0,"x_max":0,"o":"m 1239 1125 l 1110 1125 b 989 965 1100 1071 1086 968 l 876 965 l 757 401 b 463 149 722 238 601 149 b 267 401 303 149 231 236 l 386 965 l 200 965 l 79 399 b 429 -14 24 138 194 -14 b 942 399 697 -14 881 114 l 1046 888 b 1239 1125 1193 908 1215 1014 z "},"Ứ":{"ha":999,"x_min":0,"x_max":0,"o":"m 928 1313 l 763 1313 l 583 1096 l 728 1096 z m 1239 1125 l 1110 1125 b 989 965 1100 1071 1086 968 l 876 965 l 757 401 b 463 149 722 238 601 149 b 267 401 303 149 231 236 l 386 965 l 200 965 l 79 399 b 429 -14 24 138 194 -14 b 942 399 697 -14 881 114 l 1046 888 b 1239 1125 1193 908 1215 1014 z "},"Ự":{"ha":999,"x_min":0,"x_max":0,"o":"m 1239 1125 l 1110 1125 b 989 965 1100 1071 1086 968 l 876 965 l 757 401 b 463 149 722 238 601 149 b 267 401 303 149 231 236 l 386 965 l 200 965 l 79 399 b 429 -14 24 138 194 -14 b 942 399 697 -14 881 114 l 1046 888 b 1239 1125 1193 908 1215 1014 z m 276 -287 l 454 -287 l 489 -119 l 313 -119 z "},"Ừ":{"ha":999,"x_min":0,"x_max":0,"o":"m 725 1096 l 653 1313 l 500 1313 l 586 1096 z m 1239 1125 l 1110 1125 b 989 965 1100 1071 1086 968 l 876 965 l 757 401 b 463 149 722 238 601 149 b 267 401 303 149 231 236 l 386 965 l 200 965 l 79 399 b 429 -14 24 138 194 -14 b 942 399 697 -14 881 114 l 1046 888 b 1239 1125 1193 908 1215 1014 z "},"Ử":{"ha":999,"x_min":0,"x_max":0,"o":"m 631 1153 b 604 1085 625 1132 618 1113 l 726 1085 b 761 1188 742 1118 756 1160 b 643 1319 776 1267 738 1319 b 513 1299 606 1319 558 1313 l 490 1186 b 590 1206 526 1197 565 1206 b 631 1153 628 1206 639 1190 z m 1239 1125 l 1110 1125 b 989 965 1100 1071 1086 968 l 876 965 l 757 401 b 463 149 722 238 601 149 b 267 401 303 149 231 236 l 386 965 l 200 965 l 79 399 b 429 -14 24 138 194 -14 b 942 399 697 -14 881 114 l 1046 888 b 1239 1125 1193 908 1215 1014 z "},"Ữ":{"ha":999,"x_min":0,"x_max":0,"o":"m 600 1192 b 742 1092 643 1192 657 1092 b 924 1317 821 1092 890 1158 l 829 1317 b 760 1204 813 1243 793 1204 b 617 1317 711 1204 701 1317 b 439 1092 540 1317 472 1253 l 535 1092 b 600 1192 549 1160 571 1192 z m 1239 1125 l 1110 1125 b 989 965 1100 1071 1086 968 l 876 965 l 757 401 b 463 149 722 238 601 149 b 267 401 303 149 231 236 l 386 965 l 200 965 l 79 399 b 429 -14 24 138 194 -14 b 942 399 697 -14 881 114 l 1046 888 b 1239 1125 1193 908 1215 1014 z "},"Ű":{"ha":999,"x_min":0,"x_max":0,"o":"m 488 1100 l 619 1100 l 813 1310 l 663 1310 z m 696 1100 l 829 1100 l 1024 1310 l 871 1310 z m 429 -14 b 942 399 697 -14 881 114 l 1063 965 l 876 965 l 757 401 b 463 149 722 238 601 149 b 267 401 303 149 231 236 l 386 965 l 200 965 l 79 399 b 429 -14 24 138 194 -14 z "},"Ū":{"ha":999,"x_min":0,"x_max":0,"o":"m 457 1138 l 878 1138 l 907 1271 l 486 1271 z m 429 -14 b 942 399 697 -14 881 114 l 1063 965 l 876 965 l 757 401 b 463 149 722 238 601 149 b 267 401 303 149 231 236 l 386 965 l 200 965 l 79 399 b 429 -14 24 138 194 -14 z "},"Ų":{"ha":999,"x_min":0,"x_max":0,"o":"m 876 965 l 757 401 b 463 149 722 238 601 149 b 267 401 303 149 231 236 l 386 965 l 200 965 l 79 399 b 406 -14 25 146 183 -3 b 299 -146 347 -54 308 -100 b 440 -304 278 -249 338 -304 b 563 -290 489 -304 529 -297 l 585 -187 b 489 -199 551 -194 517 -199 b 422 -142 436 -199 414 -176 b 558 -3 431 -100 467 -65 b 942 399 756 35 892 163 l 1063 965 z "},"Ů":{"ha":999,"x_min":0,"x_max":0,"o":"m 657 1078 b 817 1207 732 1078 800 1128 b 713 1335 831 1276 781 1335 b 553 1207 638 1335 569 1281 b 657 1078 539 1138 586 1078 z m 675 1157 b 633 1207 646 1157 628 1179 b 696 1257 640 1235 667 1257 b 736 1207 722 1257 742 1235 b 675 1157 729 1179 701 1157 z m 429 -14 b 942 399 697 -14 881 114 l 1063 965 l 876 965 l 757 401 b 463 149 722 238 601 149 b 267 401 303 149 231 236 l 386 965 l 200 965 l 79 399 b 429 -14 24 138 194 -14 z "},"Ũ":{"ha":999,"x_min":0,"x_max":0,"o":"m 439 1092 l 535 1092 b 600 1192 549 1160 571 1192 b 742 1092 643 1192 657 1092 b 924 1317 821 1092 890 1158 l 829 1317 b 760 1204 813 1243 793 1204 b 617 1317 711 1204 701 1317 b 439 1092 540 1317 472 1253 z m 429 -14 b 942 399 697 -14 881 114 l 1063 965 l 876 965 l 757 401 b 463 149 722 238 601 149 b 267 401 303 149 231 236 l 386 965 l 200 965 l 79 399 b 429 -14 24 138 194 -14 z "},"V":{"ha":950,"x_min":0,"x_max":0,"o":"m 310 0 l 531 0 l 1072 965 l 864 965 l 442 164 l 328 965 l 140 965 z "},"W":{"ha":1469,"x_min":0,"x_max":0,"o":"m 231 0 l 451 0 l 817 707 l 892 0 l 1122 0 l 1590 965 l 1389 965 l 1032 183 l 960 965 l 776 965 l 376 183 l 326 965 l 143 965 z "},"Ẃ":{"ha":1469,"x_min":0,"x_max":0,"o":"m 818 1096 l 963 1096 l 1163 1313 l 997 1313 z m 231 0 l 451 0 l 817 707 l 892 0 l 1122 0 l 1590 965 l 1389 965 l 1032 183 l 960 965 l 776 965 l 376 183 l 326 965 l 143 965 z "},"Ŵ":{"ha":1469,"x_min":0,"x_max":0,"o":"m 679 1100 l 828 1100 l 925 1243 l 982 1100 l 1122 1100 l 1011 1310 l 860 1310 z m 231 0 l 451 0 l 817 707 l 892 0 l 1122 0 l 1590 965 l 1389 965 l 1032 183 l 960 965 l 776 965 l 376 183 l 326 965 l 143 965 z "},"Ẅ":{"ha":1469,"x_min":0,"x_max":0,"o":"m 682 1121 l 856 1121 l 890 1289 l 718 1289 z m 947 1121 l 1119 1121 l 1156 1289 l 982 1289 z m 231 0 l 451 0 l 817 707 l 892 0 l 1122 0 l 1590 965 l 1389 965 l 1032 183 l 960 965 l 776 965 l 376 183 l 326 965 l 143 965 z "},"Ẁ":{"ha":1469,"x_min":0,"x_max":0,"o":"m 821 1096 l 960 1096 l 888 1313 l 735 1313 z m 231 0 l 451 0 l 817 707 l 892 0 l 1122 0 l 1590 965 l 1389 965 l 1032 183 l 960 965 l 776 965 l 376 183 l 326 965 l 143 965 z "},"X":{"ha":1014,"x_min":0,"x_max":0,"o":"m -51 0 l 203 0 l 524 379 l 707 0 l 915 0 l 654 485 l 1124 965 l 869 965 l 550 592 l 367 965 l 158 965 l 414 485 z "},"Y":{"ha":1019,"x_min":0,"x_max":0,"o":"m 344 0 l 531 0 l 604 342 l 1143 965 l 901 965 l 533 494 l 342 965 l 140 965 l 419 349 z "},"Ý":{"ha":1019,"x_min":0,"x_max":0,"o":"m 565 1096 l 710 1096 l 910 1313 l 744 1313 z m 344 0 l 531 0 l 604 342 l 1143 965 l 901 965 l 533 494 l 342 965 l 140 965 l 419 349 z "},"Ŷ":{"ha":1019,"x_min":0,"x_max":0,"o":"m 426 1100 l 575 1100 l 672 1243 l 729 1100 l 869 1100 l 758 1310 l 607 1310 z m 344 0 l 531 0 l 604 342 l 1143 965 l 901 965 l 533 494 l 342 965 l 140 965 l 419 349 z "},"Ÿ":{"ha":1019,"x_min":0,"x_max":0,"o":"m 429 1121 l 603 1121 l 638 1289 l 465 1289 z m 694 1121 l 867 1121 l 903 1289 l 729 1289 z m 344 0 l 531 0 l 604 342 l 1143 965 l 901 965 l 533 494 l 342 965 l 140 965 l 419 349 z "},"Ỵ":{"ha":1019,"x_min":0,"x_max":0,"o":"m 344 0 l 531 0 l 604 342 l 1143 965 l 901 965 l 533 494 l 342 965 l 140 965 l 419 349 z m 299 -287 l 476 -287 l 511 -119 l 335 -119 z "},"Ỳ":{"ha":1019,"x_min":0,"x_max":0,"o":"m 568 1096 l 707 1096 l 635 1313 l 482 1313 z m 344 0 l 531 0 l 604 342 l 1143 965 l 901 965 l 533 494 l 342 965 l 140 965 l 419 349 z "},"Ỷ":{"ha":1019,"x_min":0,"x_max":0,"o":"m 586 1085 l 708 1085 b 743 1188 724 1118 738 1160 b 625 1319 758 1267 719 1319 b 494 1299 588 1319 540 1313 l 472 1186 b 572 1206 508 1197 547 1206 b 613 1153 610 1206 621 1190 b 586 1085 607 1132 600 1113 z m 344 0 l 531 0 l 604 342 l 1143 965 l 901 965 l 533 494 l 342 965 l 140 965 l 419 349 z "},"Ỹ":{"ha":1019,"x_min":0,"x_max":0,"o":"m 421 1092 l 517 1092 b 582 1192 531 1160 553 1192 b 724 1092 625 1192 639 1092 b 906 1317 803 1092 872 1158 l 811 1317 b 742 1204 794 1243 775 1204 b 599 1317 693 1204 683 1317 b 421 1092 522 1317 454 1253 z m 344 0 l 531 0 l 604 342 l 1143 965 l 901 965 l 533 494 l 342 965 l 140 965 l 419 349 z "},"Z":{"ha":897,"x_min":0,"x_max":0,"o":"m -31 0 l 779 0 l 814 160 l 253 160 l 950 818 l 981 965 l 185 965 l 150 806 l 696 806 l 1 150 z "},"Ź":{"ha":897,"x_min":0,"x_max":0,"o":"m 519 1096 l 664 1096 l 864 1313 l 699 1313 z m -31 0 l 779 0 l 814 160 l 253 160 l 950 818 l 981 965 l 185 965 l 150 806 l 696 806 l 1 150 z "},"Ž":{"ha":897,"x_min":0,"x_max":0,"o":"m 532 1100 l 682 1100 l 863 1310 l 714 1310 l 614 1161 l 560 1310 l 419 1310 z m -31 0 l 779 0 l 814 160 l 253 160 l 950 818 l 981 965 l 185 965 l 150 806 l 696 806 l 1 150 z "},"Ż":{"ha":897,"x_min":0,"x_max":0,"o":"m 504 1111 l 697 1111 l 738 1300 l 543 1300 z m -31 0 l 779 0 l 814 160 l 253 160 l 950 818 l 981 965 l 185 965 l 150 806 l 696 806 l 1 150 z "},"Ẓ":{"ha":897,"x_min":0,"x_max":0,"o":"m -31 0 l 779 0 l 814 160 l 253 160 l 950 818 l 981 965 l 185 965 l 150 806 l 696 806 l 1 150 z m 254 -287 l 432 -287 l 467 -119 l 290 -119 z "},"a":{"ha":800,"x_min":0,"x_max":0,"o":"m 250 -8 b 503 139 338 -8 432 38 l 474 0 l 656 0 l 803 694 l 621 694 l 590 551 b 385 703 560 653 486 703 b 38 361 229 703 85 583 b 250 -8 -14 115 107 -8 z m 335 139 b 217 346 239 139 188 213 b 424 556 246 481 328 556 b 544 346 521 556 572 474 b 335 139 518 219 432 139 z "},"á":{"ha":800,"x_min":0,"x_max":0,"o":"m 413 825 l 557 825 l 757 1042 l 592 1042 z m 250 -8 b 503 139 338 -8 432 38 l 474 0 l 656 0 l 803 694 l 621 694 l 590 551 b 385 703 560 653 486 703 b 38 361 229 703 85 583 b 250 -8 -14 115 107 -8 z m 335 139 b 217 346 239 139 188 213 b 424 556 246 481 328 556 b 544 346 521 556 572 474 b 335 139 518 219 432 139 z "},"ă":{"ha":800,"x_min":0,"x_max":0,"o":"m 486 814 b 739 1033 618 814 703 869 l 635 1033 b 504 914 613 943 567 914 b 428 1033 439 914 410 950 l 326 1033 b 486 814 294 888 371 814 z m 250 -8 b 503 139 338 -8 432 38 l 474 0 l 656 0 l 803 694 l 621 694 l 590 551 b 385 703 560 653 486 703 b 38 361 229 703 85 583 b 250 -8 -14 115 107 -8 z m 335 139 b 217 346 239 139 188 213 b 424 556 246 481 328 556 b 544 346 521 556 572 474 b 335 139 518 219 432 139 z "},"ắ":{"ha":800,"x_min":0,"x_max":0,"o":"m 456 1057 l 600 1057 l 800 1274 l 635 1274 z m 486 814 b 739 1033 618 814 703 869 l 635 1033 b 504 914 613 943 567 914 b 428 1033 439 914 410 950 l 326 1033 b 486 814 294 888 371 814 z m 250 -8 b 503 139 338 -8 432 38 l 474 0 l 656 0 l 803 694 l 621 694 l 590 551 b 385 703 560 653 486 703 b 38 361 229 703 85 583 b 250 -8 -14 115 107 -8 z m 335 139 b 217 346 239 139 188 213 b 424 556 246 481 328 556 b 544 346 521 556 572 474 b 335 139 518 219 432 139 z "},"ặ":{"ha":800,"x_min":0,"x_max":0,"o":"m 486 814 b 739 1033 618 814 703 869 l 635 1033 b 504 914 613 943 567 914 b 428 1033 439 914 410 950 l 326 1033 b 486 814 294 888 371 814 z m 250 -8 b 503 139 338 -8 432 38 l 474 0 l 656 0 l 803 694 l 621 694 l 590 551 b 385 703 560 653 486 703 b 38 361 229 703 85 583 b 250 -8 -14 115 107 -8 z m 335 139 b 217 346 239 139 188 213 b 424 556 246 481 328 556 b 544 346 521 556 572 474 b 335 139 518 219 432 139 z m 164 -287 l 342 -287 l 376 -119 l 200 -119 z "},"ằ":{"ha":800,"x_min":0,"x_max":0,"o":"m 465 1053 l 604 1053 l 532 1269 l 379 1269 z m 488 814 b 739 1033 619 814 703 869 l 636 1033 b 504 914 613 943 567 914 b 429 1033 439 914 410 950 l 326 1033 b 488 814 294 888 371 814 z m 250 -8 b 503 139 338 -8 432 38 l 474 0 l 656 0 l 803 694 l 621 694 l 590 551 b 385 703 560 653 486 703 b 38 361 229 703 85 583 b 250 -8 -14 115 107 -8 z m 335 139 b 217 346 239 139 188 213 b 424 556 246 481 328 556 b 544 346 521 556 572 474 b 335 139 518 219 432 139 z "},"ẳ":{"ha":800,"x_min":0,"x_max":0,"o":"m 468 1046 l 590 1046 b 625 1149 606 1078 619 1121 b 507 1279 642 1226 601 1279 b 376 1258 469 1279 422 1272 l 354 1147 b 456 1165 390 1158 429 1165 b 494 1114 492 1165 503 1151 b 468 1046 489 1092 482 1072 z m 486 814 b 739 1033 618 814 701 869 l 635 1033 b 504 914 613 943 567 914 b 428 1033 439 914 408 950 l 326 1033 b 486 814 294 888 371 814 z m 250 -8 b 503 139 338 -8 432 38 l 474 0 l 656 0 l 803 694 l 621 694 l 590 551 b 385 703 560 653 486 703 b 38 361 229 703 85 583 b 250 -8 -14 115 107 -8 z m 335 139 b 217 346 239 139 188 213 b 424 556 246 481 328 556 b 544 346 521 556 572 474 b 335 139 518 219 432 139 z "},"ẵ":{"ha":800,"x_min":0,"x_max":0,"o":"m 335 1079 l 419 1079 b 479 1169 433 1140 453 1169 b 607 1079 518 1169 531 1079 b 769 1282 678 1079 740 1139 l 685 1282 b 622 1181 671 1215 653 1181 b 493 1282 579 1181 571 1282 b 335 1079 425 1282 364 1224 z m 486 814 b 739 1033 618 814 701 869 l 635 1033 b 504 914 613 943 567 914 b 428 1033 439 914 408 950 l 326 1033 b 486 814 294 888 371 814 z m 250 -8 b 503 139 338 -8 432 38 l 474 0 l 656 0 l 803 694 l 621 694 l 590 551 b 385 703 560 653 486 703 b 38 361 229 703 85 583 b 250 -8 -14 115 107 -8 z m 335 139 b 217 346 239 139 188 213 b 424 556 246 481 328 556 b 544 346 521 556 572 474 b 335 139 518 219 432 139 z "},"ǎ":{"ha":800,"x_min":0,"x_max":0,"o":"m 425 829 l 575 829 l 756 1039 l 607 1039 l 507 890 l 453 1039 l 313 1039 z m 250 -8 b 503 139 338 -8 432 38 l 474 0 l 656 0 l 803 694 l 621 694 l 590 551 b 385 703 560 653 486 703 b 38 361 229 703 85 583 b 250 -8 -14 115 107 -8 z m 335 139 b 217 346 239 139 188 213 b 424 556 246 481 328 556 b 544 346 521 556 572 474 b 335 139 518 219 432 139 z "},"â":{"ha":800,"x_min":0,"x_max":0,"o":"m 272 829 l 421 829 l 518 972 l 575 829 l 715 829 l 604 1039 l 453 1039 z m 250 -8 b 503 139 338 -8 432 38 l 474 0 l 656 0 l 803 694 l 621 694 l 590 551 b 385 703 560 653 486 703 b 38 361 229 703 85 583 b 250 -8 -14 115 107 -8 z m 335 139 b 217 346 239 139 188 213 b 424 556 246 481 328 556 b 544 346 521 556 572 474 b 335 139 518 219 432 139 z "},"ấ":{"ha":800,"x_min":0,"x_max":0,"o":"m 657 986 l 772 986 l 932 1181 l 799 1181 z m 272 829 l 422 829 l 518 971 l 575 829 l 715 829 l 606 1039 l 454 1039 z m 250 -8 b 503 139 338 -8 432 38 l 474 0 l 656 0 l 803 694 l 621 694 l 590 551 b 385 703 560 653 486 703 b 38 361 229 703 85 583 b 250 -8 -14 115 107 -8 z m 335 139 b 217 346 239 139 188 213 b 424 556 246 481 328 556 b 544 346 521 556 572 474 b 335 139 518 219 432 139 z "},"ậ":{"ha":800,"x_min":0,"x_max":0,"o":"m 272 829 l 421 829 l 518 972 l 575 829 l 715 829 l 604 1039 l 453 1039 z m 250 -8 b 503 139 338 -8 432 38 l 474 0 l 656 0 l 803 694 l 621 694 l 590 551 b 385 703 560 653 486 703 b 38 361 229 703 85 583 b 250 -8 -14 115 107 -8 z m 335 139 b 217 346 239 139 188 213 b 424 556 246 481 328 556 b 544 346 521 556 572 474 b 335 139 518 219 432 139 z m 164 -287 l 342 -287 l 376 -119 l 200 -119 z "},"ầ":{"ha":800,"x_min":0,"x_max":0,"o":"m 254 985 l 365 985 l 307 1181 l 186 1181 z m 272 829 l 421 829 l 517 971 l 574 829 l 714 829 l 604 1039 l 453 1039 z m 250 -8 b 503 139 338 -8 432 38 l 474 0 l 656 0 l 803 694 l 621 694 l 590 551 b 385 703 560 653 486 703 b 38 361 229 703 85 583 b 250 -8 -14 115 107 -8 z m 335 139 b 217 346 239 139 188 213 b 424 556 246 481 328 556 b 544 346 521 556 572 474 b 335 139 518 219 432 139 z "},"ẩ":{"ha":800,"x_min":0,"x_max":0,"o":"m 665 1004 l 786 1004 b 822 1107 803 1036 817 1079 b 704 1238 838 1185 799 1238 b 574 1217 665 1238 619 1231 l 551 1106 b 651 1124 588 1117 626 1124 b 692 1072 689 1124 700 1110 b 665 1004 686 1050 679 1031 z m 272 829 l 422 829 l 518 971 l 575 829 l 715 829 l 606 1039 l 454 1039 z m 250 -8 b 503 139 338 -8 432 38 l 474 0 l 656 0 l 803 694 l 621 694 l 590 551 b 385 703 560 653 486 703 b 38 361 229 703 85 583 b 250 -8 -14 115 107 -8 z m 335 139 b 217 346 239 139 188 213 b 424 556 246 481 328 556 b 544 346 521 556 572 474 b 335 139 518 219 432 139 z "},"ẫ":{"ha":800,"x_min":0,"x_max":0,"o":"m 336 1090 l 422 1090 b 482 1181 436 1151 456 1181 b 608 1090 521 1181 533 1090 b 772 1293 681 1090 743 1150 l 688 1293 b 625 1193 674 1226 656 1193 b 496 1293 582 1193 574 1293 b 336 1090 428 1293 367 1235 z m 272 829 l 422 829 l 518 971 l 575 829 l 715 829 l 606 1039 l 454 1039 z m 250 -8 b 503 139 338 -8 432 38 l 474 0 l 656 0 l 803 694 l 621 694 l 590 551 b 385 703 560 653 486 703 b 38 361 229 703 85 583 b 250 -8 -14 115 107 -8 z m 335 139 b 217 346 239 139 188 213 b 424 556 246 481 328 556 b 544 346 521 556 572 474 b 335 139 518 219 432 139 z "},"ä":{"ha":800,"x_min":0,"x_max":0,"o":"m 276 850 l 450 850 l 485 1018 l 313 1018 z m 542 850 l 714 850 l 750 1018 l 576 1018 z m 250 -8 b 503 139 338 -8 432 38 l 474 0 l 656 0 l 803 694 l 621 694 l 590 551 b 385 703 560 653 486 703 b 38 361 229 703 85 583 b 250 -8 -14 115 107 -8 z m 335 139 b 217 346 239 139 188 213 b 424 556 246 481 328 556 b 544 346 521 556 572 474 b 335 139 518 219 432 139 z "},"ạ":{"ha":800,"x_min":0,"x_max":0,"o":"m 250 -8 b 503 139 338 -8 432 38 l 474 0 l 656 0 l 803 694 l 621 694 l 590 551 b 385 703 560 653 486 703 b 38 361 229 703 85 583 b 250 -8 -14 115 107 -8 z m 335 139 b 217 346 239 139 188 213 b 424 556 246 481 328 556 b 544 346 521 556 572 474 b 335 139 518 219 432 139 z m 164 -287 l 342 -287 l 376 -119 l 200 -119 z "},"à":{"ha":800,"x_min":0,"x_max":0,"o":"m 415 825 l 554 825 l 482 1042 l 329 1042 z m 250 -8 b 503 139 338 -8 432 38 l 474 0 l 656 0 l 803 694 l 621 694 l 590 551 b 385 703 560 653 486 703 b 38 361 229 703 85 583 b 250 -8 -14 115 107 -8 z m 335 139 b 217 346 239 139 188 213 b 424 556 246 481 328 556 b 544 346 521 556 572 474 b 335 139 518 219 432 139 z "},"ả":{"ha":800,"x_min":0,"x_max":0,"o":"m 432 814 l 554 814 b 589 917 569 847 583 889 b 471 1049 604 996 565 1049 b 340 1028 433 1049 386 1042 l 318 915 b 418 935 354 926 393 935 b 458 882 456 935 467 919 b 432 814 453 861 446 842 z m 250 -8 b 503 139 338 -8 432 38 l 474 0 l 656 0 l 803 694 l 621 694 l 590 551 b 385 703 560 653 486 703 b 38 361 229 703 85 583 b 250 -8 -14 115 107 -8 z m 335 139 b 217 346 239 139 188 213 b 424 556 246 481 328 556 b 544 346 521 556 572 474 b 335 139 518 219 432 139 z "},"ā":{"ha":800,"x_min":0,"x_max":0,"o":"m 286 867 l 707 867 l 736 1000 l 315 1000 z m 250 -8 b 503 139 338 -8 432 38 l 474 0 l 656 0 l 803 694 l 621 694 l 590 551 b 385 703 560 653 486 703 b 38 361 229 703 85 583 b 250 -8 -14 115 107 -8 z m 335 139 b 217 346 239 139 188 213 b 424 556 246 481 328 556 b 544 346 521 556 572 474 b 335 139 518 219 432 139 z "},"ą":{"ha":800,"x_min":0,"x_max":0,"o":"m 601 0 l 656 0 l 803 694 l 621 694 l 590 551 b 385 703 560 653 486 703 b 38 361 229 703 85 583 b 250 -8 -14 115 107 -8 b 503 139 338 -8 432 38 l 475 6 b 319 -158 390 -43 332 -101 b 461 -317 299 -261 358 -317 b 583 -303 510 -317 550 -310 l 606 -200 b 510 -211 572 -207 538 -211 b 443 -154 457 -211 435 -189 b 601 0 453 -110 494 -72 z m 335 139 b 217 346 239 139 188 213 b 424 556 246 481 328 556 b 544 346 521 556 572 474 b 335 139 518 219 432 139 z "},"å":{"ha":800,"x_min":0,"x_max":0,"o":"m 486 807 b 646 936 561 807 629 857 b 542 1064 660 1006 610 1064 b 382 936 467 1064 399 1010 b 486 807 368 867 415 807 z m 504 886 b 463 936 475 886 457 908 b 525 986 469 964 496 986 b 565 936 551 986 571 964 b 504 886 558 908 531 886 z m 250 -8 b 503 139 338 -8 432 38 l 474 0 l 656 0 l 803 694 l 621 694 l 590 551 b 385 703 560 653 486 703 b 38 361 229 703 85 583 b 250 -8 -14 115 107 -8 z m 335 139 b 217 346 239 139 188 213 b 424 556 246 481 328 556 b 544 346 521 556 572 474 b 335 139 518 219 432 139 z "},"ã":{"ha":800,"x_min":0,"x_max":0,"o":"m 267 821 l 363 821 b 428 921 376 889 399 921 b 569 821 471 921 485 821 b 751 1046 649 821 718 888 l 657 1046 b 588 933 640 972 621 933 b 444 1046 539 933 529 1046 b 267 821 368 1046 300 982 z m 250 -8 b 503 139 338 -8 432 38 l 474 0 l 656 0 l 803 694 l 621 694 l 590 551 b 385 703 560 653 486 703 b 38 361 229 703 85 583 b 250 -8 -14 115 107 -8 z m 335 139 b 217 346 239 139 188 213 b 424 556 246 481 328 556 b 544 346 521 556 572 474 b 335 139 518 219 432 139 z "},"æ":{"ha":1217,"x_min":0,"x_max":0,"o":"m 940 708 b 656 579 825 708 726 663 b 435 708 626 667 543 708 b 90 439 281 708 140 632 l 258 439 b 425 568 286 525 340 568 b 524 451 503 568 540 524 l 514 403 b 1 189 267 403 46 399 b 235 -14 -26 60 68 -14 b 550 133 392 -14 493 39 b 803 -14 585 36 672 -14 b 1157 236 958 -14 1088 56 l 997 236 b 821 128 967 163 900 128 b 689 293 728 128 676 193 l 1168 293 b 1185 354 1174 311 1179 332 b 940 708 1235 579 1129 708 z m 1028 410 l 715 410 b 910 567 750 519 824 567 b 1028 410 986 567 1039 517 z m 486 275 b 279 118 468 181 385 118 b 182 199 210 118 171 146 b 490 296 203 296 308 296 z "},"b":{"ha":801,"x_min":0,"x_max":0,"o":"m 408 -8 b 764 346 576 -8 715 114 b 561 703 810 563 715 703 b 296 551 460 703 364 653 l 401 1056 l 219 1056 l -4 0 l 178 0 l 208 139 b 408 -8 232 43 310 -8 z m 375 139 b 254 346 281 139 225 217 b 464 556 282 476 369 556 b 582 346 557 556 611 482 b 375 139 554 210 468 139 z "},"c":{"ha":731,"x_min":0,"x_max":0,"o":"m 297 -14 b 683 278 488 -14 619 83 l 519 278 b 326 131 475 179 408 131 b 201 347 225 131 174 214 b 418 564 228 476 314 564 b 544 418 499 564 546 510 l 708 418 b 449 708 719 597 618 708 b 35 347 240 708 82 572 b 297 -14 -10 136 107 -14 z "},"ć":{"ha":731,"x_min":0,"x_max":0,"o":"m 394 825 l 539 825 l 739 1042 l 574 1042 z m 297 -14 b 683 278 488 -14 619 83 l 519 278 b 326 131 475 179 408 131 b 201 347 225 131 174 214 b 418 564 228 476 314 564 b 544 418 499 564 546 510 l 708 418 b 449 708 719 597 618 708 b 35 347 240 708 82 572 b 297 -14 -10 136 107 -14 z "},"č":{"ha":731,"x_min":0,"x_max":0,"o":"m 407 829 l 557 829 l 738 1039 l 589 1039 l 489 890 l 435 1039 l 294 1039 z m 297 -14 b 683 278 488 -14 619 83 l 519 278 b 326 131 475 179 408 131 b 201 347 225 131 174 214 b 418 564 228 476 314 564 b 544 418 499 564 546 510 l 708 418 b 449 708 719 597 618 708 b 35 347 240 708 82 572 b 297 -14 -10 136 107 -14 z "},"ç":{"ha":731,"x_min":0,"x_max":0,"o":"m 708 418 b 449 708 719 597 618 708 b 35 347 240 708 82 572 b 243 -10 -6 157 85 17 l 222 -106 b 336 -162 325 -108 342 -137 b 221 -211 328 -199 288 -211 b 114 -207 179 -211 144 -210 l 96 -294 b 218 -301 138 -299 171 -301 b 451 -171 360 -301 435 -250 b 340 -44 467 -101 426 -53 l 347 -11 b 683 278 511 4 625 101 l 519 278 b 326 131 475 179 408 131 b 201 347 225 131 174 214 b 418 564 228 476 314 564 b 544 418 499 564 546 510 z "},"ċ":{"ha":731,"x_min":0,"x_max":0,"o":"m 379 840 l 572 840 l 613 1029 l 418 1029 z m 297 -14 b 683 278 488 -14 619 83 l 519 278 b 326 131 475 179 408 131 b 201 347 225 131 174 214 b 418 564 228 476 314 564 b 544 418 499 564 546 510 l 708 418 b 449 708 719 597 618 708 b 35 347 240 708 82 572 b 297 -14 -10 136 107 -14 z "},"d":{"ha":800,"x_min":0,"x_max":0,"o":"m 250 -8 b 503 139 338 -8 432 38 l 474 0 l 656 0 l 879 1056 l 697 1056 l 590 551 b 385 703 560 653 486 703 b 38 361 229 703 85 583 b 250 -8 -14 115 107 -8 z m 335 139 b 217 346 239 139 188 213 b 424 556 244 481 328 556 b 544 346 521 556 572 474 b 335 139 517 219 431 139 z "},"ð":{"ha":781,"x_min":0,"x_max":0,"o":"m 469 993 l 535 1090 l 403 1090 l 349 1010 l 336 1010 b 178 1004 285 1010 232 1008 l 143 842 b 240 847 181 846 211 847 l 175 751 l 307 751 l 371 846 b 638 531 543 831 635 721 b 436 671 613 625 533 671 b 65 331 250 669 107 531 b 329 -7 26 147 135 -7 b 761 425 543 -7 697 122 b 469 993 833 771 667 943 z m 563 332 b 364 153 540 229 471 153 b 235 332 257 153 213 226 b 438 511 257 438 333 511 b 563 332 543 511 583 438 z "},"ď":{"ha":978,"x_min":0,"x_max":0,"o":"m 250 -8 b 503 139 338 -8 432 38 l 474 0 l 656 0 l 879 1056 l 697 1056 l 590 551 b 385 703 560 653 486 703 b 38 361 229 703 85 583 b 250 -8 -14 115 107 -8 z m 899 794 l 1024 794 l 1106 1056 l 964 1056 z m 335 139 b 217 346 239 139 188 213 b 424 556 244 481 328 556 b 544 346 521 556 572 474 b 335 139 517 219 431 139 z "},"đ":{"ha":800,"x_min":0,"x_max":0,"o":"m 954 911 l 849 911 l 879 1056 l 697 1056 l 667 911 l 401 911 l 376 794 l 642 794 l 590 551 b 385 703 560 653 486 703 b 38 361 229 703 85 583 b 250 -8 -14 115 107 -8 b 503 139 338 -8 432 38 l 474 0 l 656 0 l 824 794 l 929 794 z m 544 346 b 335 139 517 219 431 139 b 217 346 239 139 188 213 b 424 556 244 481 328 556 b 544 346 521 556 572 474 z "},"e":{"ha":738,"x_min":0,"x_max":0,"o":"m 308 -14 b 669 224 478 -14 599 53 l 504 224 b 332 129 465 158 415 129 b 194 290 232 129 179 190 l 689 290 b 704 354 696 315 700 335 b 447 708 750 571 643 708 b 36 351 242 708 82 571 b 308 -14 -12 129 107 -14 z m 221 418 b 418 567 256 511 332 567 b 550 418 506 567 561 514 z "},"é":{"ha":738,"x_min":0,"x_max":0,"o":"m 389 825 l 533 825 l 733 1042 l 568 1042 z m 308 -14 b 669 224 478 -14 599 53 l 504 224 b 332 129 465 158 415 129 b 194 290 232 129 179 190 l 689 290 b 704 354 696 315 700 335 b 447 708 750 571 643 708 b 36 351 242 708 82 571 b 308 -14 -12 129 107 -14 z m 221 418 b 418 567 256 511 332 567 b 550 418 506 567 561 514 z "},"ě":{"ha":738,"x_min":0,"x_max":0,"o":"m 401 829 l 551 829 l 732 1039 l 583 1039 l 483 890 l 429 1039 l 289 1039 z m 308 -14 b 669 224 478 -14 599 53 l 504 224 b 332 129 465 158 415 129 b 194 290 232 129 179 190 l 689 290 b 704 354 696 315 700 335 b 447 708 750 571 643 708 b 36 351 242 708 82 571 b 308 -14 -12 129 107 -14 z m 221 418 b 418 567 256 511 332 567 b 550 418 506 567 561 514 z "},"ȩ":{"ha":738,"x_min":0,"x_max":0,"o":"m 447 708 b 36 351 242 708 82 571 b 253 -10 -8 150 85 14 l 229 -119 b 343 -176 332 -122 349 -151 b 228 -225 335 -212 294 -225 b 121 -221 186 -225 151 -224 l 103 -308 b 225 -315 144 -312 178 -315 b 458 -185 367 -315 442 -264 b 347 -58 474 -115 433 -67 l 358 -12 b 669 224 501 0 606 69 l 504 224 b 332 129 465 158 415 129 b 194 290 232 129 179 190 l 689 290 b 704 354 696 315 700 335 b 447 708 750 571 643 708 z m 550 418 l 221 418 b 418 567 256 511 332 567 b 550 418 506 567 561 514 z "},"ê":{"ha":738,"x_min":0,"x_max":0,"o":"m 249 829 l 397 829 l 494 972 l 551 829 l 692 829 l 581 1039 l 429 1039 z m 308 -14 b 669 224 478 -14 599 53 l 504 224 b 332 129 465 158 415 129 b 194 290 232 129 179 190 l 689 290 b 704 354 696 315 700 335 b 447 708 750 571 643 708 b 36 351 242 708 82 571 b 308 -14 -12 129 107 -14 z m 221 418 b 418 567 256 511 332 567 b 550 418 506 567 561 514 z "},"ế":{"ha":738,"x_min":0,"x_max":0,"o":"m 633 986 l 749 986 l 908 1181 l 775 1181 z m 249 829 l 399 829 l 494 971 l 551 829 l 692 829 l 582 1039 l 431 1039 z m 308 -14 b 669 224 478 -14 599 53 l 504 224 b 332 129 465 158 415 129 b 194 290 232 129 179 190 l 689 290 b 704 354 696 315 700 335 b 447 708 750 571 643 708 b 36 351 242 708 82 571 b 308 -14 -12 129 107 -14 z m 221 418 b 418 567 256 511 332 567 b 550 418 506 567 561 514 z "},"ệ":{"ha":738,"x_min":0,"x_max":0,"o":"m 249 829 l 397 829 l 494 972 l 551 829 l 692 829 l 581 1039 l 429 1039 z m 308 -14 b 669 224 478 -14 599 53 l 504 224 b 332 129 465 158 415 129 b 194 290 232 129 179 190 l 689 290 b 704 354 696 315 700 335 b 447 708 750 571 643 708 b 36 351 242 708 82 571 b 308 -14 -12 129 107 -14 z m 221 418 b 418 567 256 511 332 567 b 550 418 506 567 561 514 z m 157 -287 l 335 -287 l 369 -119 l 193 -119 z "},"ề":{"ha":738,"x_min":0,"x_max":0,"o":"m 232 985 l 343 985 l 285 1181 l 164 1181 z m 250 829 l 399 829 l 494 971 l 551 829 l 692 829 l 582 1039 l 431 1039 z m 308 -14 b 669 224 478 -14 599 53 l 504 224 b 332 129 465 158 415 129 b 194 290 232 129 179 190 l 689 290 b 704 354 696 315 700 335 b 447 708 750 571 643 708 b 36 351 242 708 82 571 b 308 -14 -12 129 107 -14 z m 221 418 b 418 567 256 511 332 567 b 550 418 506 567 561 514 z "},"ể":{"ha":738,"x_min":0,"x_max":0,"o":"m 642 1004 l 763 1004 b 799 1107 779 1036 793 1079 b 681 1238 814 1185 775 1238 b 550 1217 642 1238 596 1231 l 528 1106 b 628 1124 564 1117 603 1124 b 668 1072 665 1124 676 1110 b 642 1004 663 1050 656 1031 z m 249 829 l 399 829 l 494 971 l 551 829 l 692 829 l 582 1039 l 431 1039 z m 308 -14 b 669 224 478 -14 599 53 l 504 224 b 332 129 465 158 415 129 b 194 290 232 129 179 190 l 689 290 b 704 354 696 315 700 335 b 447 708 750 571 643 708 b 36 351 242 708 82 571 b 308 -14 -12 129 107 -14 z m 221 418 b 418 567 256 511 332 567 b 550 418 506 567 561 514 z "},"ễ":{"ha":738,"x_min":0,"x_max":0,"o":"m 313 1090 l 399 1090 b 458 1181 413 1151 432 1181 b 585 1090 497 1181 510 1090 b 749 1293 657 1090 719 1150 l 664 1293 b 601 1193 650 1226 632 1193 b 472 1293 558 1193 550 1293 b 313 1090 404 1293 343 1235 z m 249 829 l 399 829 l 494 971 l 551 829 l 692 829 l 582 1039 l 431 1039 z m 308 -14 b 669 224 478 -14 599 53 l 504 224 b 332 129 465 158 415 129 b 194 290 232 129 179 190 l 689 290 b 704 354 696 315 700 335 b 447 708 750 571 643 708 b 36 351 242 708 82 571 b 308 -14 -12 129 107 -14 z m 221 418 b 418 567 256 511 332 567 b 550 418 506 567 561 514 z "},"ë":{"ha":738,"x_min":0,"x_max":0,"o":"m 253 850 l 426 850 l 461 1018 l 289 1018 z m 518 850 l 690 850 l 726 1018 l 553 1018 z m 308 -14 b 669 224 478 -14 599 53 l 504 224 b 332 129 465 158 415 129 b 194 290 232 129 179 190 l 689 290 b 704 354 696 315 700 335 b 447 708 750 571 643 708 b 36 351 242 708 82 571 b 308 -14 -12 129 107 -14 z m 221 418 b 418 567 256 511 332 567 b 550 418 506 567 561 514 z "},"ė":{"ha":738,"x_min":0,"x_max":0,"o":"m 374 840 l 567 840 l 607 1029 l 413 1029 z m 308 -14 b 669 224 478 -14 599 53 l 504 224 b 332 129 465 158 415 129 b 194 290 232 129 179 190 l 689 290 b 704 354 696 315 700 335 b 447 708 750 571 643 708 b 36 351 242 708 82 571 b 308 -14 -12 129 107 -14 z m 221 418 b 418 567 256 511 332 567 b 550 418 506 567 561 514 z "},"ẹ":{"ha":738,"x_min":0,"x_max":0,"o":"m 308 -14 b 669 224 478 -14 599 53 l 504 224 b 332 129 465 158 415 129 b 194 290 232 129 179 190 l 689 290 b 704 354 696 315 700 335 b 447 708 750 571 643 708 b 36 351 242 708 82 571 b 308 -14 -12 129 107 -14 z m 221 418 b 418 567 256 511 332 567 b 550 418 506 567 561 514 z m 157 -287 l 335 -287 l 369 -119 l 193 -119 z "},"è":{"ha":738,"x_min":0,"x_max":0,"o":"m 392 825 l 531 825 l 458 1042 l 306 1042 z m 308 -14 b 669 224 478 -14 599 53 l 504 224 b 332 129 465 158 415 129 b 194 290 232 129 179 190 l 689 290 b 704 354 696 315 700 335 b 447 708 750 571 643 708 b 36 351 242 708 82 571 b 308 -14 -12 129 107 -14 z m 221 418 b 418 567 256 511 332 567 b 550 418 506 567 561 514 z "},"ẻ":{"ha":738,"x_min":0,"x_max":0,"o":"m 408 814 l 531 814 b 565 917 546 847 560 889 b 447 1049 581 996 542 1049 b 317 1028 410 1049 363 1042 l 294 915 b 394 935 331 926 369 935 b 435 882 432 935 443 919 b 408 814 429 861 422 842 z m 308 -14 b 669 224 478 -14 599 53 l 504 224 b 332 129 465 158 415 129 b 194 290 232 129 179 190 l 689 290 b 704 354 696 315 700 335 b 447 708 750 571 643 708 b 36 351 242 708 82 571 b 308 -14 -12 129 107 -14 z m 221 418 b 418 567 256 511 332 567 b 550 418 506 567 561 514 z "},"ē":{"ha":738,"x_min":0,"x_max":0,"o":"m 263 867 l 683 867 l 713 1000 l 292 1000 z m 308 -14 b 669 224 478 -14 599 53 l 504 224 b 332 129 465 158 415 129 b 194 290 232 129 179 190 l 689 290 b 704 354 696 315 700 335 b 447 708 750 571 643 708 b 36 351 242 708 82 571 b 308 -14 -12 129 107 -14 z m 221 418 b 418 567 256 511 332 567 b 550 418 506 567 561 514 z "},"ę":{"ha":738,"x_min":0,"x_max":0,"o":"m 447 708 b 36 351 242 708 82 571 b 268 -12 -10 144 92 7 b 144 -156 200 -56 156 -106 b 286 -314 124 -258 183 -314 b 408 -300 335 -314 375 -307 l 431 -197 b 335 -208 397 -204 363 -208 b 268 -151 282 -208 260 -186 b 419 -3 276 -108 317 -71 b 669 224 532 24 615 93 l 504 224 b 332 129 465 158 415 129 b 194 290 232 129 179 190 l 689 290 b 704 354 696 315 700 335 b 447 708 750 571 643 708 z m 550 418 l 221 418 b 418 567 256 511 332 567 b 550 418 506 567 561 514 z "},"ẽ":{"ha":738,"x_min":0,"x_max":0,"o":"m 243 821 l 339 821 b 404 921 353 889 375 921 b 546 821 447 921 461 821 b 728 1046 625 821 694 888 l 633 1046 b 564 933 617 972 597 933 b 421 1046 515 933 506 1046 b 243 821 344 1046 276 982 z m 308 -14 b 669 224 478 -14 599 53 l 504 224 b 332 129 465 158 415 129 b 194 290 232 129 179 190 l 689 290 b 704 354 696 315 700 335 b 447 708 750 571 643 708 b 36 351 242 708 82 571 b 308 -14 -12 129 107 -14 z m 221 418 b 418 567 256 511 332 567 b 550 418 506 567 561 514 z "},"ə":{"ha":740,"x_min":0,"x_max":0,"o":"m 293 -14 b 706 340 499 -14 660 125 b 438 708 750 549 632 708 b 64 463 260 708 125 619 l 228 463 b 408 567 265 531 331 567 b 549 399 511 567 563 504 l 50 399 b 31 311 39 360 33 335 b 293 -14 0 121 108 -14 z m 321 128 b 190 283 231 128 181 186 l 522 283 b 321 128 488 188 413 128 z "},"f":{"ha":543,"x_min":0,"x_max":0,"o":"m 81 0 l 265 0 l 381 543 l 540 543 l 572 694 l 413 694 l 431 782 b 557 894 446 858 488 894 b 628 892 585 894 601 894 l 661 1051 b 558 1057 622 1054 594 1057 b 253 811 376 1057 286 964 l 228 694 l 85 694 l 53 543 l 197 543 z "},"g":{"ha":799,"x_min":0,"x_max":0,"o":"m 253 -340 b 654 -7 465 -340 604 -242 l 803 694 l 619 694 l 589 551 b 385 703 560 653 485 703 b 38 361 229 703 85 583 b 250 -3 -15 115 107 -3 b 503 139 338 -3 432 38 l 468 -24 b 261 -196 444 -133 367 -196 b 111 -54 165 -196 108 -143 l -50 -54 b 253 -340 -62 -229 57 -340 z m 333 139 b 215 346 239 139 186 213 b 424 556 244 481 328 556 b 544 346 519 556 571 474 b 333 139 517 219 431 139 z "},"ğ":{"ha":799,"x_min":0,"x_max":0,"o":"m 469 814 b 722 1033 601 814 686 869 l 618 1033 b 488 914 596 943 550 914 b 411 1033 422 914 393 950 l 310 1033 b 469 814 278 888 354 814 z m 253 -340 b 654 -7 465 -340 604 -242 l 803 694 l 619 694 l 589 551 b 385 703 560 653 485 703 b 38 361 229 703 85 583 b 250 -3 -15 115 107 -3 b 503 139 338 -3 432 38 l 468 -24 b 261 -196 444 -133 367 -196 b 111 -54 165 -196 108 -143 l -50 -54 b 253 -340 -62 -229 57 -340 z m 333 139 b 215 346 239 139 186 213 b 424 556 244 481 328 556 b 544 346 519 556 571 474 b 333 139 517 219 431 139 z "},"ǧ":{"ha":799,"x_min":0,"x_max":0,"o":"m 408 829 l 558 829 l 739 1039 l 590 1039 l 490 890 l 436 1039 l 296 1039 z m 253 -340 b 654 -7 465 -340 604 -242 l 803 694 l 619 694 l 589 551 b 385 703 560 653 485 703 b 38 361 229 703 85 583 b 250 -3 -15 115 107 -3 b 503 139 338 -3 432 38 l 468 -24 b 261 -196 444 -133 367 -196 b 111 -54 165 -196 108 -143 l -50 -54 b 253 -340 -62 -229 57 -340 z m 333 139 b 215 346 239 139 186 213 b 424 556 244 481 328 556 b 544 346 519 556 571 474 b 333 139 517 219 431 139 z "},"ģ":{"ha":799,"x_min":0,"x_max":0,"o":"m 394 813 l 533 813 l 653 1056 l 525 1056 z m 253 -340 b 654 -7 465 -340 604 -242 l 803 694 l 619 694 l 589 551 b 385 703 560 653 485 703 b 38 361 229 703 85 583 b 250 -3 -15 115 107 -3 b 503 139 338 -3 432 38 l 468 -24 b 261 -196 444 -133 367 -196 b 111 -54 165 -196 108 -143 l -50 -54 b 253 -340 -62 -229 57 -340 z m 333 139 b 215 346 239 139 186 213 b 424 556 244 481 328 556 b 544 346 519 556 571 474 b 333 139 517 219 431 139 z "},"ġ":{"ha":799,"x_min":0,"x_max":0,"o":"m 381 840 l 574 840 l 614 1029 l 419 1029 z m 253 -340 b 654 -7 465 -340 604 -242 l 803 694 l 619 694 l 589 551 b 385 703 560 653 485 703 b 38 361 229 703 85 583 b 250 -3 -15 115 107 -3 b 503 139 338 -3 432 38 l 468 -24 b 261 -196 444 -133 367 -196 b 111 -54 165 -196 108 -143 l -50 -54 b 253 -340 -62 -229 57 -340 z m 333 139 b 215 346 239 139 186 213 b 424 556 244 481 328 556 b 544 346 519 556 571 474 b 333 139 517 219 431 139 z "},"h":{"ha":803,"x_min":0,"x_max":0,"o":"m -4 0 l 179 0 l 251 339 b 463 549 279 472 367 549 b 563 385 544 549 586 500 l 481 0 l 664 0 l 751 415 b 571 703 792 607 714 703 b 293 533 457 703 363 646 l 403 1056 l 221 1056 z "},"ħ":{"ha":803,"x_min":0,"x_max":0,"o":"m 571 703 b 293 533 457 703 363 646 l 349 794 l 597 794 l 622 911 l 372 911 l 403 1056 l 221 1056 l 190 911 l 69 911 l 44 794 l 165 794 l -4 0 l 179 0 l 251 339 b 463 549 279 472 367 549 b 563 385 544 549 586 500 l 481 0 l 664 0 l 751 415 b 571 703 792 607 714 703 z "},"ɥ":{"ha":803,"x_min":0,"x_max":0,"o":"m 807 694 l 624 694 l 551 356 b 342 146 524 222 436 146 b 240 310 260 146 217 194 l 322 694 l 139 694 l 53 279 b 232 -8 11 88 89 -8 b 510 161 346 -8 442 49 l 400 -361 l 582 -361 z "},"i":{"ha":317,"x_min":0,"x_max":0,"o":"m 167 839 l 361 839 l 401 1031 l 207 1031 z m -6 0 l 176 0 l 324 694 l 142 694 z "},"ı":{"ha":411,"x_min":0,"x_max":0,"o":"m 43 0 l 222 0 l 369 694 l 190 694 z "},"í":{"ha":411,"x_min":0,"x_max":0,"o":"m 231 825 l 375 825 l 575 1042 l 410 1042 z m 43 0 l 222 0 l 369 694 l 190 694 z "},"ǐ":{"ha":411,"x_min":0,"x_max":0,"o":"m 243 829 l 393 829 l 574 1039 l 425 1039 l 325 890 l 271 1039 l 131 1039 z m 43 0 l 222 0 l 369 694 l 190 694 z "},"î":{"ha":411,"x_min":0,"x_max":0,"o":"m 92 829 l 240 829 l 338 972 l 394 829 l 535 829 l 424 1039 l 272 1039 z m 43 0 l 222 0 l 369 694 l 190 694 z "},"ï":{"ha":411,"x_min":0,"x_max":0,"o":"m 94 850 l 268 850 l 303 1018 l 131 1018 z m 360 850 l 532 850 l 568 1018 l 394 1018 z m 43 0 l 222 0 l 369 694 l 190 694 z "},"ị":{"ha":317,"x_min":0,"x_max":0,"o":"m 167 839 l 361 839 l 401 1031 l 207 1031 z m -6 0 l 176 0 l 324 694 l 142 694 z m -47 -287 l 129 -287 l 165 -119 l -12 -119 z "},"ì":{"ha":411,"x_min":0,"x_max":0,"o":"m 233 825 l 372 825 l 300 1042 l 147 1042 z m 43 0 l 222 0 l 369 694 l 190 694 z "},"ỉ":{"ha":411,"x_min":0,"x_max":0,"o":"m 251 814 l 374 814 b 408 917 389 847 403 889 b 290 1049 424 996 385 1049 b 160 1028 253 1049 206 1042 l 138 915 b 238 935 174 926 213 935 b 278 882 275 935 286 919 b 251 814 272 861 265 842 z m 43 0 l 222 0 l 369 694 l 190 694 z "},"ī":{"ha":411,"x_min":0,"x_max":0,"o":"m 104 867 l 525 867 l 554 1000 l 133 1000 z m 43 0 l 222 0 l 369 694 l 190 694 z "},"į":{"ha":411,"x_min":0,"x_max":0,"o":"m 254 1029 l 215 840 l 408 840 l 449 1029 z m 43 1 b -119 -167 -46 -49 -106 -108 b 22 -325 -140 -269 -81 -325 b 144 -311 71 -325 111 -318 l 167 -208 b 71 -219 133 -215 99 -219 b 4 -162 18 -219 -4 -197 b 175 0 14 -117 58 -78 l 222 0 l 369 694 l 190 694 z "},"ĩ":{"ha":411,"x_min":0,"x_max":0,"o":"m 86 821 l 182 821 b 247 921 196 889 218 921 b 389 821 290 921 304 821 b 571 1046 468 821 538 888 l 476 1046 b 407 933 460 972 440 933 b 264 1046 358 933 349 1046 b 86 821 188 1046 119 982 z m 43 0 l 222 0 l 369 694 l 190 694 z "},"j":{"ha":467,"x_min":0,"x_max":0,"o":"m 319 839 l 511 839 l 551 1031 l 360 1031 z m -46 -340 b 324 -21 171 -340 279 -228 l 475 694 l 294 694 l 144 -10 b -42 -176 117 -139 42 -176 b -133 -172 -69 -176 -92 -176 l -167 -335 b -46 -340 -118 -339 -81 -340 z "},"k":{"ha":789,"x_min":0,"x_max":0,"o":"m 840 694 l 594 694 l 271 426 l 406 1056 l 221 1056 l -4 0 l 181 0 l 224 203 l 349 301 l 496 0 l 701 0 l 485 411 z "},"ķ":{"ha":789,"x_min":0,"x_max":0,"o":"m 840 694 l 594 694 l 271 426 l 406 1056 l 221 1056 l -4 0 l 181 0 l 224 203 l 349 301 l 496 0 l 701 0 l 485 411 z m 122 -386 l 239 -386 l 374 -107 l 247 -107 z "},"l":{"ha":322,"x_min":0,"x_max":0,"o":"m -4 0 l 178 0 l 403 1056 l 221 1056 z "},"ĺ":{"ha":322,"x_min":0,"x_max":0,"o":"m 257 1186 l 401 1186 l 601 1403 l 436 1403 z m -4 0 l 178 0 l 403 1056 l 221 1056 z "},"ľ":{"ha":322,"x_min":0,"x_max":0,"o":"m 269 1190 l 419 1190 l 600 1400 l 451 1400 l 351 1251 l 297 1400 l 157 1400 z m -4 0 l 178 0 l 403 1056 l 221 1056 z "},"ļ":{"ha":322,"x_min":0,"x_max":0,"o":"m -4 0 l 178 0 l 403 1056 l 221 1056 z m -118 -386 l -1 -386 l 133 -107 l 7 -107 z "},"ḷ":{"ha":322,"x_min":0,"x_max":0,"o":"m -4 0 l 178 0 l 403 1056 l 221 1056 z m -61 -287 l 117 -287 l 151 -119 l -25 -119 z "},"ł":{"ha":322,"x_min":0,"x_max":0,"o":"m 429 696 l 317 651 l 403 1056 l 221 1056 l 118 574 l -8 524 l -42 361 l 83 410 l -4 0 l 178 0 l 282 489 l 396 533 z "},"m":{"ha":1194,"x_min":0,"x_max":0,"o":"m -4 0 l 178 0 l 254 354 b 432 549 282 486 358 549 b 517 393 507 549 540 503 l 433 0 l 608 0 l 685 363 b 861 549 713 494 789 549 b 947 393 938 549 971 503 l 864 0 l 1046 0 l 1142 447 b 969 703 1178 615 1110 703 b 708 543 872 703 781 654 b 539 703 700 650 636 703 b 293 543 443 703 351 649 l 326 694 l 144 694 z "},"ḿ":{"ha":1194,"x_min":0,"x_max":0,"o":"m 644 825 l 789 825 l 989 1042 l 824 1042 z m -4 0 l 178 0 l 254 354 b 432 549 282 486 358 549 b 517 393 507 549 540 503 l 433 0 l 608 0 l 685 363 b 861 549 713 494 789 549 b 947 393 938 549 971 503 l 864 0 l 1046 0 l 1142 447 b 969 703 1178 615 1110 703 b 708 543 872 703 781 654 b 539 703 700 650 636 703 b 293 543 443 703 351 649 l 326 694 l 144 694 z "},"n":{"ha":803,"x_min":0,"x_max":0,"o":"m -4 0 l 179 0 l 251 339 b 463 549 279 472 367 549 b 563 385 544 549 586 500 l 481 0 l 664 0 l 751 415 b 571 703 792 607 714 703 b 293 533 457 703 363 646 l 326 694 l 144 694 z "},"ń":{"ha":803,"x_min":0,"x_max":0,"o":"m 431 825 l 575 825 l 775 1042 l 610 1042 z m -4 0 l 179 0 l 251 339 b 463 549 279 472 367 549 b 563 385 544 549 586 500 l 481 0 l 664 0 l 751 415 b 571 703 792 607 714 703 b 293 533 457 703 363 646 l 326 694 l 144 694 z "},"ň":{"ha":803,"x_min":0,"x_max":0,"o":"m 443 829 l 593 829 l 774 1039 l 625 1039 l 525 890 l 471 1039 l 331 1039 z m -4 0 l 179 0 l 251 339 b 463 549 279 472 367 549 b 563 385 544 549 586 500 l 481 0 l 664 0 l 751 415 b 571 703 792 607 714 703 b 293 533 457 703 363 646 l 326 694 l 144 694 z "},"ņ":{"ha":803,"x_min":0,"x_max":0,"o":"m -4 0 l 179 0 l 251 339 b 463 549 279 472 367 549 b 563 385 544 549 586 500 l 481 0 l 664 0 l 751 415 b 571 703 792 607 714 703 b 293 533 457 703 363 646 l 326 694 l 144 694 z m 132 -386 l 249 -386 l 383 -107 l 257 -107 z "},"ṇ":{"ha":803,"x_min":0,"x_max":0,"o":"m -4 0 l 179 0 l 251 339 b 463 549 279 472 367 549 b 563 385 544 549 586 500 l 481 0 l 664 0 l 751 415 b 571 703 792 607 714 703 b 293 533 457 703 363 646 l 326 694 l 144 694 z m 189 -287 l 367 -287 l 401 -119 l 225 -119 z "},"ŋ":{"ha":803,"x_min":0,"x_max":0,"o":"m 310 -275 b 671 35 500 -275 625 -183 l 751 415 b 571 703 790 607 714 703 b 293 533 457 703 363 646 l 326 694 l 144 694 l -4 0 l 179 0 l 251 339 b 463 549 279 472 367 549 b 563 385 544 549 586 500 l 488 35 b 301 -117 464 -79 388 -117 b 215 -114 264 -117 250 -117 l 182 -268 b 310 -275 239 -272 267 -275 z "},"ñ":{"ha":803,"x_min":0,"x_max":0,"o":"m 285 821 l 381 821 b 446 921 394 889 417 921 b 588 821 489 921 503 821 b 769 1046 667 821 736 888 l 675 1046 b 606 933 658 972 639 933 b 463 1046 557 933 547 1046 b 285 821 386 1046 318 982 z m -4 0 l 179 0 l 251 339 b 463 549 279 472 367 549 b 563 385 544 549 586 500 l 481 0 l 664 0 l 751 415 b 571 703 792 607 714 703 b 293 533 457 703 363 646 l 326 694 l 144 694 z "},"o":{"ha":751,"x_min":0,"x_max":0,"o":"m 301 -14 b 724 439 556 -14 724 185 b 454 708 724 601 621 708 b 28 261 206 708 28 507 b 301 -14 28 99 135 -14 z m 331 131 b 204 275 250 131 204 185 b 424 564 204 411 286 564 b 546 422 504 564 546 511 b 331 131 546 285 467 131 z "},"ó":{"ha":751,"x_min":0,"x_max":0,"o":"m 400 825 l 544 825 l 744 1042 l 579 1042 z m 301 -14 b 724 439 556 -14 724 185 b 454 708 724 601 621 708 b 28 261 206 708 28 507 b 301 -14 28 99 135 -14 z m 331 131 b 204 275 250 131 204 185 b 424 564 204 411 286 564 b 546 422 504 564 546 511 b 331 131 546 285 467 131 z "},"ǒ":{"ha":751,"x_min":0,"x_max":0,"o":"m 413 829 l 563 829 l 743 1039 l 594 1039 l 494 890 l 440 1039 l 300 1039 z m 301 -14 b 724 439 556 -14 724 185 b 454 708 724 601 621 708 b 28 261 206 708 28 507 b 301 -14 28 99 135 -14 z m 331 131 b 204 275 250 131 204 185 b 424 564 204 411 286 564 b 546 422 504 564 546 511 b 331 131 546 285 467 131 z "},"ô":{"ha":751,"x_min":0,"x_max":0,"o":"m 261 829 l 410 829 l 507 972 l 564 829 l 704 829 l 593 1039 l 442 1039 z m 301 -14 b 724 439 556 -14 724 185 b 454 708 724 601 621 708 b 28 261 206 708 28 507 b 301 -14 28 99 135 -14 z m 331 131 b 204 275 250 131 204 185 b 424 564 204 411 286 564 b 546 422 504 564 546 511 b 331 131 546 285 467 131 z "},"ố":{"ha":751,"x_min":0,"x_max":0,"o":"m 644 986 l 760 986 l 919 1181 l 786 1181 z m 260 829 l 410 829 l 506 971 l 563 829 l 703 829 l 593 1039 l 442 1039 z m 301 -14 b 724 439 556 -14 724 185 b 454 708 724 601 621 708 b 28 261 206 708 28 507 b 301 -14 28 99 135 -14 z m 331 131 b 204 275 250 131 204 185 b 424 564 204 411 286 564 b 546 422 504 564 546 511 b 331 131 546 285 467 131 z "},"ộ":{"ha":751,"x_min":0,"x_max":0,"o":"m 261 829 l 410 829 l 507 972 l 564 829 l 704 829 l 593 1039 l 442 1039 z m 301 -14 b 724 439 556 -14 724 185 b 454 708 724 601 621 708 b 28 261 206 708 28 507 b 301 -14 28 99 135 -14 z m 331 131 b 204 275 250 131 204 185 b 424 564 204 411 286 564 b 546 422 504 564 546 511 b 331 131 546 285 467 131 z m 151 -287 l 329 -287 l 364 -119 l 188 -119 z "},"ồ":{"ha":751,"x_min":0,"x_max":0,"o":"m 243 985 l 354 985 l 296 1181 l 175 1181 z m 261 829 l 410 829 l 506 971 l 563 829 l 703 829 l 593 1039 l 442 1039 z m 301 -14 b 724 439 556 -14 724 185 b 454 708 724 601 621 708 b 28 261 206 708 28 507 b 301 -14 28 99 135 -14 z m 331 131 b 204 275 250 131 204 185 b 424 564 204 411 286 564 b 546 422 504 564 546 511 b 331 131 546 285 467 131 z "},"ổ":{"ha":751,"x_min":0,"x_max":0,"o":"m 653 1004 l 774 1004 b 810 1107 790 1036 804 1079 b 692 1238 825 1185 786 1238 b 561 1217 653 1238 607 1231 l 539 1106 b 639 1124 575 1117 614 1124 b 679 1072 676 1124 688 1110 b 653 1004 674 1050 667 1031 z m 260 829 l 410 829 l 506 971 l 563 829 l 703 829 l 593 1039 l 442 1039 z m 301 -14 b 724 439 556 -14 724 185 b 454 708 724 601 621 708 b 28 261 206 708 28 507 b 301 -14 28 99 135 -14 z m 331 131 b 204 275 250 131 204 185 b 424 564 204 411 286 564 b 546 422 504 564 546 511 b 331 131 546 285 467 131 z "},"ỗ":{"ha":751,"x_min":0,"x_max":0,"o":"m 324 1090 l 410 1090 b 469 1181 424 1151 443 1181 b 596 1090 508 1181 521 1090 b 760 1293 668 1090 731 1150 l 675 1293 b 613 1193 661 1226 643 1193 b 483 1293 569 1193 561 1293 b 324 1090 415 1293 354 1235 z m 260 829 l 410 829 l 506 971 l 563 829 l 703 829 l 593 1039 l 442 1039 z m 301 -14 b 724 439 556 -14 724 185 b 454 708 724 601 621 708 b 28 261 206 708 28 507 b 301 -14 28 99 135 -14 z m 331 131 b 204 275 250 131 204 185 b 424 564 204 411 286 564 b 546 422 504 564 546 511 b 331 131 546 285 467 131 z "},"ö":{"ha":751,"x_min":0,"x_max":0,"o":"m 264 850 l 438 850 l 472 1018 l 300 1018 z m 529 850 l 701 850 l 738 1018 l 564 1018 z m 301 -14 b 724 439 556 -14 724 185 b 454 708 724 601 621 708 b 28 261 206 708 28 507 b 301 -14 28 99 135 -14 z m 331 131 b 204 275 250 131 204 185 b 424 564 204 411 286 564 b 546 422 504 564 546 511 b 331 131 546 285 467 131 z "},"ọ":{"ha":751,"x_min":0,"x_max":0,"o":"m 301 -14 b 724 439 556 -14 724 185 b 454 708 724 601 621 708 b 28 261 206 708 28 507 b 301 -14 28 99 135 -14 z m 331 131 b 204 275 250 131 204 185 b 424 564 204 411 286 564 b 546 422 504 564 546 511 b 331 131 546 285 467 131 z m 151 -287 l 329 -287 l 364 -119 l 188 -119 z "},"ò":{"ha":751,"x_min":0,"x_max":0,"o":"m 403 825 l 542 825 l 469 1042 l 317 1042 z m 301 -14 b 724 439 556 -14 724 185 b 454 708 724 601 621 708 b 28 261 206 708 28 507 b 301 -14 28 99 135 -14 z m 331 131 b 204 275 250 131 204 185 b 424 564 204 411 286 564 b 546 422 504 564 546 511 b 331 131 546 285 467 131 z "},"ỏ":{"ha":751,"x_min":0,"x_max":0,"o":"m 421 814 l 543 814 b 578 917 558 847 572 889 b 460 1049 593 996 554 1049 b 329 1028 422 1049 375 1042 l 307 915 b 407 935 343 926 382 935 b 447 882 444 935 456 919 b 421 814 442 861 435 842 z m 301 -14 b 724 439 556 -14 724 185 b 454 708 724 601 621 708 b 28 261 206 708 28 507 b 301 -14 28 99 135 -14 z m 331 131 b 204 275 250 131 204 185 b 424 564 204 411 286 564 b 546 422 504 564 546 511 b 331 131 546 285 467 131 z "},"ơ":{"ha":751,"x_min":0,"x_max":0,"o":"m 835 828 l 706 828 b 606 671 697 778 685 686 b 454 708 564 694 514 708 b 28 261 206 708 28 507 b 301 -14 28 99 135 -14 b 724 439 556 -14 724 185 b 681 599 724 501 708 556 b 835 828 793 631 814 728 z m 331 131 b 204 275 250 131 204 185 b 424 564 204 411 286 564 b 546 422 504 564 546 511 b 331 131 546 285 467 131 z "},"ớ":{"ha":751,"x_min":0,"x_max":0,"o":"m 744 1042 l 579 1042 l 400 825 l 544 825 z m 835 828 l 706 828 b 606 671 697 778 685 686 b 454 708 564 694 514 708 b 28 261 206 708 28 507 b 301 -14 28 99 135 -14 b 724 439 556 -14 724 185 b 681 599 724 501 708 556 b 835 828 793 631 814 728 z m 331 131 b 204 275 250 131 204 185 b 424 564 204 411 286 564 b 546 422 504 564 546 511 b 331 131 546 285 467 131 z "},"ợ":{"ha":751,"x_min":0,"x_max":0,"o":"m 835 828 l 706 828 b 606 671 697 778 685 686 b 454 708 564 694 514 708 b 28 261 206 708 28 507 b 301 -14 28 99 135 -14 b 724 439 556 -14 724 185 b 681 599 724 501 708 556 b 835 828 793 631 814 728 z m 331 131 b 204 275 250 131 204 185 b 424 564 204 411 286 564 b 546 422 504 564 546 511 b 331 131 546 285 467 131 z m 151 -287 l 329 -287 l 364 -119 l 188 -119 z "},"ờ":{"ha":751,"x_min":0,"x_max":0,"o":"m 542 825 l 469 1042 l 317 1042 l 403 825 z m 835 828 l 706 828 b 606 671 697 778 685 686 b 454 708 564 694 514 708 b 28 261 206 708 28 507 b 301 -14 28 99 135 -14 b 724 439 556 -14 724 185 b 681 599 724 501 708 556 b 835 828 793 631 814 728 z m 331 131 b 204 275 250 131 204 185 b 424 564 204 411 286 564 b 546 422 504 564 546 511 b 331 131 546 285 467 131 z "},"ở":{"ha":751,"x_min":0,"x_max":0,"o":"m 447 882 b 421 814 442 861 435 842 l 543 814 b 578 917 558 847 572 889 b 460 1049 593 996 554 1049 b 329 1028 422 1049 375 1042 l 307 915 b 407 935 343 926 382 935 b 447 882 444 935 456 919 z m 835 828 l 706 828 b 606 671 697 778 685 686 b 454 708 564 694 514 708 b 28 261 206 708 28 507 b 301 -14 28 99 135 -14 b 724 439 556 -14 724 185 b 681 599 724 501 708 556 b 835 828 793 631 814 728 z m 331 131 b 204 275 250 131 204 185 b 424 564 204 411 286 564 b 546 422 504 564 546 511 b 331 131 546 285 467 131 z "},"ỡ":{"ha":751,"x_min":0,"x_max":0,"o":"m 417 921 b 558 821 460 921 474 821 b 740 1046 638 821 707 888 l 646 1046 b 576 933 629 972 610 933 b 433 1046 528 933 518 1046 b 256 821 357 1046 289 982 l 351 821 b 417 921 365 889 388 921 z m 835 828 l 706 828 b 606 671 697 778 685 686 b 454 708 564 694 514 708 b 28 261 206 708 28 507 b 301 -14 28 99 135 -14 b 724 439 556 -14 724 185 b 681 599 724 501 708 556 b 835 828 793 631 814 728 z m 331 131 b 204 275 250 131 204 185 b 424 564 204 411 286 564 b 546 422 504 564 546 511 b 331 131 546 285 467 131 z "},"ő":{"ha":751,"x_min":0,"x_max":0,"o":"m 304 829 l 436 829 l 629 1039 l 479 1039 z m 513 829 l 646 829 l 840 1039 l 688 1039 z m 301 -14 b 724 439 556 -14 724 185 b 454 708 724 601 621 708 b 28 261 206 708 28 507 b 301 -14 28 99 135 -14 z m 331 131 b 204 275 250 131 204 185 b 424 564 204 411 286 564 b 546 422 504 564 546 511 b 331 131 546 285 467 131 z "},"ō":{"ha":751,"x_min":0,"x_max":0,"o":"m 274 867 l 694 867 l 724 1000 l 303 1000 z m 301 -14 b 724 439 556 -14 724 185 b 454 708 724 601 621 708 b 28 261 206 708 28 507 b 301 -14 28 99 135 -14 z m 331 131 b 204 275 250 131 204 185 b 424 564 204 411 286 564 b 546 422 504 564 546 511 b 331 131 546 285 467 131 z "},"ø":{"ha":751,"x_min":0,"x_max":0,"o":"m 804 796 l 683 796 l 588 681 b 454 708 550 699 506 708 b 28 261 206 708 28 507 b 90 76 28 188 50 124 l -57 -101 l 65 -101 l 164 18 b 301 -14 203 -3 249 -14 b 724 439 556 -14 724 185 b 663 624 724 514 701 576 z m 204 275 b 424 564 204 411 286 564 b 482 551 446 564 465 560 l 210 222 b 204 275 206 239 204 256 z m 546 422 b 331 131 546 285 467 131 b 268 144 307 131 286 135 l 540 475 b 546 422 544 460 546 442 z "},"ǿ":{"ha":751,"x_min":0,"x_max":0,"o":"m 744 1042 l 579 1042 l 400 825 l 544 825 z m 804 796 l 683 796 l 588 681 b 454 708 550 699 506 708 b 28 261 206 708 28 507 b 90 76 28 188 50 124 l -57 -101 l 65 -101 l 164 18 b 301 -14 203 -3 249 -14 b 724 439 556 -14 724 185 b 663 624 724 514 701 576 z m 204 275 b 424 564 204 411 286 564 b 482 551 446 564 465 560 l 210 222 b 204 275 206 239 204 256 z m 546 422 b 331 131 546 285 467 131 b 268 144 307 131 286 135 l 540 475 b 546 422 544 460 546 442 z "},"õ":{"ha":751,"x_min":0,"x_max":0,"o":"m 256 821 l 351 821 b 417 921 365 889 388 921 b 558 821 460 921 474 821 b 740 1046 638 821 707 888 l 646 1046 b 576 933 629 972 610 933 b 433 1046 528 933 518 1046 b 256 821 357 1046 289 982 z m 301 -14 b 724 439 556 -14 724 185 b 454 708 724 601 621 708 b 28 261 206 708 28 507 b 301 -14 28 99 135 -14 z m 331 131 b 204 275 250 131 204 185 b 424 564 204 411 286 564 b 546 422 504 564 546 511 b 331 131 546 285 467 131 z "},"œ":{"ha":1269,"x_min":0,"x_max":0,"o":"m 299 -14 b 597 126 425 -14 524 31 b 833 -14 642 35 726 -14 b 1206 232 1011 -14 1144 75 l 1043 232 b 861 124 1006 164 938 121 b 722 296 758 126 707 190 l 1221 296 b 1239 383 1231 332 1236 360 b 976 708 1271 574 1161 708 b 681 571 860 708 757 661 b 451 708 638 660 557 708 b 35 346 238 708 83 574 b 299 -14 -10 140 106 -14 z m 747 411 b 949 569 782 507 858 569 b 1081 411 1040 569 1090 508 z m 329 131 b 210 347 228 131 182 215 b 421 564 238 481 318 564 b 536 347 521 564 564 481 b 329 131 507 213 431 131 z "},"p":{"ha":800,"x_min":0,"x_max":0,"o":"m -75 -333 l 108 -333 l 208 139 b 408 -8 232 43 310 -8 b 764 346 576 -8 715 114 b 561 703 810 563 715 703 b 296 551 460 703 364 653 l 325 694 l 143 694 z m 375 139 b 254 346 281 139 225 217 b 464 556 282 476 369 556 b 582 346 557 556 611 482 b 375 139 554 210 468 139 z "},"þ":{"ha":800,"x_min":0,"x_max":0,"o":"m -75 -333 l 108 -333 l 208 139 b 408 -8 232 43 310 -8 b 764 346 576 -8 715 114 b 561 703 810 563 715 703 b 296 551 460 703 364 653 l 401 1056 l 219 1056 z m 375 139 b 254 346 281 139 225 217 b 464 556 282 476 369 556 b 582 346 557 556 611 482 b 375 139 554 210 468 139 z "},"q":{"ha":800,"x_min":0,"x_max":0,"o":"m 403 -333 l 585 -333 l 803 694 l 621 694 l 590 551 b 385 703 560 653 486 703 b 38 361 236 703 85 583 b 263 -8 -14 115 111 -8 b 501 132 353 -8 440 38 z m 335 139 b 217 346 239 139 188 213 b 424 556 244 481 328 556 b 544 346 521 556 572 474 b 335 139 517 219 431 139 z "},"r":{"ha":564,"x_min":0,"x_max":0,"o":"m -4 0 l 179 0 l 243 300 b 506 540 279 468 379 540 b 578 536 529 540 549 539 l 614 701 b 568 704 592 704 583 704 b 293 535 436 704 344 633 l 328 694 l 144 694 z "},"ŕ":{"ha":564,"x_min":0,"x_max":0,"o":"m 350 825 l 494 825 l 694 1042 l 529 1042 z m -4 0 l 179 0 l 243 300 b 506 540 279 468 379 540 b 578 536 529 540 549 539 l 614 701 b 568 704 592 704 583 704 b 293 535 436 704 344 633 l 328 694 l 144 694 z "},"ř":{"ha":564,"x_min":0,"x_max":0,"o":"m 364 829 l 514 829 l 694 1039 l 546 1039 l 446 890 l 392 1039 l 251 1039 z m -4 0 l 179 0 l 243 300 b 506 540 279 468 379 540 b 578 536 529 540 549 539 l 614 701 b 568 704 592 704 583 704 b 293 535 436 704 344 633 l 328 694 l 144 694 z "},"ŗ":{"ha":564,"x_min":0,"x_max":0,"o":"m -4 0 l 179 0 l 243 300 b 506 540 279 468 379 540 b 578 536 529 540 549 539 l 614 701 b 568 704 592 704 583 704 b 293 535 436 704 344 633 l 328 694 l 144 694 z m -115 -386 l 1 -386 l 136 -107 l 10 -107 z "},"s":{"ha":685,"x_min":0,"x_max":0,"o":"m 289 -14 b 622 196 488 -14 596 60 b 436 403 646 314 579 385 l 306 418 b 238 486 253 425 229 447 b 371 569 250 539 297 569 b 489 467 446 569 494 538 l 646 467 b 392 708 660 618 565 708 b 75 497 213 708 101 628 b 254 292 50 382 121 307 l 379 278 b 456 204 440 271 465 244 b 311 125 444 149 396 125 b 176 224 231 125 178 151 l 3 224 b 289 -14 -7 76 111 -14 z "},"ś":{"ha":685,"x_min":0,"x_max":0,"o":"m 344 825 l 489 825 l 689 1042 l 524 1042 z m 289 -14 b 622 196 488 -14 596 60 b 436 403 646 314 579 385 l 306 418 b 238 486 253 425 229 447 b 371 569 250 539 297 569 b 489 467 446 569 494 538 l 646 467 b 392 708 660 618 565 708 b 75 497 213 708 101 628 b 254 292 50 382 121 307 l 379 278 b 456 204 440 271 465 244 b 311 125 444 149 396 125 b 176 224 231 125 178 151 l 3 224 b 289 -14 -7 76 111 -14 z "},"š":{"ha":685,"x_min":0,"x_max":0,"o":"m 357 829 l 507 829 l 688 1039 l 539 1039 l 439 890 l 385 1039 l 244 1039 z m 289 -14 b 622 196 488 -14 596 60 b 436 403 646 314 579 385 l 306 418 b 238 486 253 425 229 447 b 371 569 250 539 297 569 b 489 467 446 569 494 538 l 646 467 b 392 708 660 618 565 708 b 75 497 213 708 101 628 b 254 292 50 382 121 307 l 379 278 b 456 204 440 271 465 244 b 311 125 444 149 396 125 b 176 224 231 125 178 151 l 3 224 b 289 -14 -7 76 111 -14 z "},"ş":{"ha":685,"x_min":0,"x_max":0,"o":"m 646 467 b 392 708 660 618 565 708 b 75 497 213 708 101 628 b 254 292 50 382 121 307 l 379 278 b 456 204 440 271 465 244 b 311 125 444 149 396 125 b 176 224 231 125 178 151 l 3 224 b 238 -11 -6 90 89 4 l 218 -106 b 332 -162 321 -108 338 -137 b 217 -211 324 -199 283 -211 b 110 -207 175 -211 140 -210 l 92 -294 b 214 -301 133 -299 167 -301 b 447 -171 356 -301 431 -250 b 336 -44 463 -101 422 -53 l 343 -12 b 622 196 507 1 599 72 b 436 403 646 314 579 385 l 306 418 b 238 486 253 425 229 447 b 371 569 250 539 297 569 b 489 467 446 569 494 538 z "},"ș":{"ha":685,"x_min":0,"x_max":0,"o":"m 289 -14 b 622 196 488 -14 596 60 b 436 403 646 314 579 385 l 306 418 b 238 486 253 425 229 447 b 371 569 250 539 297 569 b 489 467 446 569 494 538 l 646 467 b 392 708 660 618 565 708 b 75 497 213 708 101 628 b 254 292 50 382 121 307 l 379 278 b 456 204 440 271 465 244 b 311 125 444 149 396 125 b 176 224 231 125 178 151 l 3 224 b 289 -14 -7 76 111 -14 z m 88 -372 l 204 -372 l 339 -93 l 213 -93 z "},"ṣ":{"ha":685,"x_min":0,"x_max":0,"o":"m 289 -14 b 622 196 488 -14 596 60 b 436 403 646 314 579 385 l 306 418 b 238 486 253 425 229 447 b 371 569 250 539 297 569 b 489 467 446 569 494 538 l 646 467 b 392 708 660 618 565 708 b 75 497 213 708 101 628 b 254 292 50 382 121 307 l 379 278 b 456 204 440 271 465 244 b 311 125 444 149 396 125 b 176 224 231 125 178 151 l 3 224 b 289 -14 -7 76 111 -14 z m 146 -274 l 324 -274 l 358 -106 l 182 -106 z "},"ß":{"ha":914,"x_min":0,"x_max":0,"o":"m -4 0 l 183 0 l 328 682 b 590 896 360 828 458 896 b 760 746 703 896 781 840 b 565 622 743 663 671 622 l 492 622 l 458 464 l 532 464 b 692 303 658 464 711 394 b 463 153 671 207 586 153 l 288 153 l 256 0 l 411 0 b 872 285 665 0 831 86 b 717 542 900 414 844 510 b 931 753 840 576 908 644 b 624 1056 972 953 829 1056 b 144 694 388 1056 199 947 z "},"t":{"ha":571,"x_min":0,"x_max":0,"o":"m 347 -7 b 454 0 382 -7 411 -6 l 488 160 b 415 156 456 157 433 156 b 329 261 350 156 313 181 l 389 543 l 569 543 l 601 694 l 422 694 l 476 953 l 472 953 l 279 882 l 239 694 l 89 694 l 58 543 l 206 543 l 144 251 b 347 -7 108 85 185 -7 z "},"ŧ":{"ha":571,"x_min":0,"x_max":0,"o":"m 569 543 l 601 694 l 422 694 l 476 953 l 472 953 l 279 882 l 239 694 l 89 694 l 58 543 l 206 543 l 188 457 l 40 457 l 21 361 l 168 361 l 144 251 b 347 -7 108 85 185 -7 b 454 0 382 -7 411 -6 l 488 160 b 415 156 456 157 433 156 b 329 261 350 156 313 181 l 350 361 l 531 361 l 551 457 l 371 457 l 389 543 z "},"ť":{"ha":571,"x_min":0,"x_max":0,"o":"m 349 1075 l 499 1075 l 679 1285 l 531 1285 l 431 1136 l 376 1285 l 236 1285 z m 347 -7 b 454 0 382 -7 411 -6 l 488 160 b 415 156 456 157 433 156 b 329 261 350 156 313 181 l 389 543 l 569 543 l 601 694 l 422 694 l 476 953 l 472 953 l 279 882 l 239 694 l 89 694 l 58 543 l 206 543 l 144 251 b 347 -7 108 85 185 -7 z "},"ţ":{"ha":571,"x_min":0,"x_max":0,"o":"m 389 543 l 569 543 l 601 694 l 422 694 l 476 953 l 472 953 l 279 882 l 239 694 l 89 694 l 58 543 l 206 543 l 144 251 b 271 1 114 114 163 26 l 246 -119 b 360 -176 349 -122 365 -151 b 244 -225 351 -212 311 -225 b 138 -221 203 -225 168 -224 l 119 -308 b 242 -315 161 -312 194 -315 b 475 -185 383 -315 458 -264 b 364 -58 490 -115 450 -67 l 375 -7 b 454 0 400 -6 424 -4 l 488 160 b 415 156 456 157 433 156 b 329 261 350 156 313 181 z "},"ț":{"ha":571,"x_min":0,"x_max":0,"o":"m 347 -7 b 454 0 382 -7 411 -6 l 488 160 b 415 156 456 157 433 156 b 329 261 350 156 313 181 l 389 543 l 569 543 l 601 694 l 422 694 l 476 953 l 472 953 l 279 882 l 239 694 l 89 694 l 58 543 l 206 543 l 144 251 b 347 -7 108 85 185 -7 z m 117 -386 l 233 -386 l 368 -107 l 242 -107 z "},"ṭ":{"ha":571,"x_min":0,"x_max":0,"o":"m 347 -7 b 454 0 382 -7 411 -6 l 488 160 b 415 156 456 157 433 156 b 329 261 350 156 313 181 l 389 543 l 569 543 l 601 694 l 422 694 l 476 953 l 472 953 l 279 882 l 239 694 l 89 694 l 58 543 l 206 543 l 144 251 b 347 -7 108 85 185 -7 z m 174 -287 l 351 -287 l 386 -119 l 210 -119 z "},"u":{"ha":803,"x_min":0,"x_max":0,"o":"m 807 694 l 624 694 l 551 356 b 342 146 524 222 436 146 b 240 310 260 146 217 194 l 322 694 l 139 694 l 53 279 b 232 -8 13 88 89 -8 b 510 161 346 -8 442 49 l 476 0 l 658 0 z "},"ú":{"ha":803,"x_min":0,"x_max":0,"o":"m 419 825 l 564 825 l 764 1042 l 599 1042 z m 807 694 l 624 694 l 551 356 b 342 146 524 222 436 146 b 240 310 260 146 217 194 l 322 694 l 139 694 l 53 279 b 232 -8 13 88 89 -8 b 510 161 346 -8 442 49 l 476 0 l 658 0 z "},"ǔ":{"ha":803,"x_min":0,"x_max":0,"o":"m 432 829 l 582 829 l 763 1039 l 614 1039 l 514 890 l 460 1039 l 319 1039 z m 807 694 l 624 694 l 551 356 b 342 146 524 222 436 146 b 240 310 260 146 217 194 l 322 694 l 139 694 l 53 279 b 232 -8 13 88 89 -8 b 510 161 346 -8 442 49 l 476 0 l 658 0 z "},"û":{"ha":803,"x_min":0,"x_max":0,"o":"m 279 829 l 428 829 l 525 972 l 582 829 l 722 829 l 611 1039 l 460 1039 z m 807 694 l 624 694 l 551 356 b 342 146 524 222 436 146 b 240 310 260 146 217 194 l 322 694 l 139 694 l 53 279 b 232 -8 13 88 89 -8 b 510 161 346 -8 442 49 l 476 0 l 658 0 z "},"ü":{"ha":803,"x_min":0,"x_max":0,"o":"m 283 850 l 457 850 l 492 1018 l 319 1018 z m 549 850 l 721 850 l 757 1018 l 583 1018 z m 807 694 l 624 694 l 551 356 b 342 146 524 222 436 146 b 240 310 260 146 217 194 l 322 694 l 139 694 l 53 279 b 232 -8 13 88 89 -8 b 510 161 346 -8 442 49 l 476 0 l 658 0 z "},"ụ":{"ha":803,"x_min":0,"x_max":0,"o":"m 807 694 l 624 694 l 551 356 b 342 146 524 222 436 146 b 240 310 260 146 217 194 l 322 694 l 139 694 l 53 279 b 232 -8 13 88 89 -8 b 510 161 346 -8 442 49 l 476 0 l 658 0 z m 171 -287 l 349 -287 l 383 -119 l 207 -119 z "},"ù":{"ha":803,"x_min":0,"x_max":0,"o":"m 421 825 l 560 825 l 488 1042 l 335 1042 z m 807 694 l 624 694 l 551 356 b 342 146 524 222 436 146 b 240 310 260 146 217 194 l 322 694 l 139 694 l 53 279 b 232 -8 13 88 89 -8 b 510 161 346 -8 442 49 l 476 0 l 658 0 z "},"ủ":{"ha":803,"x_min":0,"x_max":0,"o":"m 439 814 l 561 814 b 596 917 576 847 590 889 b 478 1049 611 996 572 1049 b 347 1028 440 1049 393 1042 l 325 915 b 425 935 361 926 400 935 b 465 882 463 935 474 919 b 439 814 460 861 453 842 z m 807 694 l 624 694 l 551 356 b 342 146 524 222 436 146 b 240 310 260 146 217 194 l 322 694 l 139 694 l 53 279 b 232 -8 13 88 89 -8 b 510 161 346 -8 442 49 l 476 0 l 658 0 z "},"ư":{"ha":803,"x_min":0,"x_max":0,"o":"m 972 854 l 843 854 b 722 694 833 800 819 697 l 624 694 l 551 356 b 342 146 524 222 436 146 b 240 310 260 146 217 194 l 322 694 l 139 694 l 53 279 b 232 -8 13 88 89 -8 b 510 161 346 -8 442 49 l 476 0 l 658 0 l 790 618 b 972 854 928 643 950 746 z "},"ứ":{"ha":803,"x_min":0,"x_max":0,"o":"m 764 1042 l 599 1042 l 419 825 l 564 825 z m 972 854 l 843 854 b 722 694 833 800 819 697 l 624 694 l 551 356 b 342 146 524 222 436 146 b 240 310 260 146 217 194 l 322 694 l 139 694 l 53 279 b 232 -8 13 88 89 -8 b 510 161 346 -8 442 49 l 476 0 l 658 0 l 790 618 b 972 854 928 643 950 746 z "},"ự":{"ha":803,"x_min":0,"x_max":0,"o":"m 972 854 l 843 854 b 722 694 833 800 819 697 l 624 694 l 551 356 b 342 146 524 222 436 146 b 240 310 260 146 217 194 l 322 694 l 139 694 l 53 279 b 232 -8 13 88 89 -8 b 510 161 346 -8 442 49 l 476 0 l 658 0 l 790 618 b 972 854 928 643 950 746 z m 171 -287 l 349 -287 l 383 -119 l 207 -119 z "},"ừ":{"ha":803,"x_min":0,"x_max":0,"o":"m 560 825 l 488 1042 l 335 1042 l 421 825 z m 972 854 l 843 854 b 722 694 833 800 819 697 l 624 694 l 551 356 b 342 146 524 222 436 146 b 240 310 260 146 217 194 l 322 694 l 139 694 l 53 279 b 232 -8 13 88 89 -8 b 510 161 346 -8 442 49 l 476 0 l 658 0 l 790 618 b 972 854 928 643 950 746 z "},"ử":{"ha":803,"x_min":0,"x_max":0,"o":"m 465 882 b 439 814 460 861 453 842 l 561 814 b 596 917 576 847 590 889 b 478 1049 611 996 572 1049 b 347 1028 440 1049 393 1042 l 325 915 b 425 935 361 926 400 935 b 465 882 463 935 474 919 z m 972 854 l 843 854 b 722 694 833 800 819 697 l 624 694 l 551 356 b 342 146 524 222 436 146 b 240 310 260 146 217 194 l 322 694 l 139 694 l 53 279 b 232 -8 13 88 89 -8 b 510 161 346 -8 442 49 l 476 0 l 658 0 l 790 618 b 972 854 928 643 950 746 z "},"ữ":{"ha":803,"x_min":0,"x_max":0,"o":"m 435 921 b 576 821 478 921 492 821 b 758 1046 656 821 725 888 l 664 1046 b 594 933 647 972 628 933 b 451 1046 546 933 536 1046 b 274 821 375 1046 307 982 l 369 821 b 435 921 383 889 406 921 z m 972 854 l 843 854 b 722 694 833 800 819 697 l 624 694 l 551 356 b 342 146 524 222 436 146 b 240 310 260 146 217 194 l 322 694 l 139 694 l 53 279 b 232 -8 13 88 89 -8 b 510 161 346 -8 442 49 l 476 0 l 658 0 l 790 618 b 972 854 928 643 950 746 z "},"ű":{"ha":803,"x_min":0,"x_max":0,"o":"m 322 829 l 454 829 l 647 1039 l 497 1039 z m 531 829 l 664 829 l 858 1039 l 706 1039 z m 807 694 l 624 694 l 551 356 b 342 146 524 222 436 146 b 240 310 260 146 217 194 l 322 694 l 139 694 l 53 279 b 232 -8 13 88 89 -8 b 510 161 346 -8 442 49 l 476 0 l 658 0 z "},"ū":{"ha":803,"x_min":0,"x_max":0,"o":"m 293 867 l 714 867 l 743 1000 l 322 1000 z m 807 694 l 624 694 l 551 356 b 342 146 524 222 436 146 b 240 310 260 146 217 194 l 322 694 l 139 694 l 53 279 b 232 -8 13 88 89 -8 b 510 161 346 -8 442 49 l 476 0 l 658 0 z "},"ų":{"ha":803,"x_min":0,"x_max":0,"o":"m 596 0 l 658 0 l 807 694 l 624 694 l 551 356 b 342 146 524 222 436 146 b 240 310 260 146 217 194 l 322 694 l 139 694 l 53 279 b 232 -8 13 88 89 -8 b 510 161 346 -8 442 49 l 478 8 b 301 -167 382 -43 315 -104 b 443 -325 281 -269 340 -325 b 565 -311 492 -325 532 -318 l 588 -208 b 492 -219 554 -215 519 -219 b 425 -162 439 -219 417 -197 b 596 0 435 -117 479 -78 z "},"ů":{"ha":803,"x_min":0,"x_max":0,"o":"m 492 807 b 651 936 567 807 635 857 b 547 1064 665 1006 615 1064 b 388 936 472 1064 404 1010 b 492 807 374 867 421 807 z m 510 886 b 468 936 481 886 463 908 b 531 986 475 964 501 986 b 571 936 557 986 576 964 b 510 886 564 908 536 886 z m 807 694 l 624 694 l 551 356 b 342 146 524 222 436 146 b 240 310 260 146 217 194 l 322 694 l 139 694 l 53 279 b 232 -8 13 88 89 -8 b 510 161 346 -8 442 49 l 476 0 l 658 0 z "},"ũ":{"ha":803,"x_min":0,"x_max":0,"o":"m 274 821 l 369 821 b 435 921 383 889 406 921 b 576 821 478 921 492 821 b 758 1046 656 821 725 888 l 664 1046 b 594 933 647 972 628 933 b 451 1046 546 933 536 1046 b 274 821 375 1046 307 982 z m 807 694 l 624 694 l 551 356 b 342 146 524 222 436 146 b 240 310 260 146 217 194 l 322 694 l 139 694 l 53 279 b 232 -8 13 88 89 -8 b 510 161 346 -8 442 49 l 476 0 l 658 0 z "},"v":{"ha":738,"x_min":0,"x_max":0,"o":"m 196 0 l 411 0 l 803 694 l 593 694 l 331 174 l 265 694 l 82 694 z "},"w":{"ha":1153,"x_min":0,"x_max":0,"o":"m 154 0 l 369 0 l 596 433 l 649 0 l 876 0 l 1218 694 l 1015 694 l 788 179 l 738 694 l 554 694 l 296 179 l 267 694 l 82 694 z "},"ẃ":{"ha":1153,"x_min":0,"x_max":0,"o":"m 599 825 l 743 825 l 943 1042 l 778 1042 z m 154 0 l 369 0 l 596 433 l 649 0 l 876 0 l 1218 694 l 1015 694 l 788 179 l 738 694 l 554 694 l 296 179 l 267 694 l 82 694 z "},"ŵ":{"ha":1153,"x_min":0,"x_max":0,"o":"m 460 829 l 608 829 l 706 972 l 763 829 l 903 829 l 792 1039 l 640 1039 z m 154 0 l 369 0 l 596 433 l 649 0 l 876 0 l 1218 694 l 1015 694 l 788 179 l 738 694 l 554 694 l 296 179 l 267 694 l 82 694 z "},"ẅ":{"ha":1153,"x_min":0,"x_max":0,"o":"m 464 850 l 638 850 l 672 1018 l 500 1018 z m 729 850 l 901 850 l 938 1018 l 764 1018 z m 154 0 l 369 0 l 596 433 l 649 0 l 876 0 l 1218 694 l 1015 694 l 788 179 l 738 694 l 554 694 l 296 179 l 267 694 l 82 694 z "},"ẁ":{"ha":1153,"x_min":0,"x_max":0,"o":"m 601 825 l 740 825 l 668 1042 l 515 1042 z m 154 0 l 369 0 l 596 433 l 649 0 l 876 0 l 1218 694 l 1015 694 l 788 179 l 738 694 l 554 694 l 296 179 l 267 694 l 82 694 z "},"x":{"ha":768,"x_min":0,"x_max":0,"o":"m -61 0 l 172 0 l 364 251 l 478 0 l 682 0 l 683 7 l 511 347 l 829 688 l 829 694 l 593 694 l 399 442 l 292 694 l 92 694 l 90 688 l 249 347 l -60 7 z "},"y":{"ha":764,"x_min":0,"x_max":0,"o":"m 25 -333 b 369 -87 157 -333 263 -272 l 829 694 l 617 694 l 350 183 l 271 694 l 82 694 l 224 -6 l 186 -69 b 17 -174 150 -133 90 -174 b -75 -169 -4 -174 -40 -174 l -110 -329 b 25 -333 -58 -333 -26 -333 z "},"ý":{"ha":764,"x_min":0,"x_max":0,"o":"m 379 825 l 524 825 l 724 1042 l 558 1042 z m 25 -333 b 369 -87 157 -333 263 -272 l 829 694 l 617 694 l 350 183 l 271 694 l 82 694 l 224 -6 l 186 -69 b 17 -174 150 -133 90 -174 b -75 -169 -4 -174 -40 -174 l -110 -329 b 25 -333 -58 -333 -26 -333 z "},"ŷ":{"ha":764,"x_min":0,"x_max":0,"o":"m 239 829 l 388 829 l 485 972 l 542 829 l 682 829 l 571 1039 l 419 1039 z m 25 -333 b 369 -87 157 -333 263 -272 l 829 694 l 617 694 l 350 183 l 271 694 l 82 694 l 224 -6 l 186 -69 b 17 -174 150 -133 90 -174 b -75 -169 -4 -174 -40 -174 l -110 -329 b 25 -333 -58 -333 -26 -333 z "},"ÿ":{"ha":764,"x_min":0,"x_max":0,"o":"m 243 850 l 417 850 l 451 1018 l 279 1018 z m 508 850 l 681 850 l 717 1018 l 543 1018 z m 25 -333 b 369 -87 157 -333 263 -272 l 829 694 l 617 694 l 350 183 l 271 694 l 82 694 l 224 -6 l 186 -69 b 17 -174 150 -133 90 -174 b -75 -169 -4 -174 -40 -174 l -110 -329 b 25 -333 -58 -333 -26 -333 z "},"ỵ":{"ha":764,"x_min":0,"x_max":0,"o":"m 25 -333 b 369 -87 157 -333 263 -272 l 829 694 l 617 694 l 350 183 l 271 694 l 82 694 l 224 -6 l 186 -69 b 17 -174 150 -133 90 -174 b -75 -169 -4 -174 -40 -174 l -110 -329 b 25 -333 -58 -333 -26 -333 z m 67 -562 l 244 -562 l 279 -394 l 103 -394 z "},"ỳ":{"ha":764,"x_min":0,"x_max":0,"o":"m 382 825 l 521 825 l 449 1042 l 296 1042 z m 25 -333 b 369 -87 157 -333 263 -272 l 829 694 l 617 694 l 350 183 l 271 694 l 82 694 l 224 -6 l 186 -69 b 17 -174 150 -133 90 -174 b -75 -169 -4 -174 -40 -174 l -110 -329 b 25 -333 -58 -333 -26 -333 z "},"ỷ":{"ha":764,"x_min":0,"x_max":0,"o":"m 399 814 l 521 814 b 556 917 536 847 550 889 b 438 1049 571 996 532 1049 b 307 1028 400 1049 353 1042 l 285 915 b 385 935 321 926 360 935 b 425 882 422 935 433 919 b 399 814 419 861 413 842 z m 25 -333 b 369 -87 157 -333 263 -272 l 829 694 l 617 694 l 350 183 l 271 694 l 82 694 l 224 -6 l 186 -69 b 17 -174 150 -133 90 -174 b -75 -169 -4 -174 -40 -174 l -110 -329 b 25 -333 -58 -333 -26 -333 z "},"ỹ":{"ha":764,"x_min":0,"x_max":0,"o":"m 233 821 l 329 821 b 394 921 343 889 365 921 b 536 821 438 921 451 821 b 718 1046 615 821 685 888 l 624 1046 b 554 933 607 972 588 933 b 411 1046 506 933 496 1046 b 233 821 335 1046 267 982 z m 25 -333 b 369 -87 157 -333 263 -272 l 829 694 l 617 694 l 350 183 l 271 694 l 82 694 l 224 -6 l 186 -69 b 17 -174 150 -133 90 -174 b -75 -169 -4 -174 -40 -174 l -110 -329 b 25 -333 -58 -333 -26 -333 z "},"z":{"ha":700,"x_min":0,"x_max":0,"o":"m -33 0 l 586 0 l 618 150 l 249 150 l 699 554 l 728 694 l 124 694 l 92 546 l 451 546 l -4 139 z "},"ź":{"ha":700,"x_min":0,"x_max":0,"o":"m 351 825 l 496 825 l 696 1042 l 531 1042 z m -33 0 l 586 0 l 618 150 l 249 150 l 699 554 l 728 694 l 124 694 l 92 546 l 451 546 l -4 139 z "},"ž":{"ha":700,"x_min":0,"x_max":0,"o":"m 364 829 l 514 829 l 694 1039 l 546 1039 l 446 890 l 392 1039 l 251 1039 z m -33 0 l 586 0 l 618 150 l 249 150 l 699 554 l 728 694 l 124 694 l 92 546 l 451 546 l -4 139 z "},"ż":{"ha":700,"x_min":0,"x_max":0,"o":"m 336 840 l 529 840 l 569 1029 l 375 1029 z m -33 0 l 586 0 l 618 150 l 249 150 l 699 554 l 728 694 l 124 694 l 92 546 l 451 546 l -4 139 z "},"ẓ":{"ha":700,"x_min":0,"x_max":0,"o":"m -33 0 l 586 0 l 618 150 l 249 150 l 699 554 l 728 694 l 124 694 l 92 546 l 451 546 l -4 139 z m 165 -287 l 343 -287 l 378 -119 l 201 -119 z "},"ﬁ":{"ha":889,"x_min":0,"x_max":0,"o":"m 81 0 l 265 0 l 381 543 l 683 543 l 567 0 l 747 0 l 894 694 l 413 694 l 431 782 b 557 894 446 858 488 894 b 628 892 585 894 601 894 l 661 1051 b 558 1057 622 1054 594 1057 b 253 811 376 1057 286 964 l 228 694 l 85 694 l 53 543 l 197 543 z m 739 850 l 935 850 l 974 1031 l 776 1031 z "},"ﬂ":{"ha":1047,"x_min":0,"x_max":0,"o":"m 826 -7 b 929 1 861 -7 888 -4 l 963 158 b 894 154 931 156 913 154 b 829 260 846 154 813 181 l 997 1056 l 621 1056 b 249 761 414 1056 286 933 l 235 694 l 85 694 l 53 543 l 203 543 l 88 0 l 269 0 l 386 543 l 607 543 l 639 694 l 417 694 l 432 761 b 621 896 450 849 517 896 l 785 896 l 649 251 b 826 -7 613 85 679 -7 z "},"ª":{"ha":764,"x_min":0,"x_max":0,"o":"m 267 328 b 550 457 396 328 497 388 b 671 335 547 390 585 335 b 725 338 689 335 699 335 l 754 472 b 676 546 701 471 660 472 l 710 707 b 494 975 746 878 654 975 b 150 710 338 975 200 886 l 304 710 b 465 840 328 792 389 840 b 554 754 538 840 563 794 l 551 739 b 90 497 535 664 139 726 b 267 328 68 394 138 328 z m 328 450 b 261 510 278 450 253 472 b 528 626 281 600 447 582 l 522 603 b 328 450 503 513 424 450 z "},"º":{"ha":699,"x_min":0,"x_max":0,"o":"m 346 332 b 719 650 550 332 681 465 b 482 972 758 835 661 972 b 107 650 283 972 146 835 b 346 332 67 465 168 332 z m 376 469 b 269 651 283 469 247 543 b 453 835 293 760 361 835 b 556 651 543 835 578 760 b 376 469 532 543 467 469 z "},"А":{"ha":1024,"x_min":0,"x_max":0,"o":"m -61 0 l 156 0 l 285 224 l 710 224 l 753 0 l 938 0 l 735 965 l 528 965 z m 368 376 l 604 782 l 682 376 z "},"Б":{"ha":885,"x_min":0,"x_max":0,"o":"m -1 0 l 457 0 b 846 294 679 0 807 103 b 579 589 886 483 771 589 l 310 589 l 356 806 l 878 806 l 913 965 l 204 965 z m 217 153 l 278 436 l 533 436 b 672 294 638 436 693 392 b 474 153 651 197 578 153 z "},"В":{"ha":919,"x_min":0,"x_max":0,"o":"m -1 0 l 450 0 b 858 272 690 0 821 94 b 722 499 881 381 832 465 b 935 710 840 525 911 600 b 651 965 967 864 871 965 l 204 965 z m 307 572 l 358 818 l 622 818 b 754 693 732 818 771 771 b 569 572 738 617 678 572 z m 215 147 l 275 421 l 536 421 b 678 286 654 421 696 369 b 478 147 660 199 596 147 z "},"Г":{"ha":765,"x_min":0,"x_max":0,"o":"m -1 0 l 183 0 l 356 806 l 839 806 l 872 965 l 204 965 z "},"Ѓ":{"ha":765,"x_min":0,"x_max":0,"o":"m 531 1096 l 675 1096 l 875 1313 l 710 1313 z m -1 0 l 183 0 l 356 806 l 839 806 l 872 965 l 204 965 z "},"Ґ":{"ha":765,"x_min":0,"x_max":0,"o":"m 739 1128 l 704 965 l 204 965 l -1 0 l 183 0 l 356 806 l 839 806 l 908 1128 z "},"Д":{"ha":1092,"x_min":0,"x_max":0,"o":"m -99 -228 l 63 -228 l 111 0 l 833 0 l 785 -228 l 947 -228 l 1028 160 l 875 160 l 1047 965 l 401 965 l 289 542 b 124 160 246 375 197 263 l -17 160 z m 326 160 b 472 531 389 258 433 385 l 546 806 l 826 806 l 689 160 z "},"Е":{"ha":875,"x_min":0,"x_max":0,"o":"m -1 0 l 742 0 l 776 160 l 218 160 l 274 419 l 756 419 l 790 576 l 307 576 l 357 807 l 913 807 l 947 965 l 204 965 z "},"Ѐ":{"ha":875,"x_min":0,"x_max":0,"o":"m 538 1096 l 676 1096 l 604 1313 l 451 1313 z m -1 0 l 742 0 l 776 160 l 218 160 l 274 419 l 756 419 l 790 576 l 307 576 l 357 807 l 913 807 l 947 965 l 204 965 z "},"Ё":{"ha":875,"x_min":0,"x_max":0,"o":"m 399 1121 l 572 1121 l 607 1289 l 435 1289 z m 664 1121 l 836 1121 l 872 1289 l 699 1289 z m -1 0 l 742 0 l 776 160 l 218 160 l 274 419 l 756 419 l 790 576 l 307 576 l 357 807 l 913 807 l 947 965 l 204 965 z "},"Ж":{"ha":1417,"x_min":0,"x_max":0,"o":"m -68 0 l 161 0 l 511 408 l 629 408 l 542 0 l 725 0 l 813 408 l 932 408 l 1133 0 l 1336 0 l 1338 4 l 1085 467 l 1542 961 l 1543 965 l 1314 965 l 964 558 l 844 558 l 931 965 l 747 965 l 661 558 l 540 558 l 336 965 l 138 965 l 136 961 l 390 499 l -67 6 z "},"З":{"ha":903,"x_min":0,"x_max":0,"o":"m 397 -7 b 832 264 654 -7 800 103 b 679 500 856 378 801 471 b 890 692 825 533 874 614 b 593 979 928 861 807 979 b 147 661 357 979 196 863 l 329 661 b 561 831 368 781 450 831 b 710 690 672 831 728 774 b 522 575 693 613 629 575 l 451 575 l 419 425 l 490 425 b 656 289 614 425 674 375 b 422 144 636 201 547 144 b 221 318 286 144 211 211 l 40 318 b 397 -7 18 133 150 -7 z "},"И":{"ha":994,"x_min":0,"x_max":0,"o":"m -1 0 l 246 0 l 817 714 l 665 0 l 849 0 l 1054 965 l 807 965 l 235 247 l 389 965 l 204 965 z "},"Й":{"ha":994,"x_min":0,"x_max":0,"o":"m 631 1085 b 883 1304 763 1085 847 1140 l 779 1304 b 649 1185 757 1214 711 1185 b 572 1304 583 1185 554 1221 l 471 1304 b 631 1085 439 1158 515 1085 z m -1 0 l 246 0 l 817 714 l 665 0 l 849 0 l 1054 965 l 807 965 l 235 247 l 389 965 l 204 965 z "},"Ѝ":{"ha":994,"x_min":0,"x_max":0,"o":"m 560 1096 l 699 1096 l 626 1313 l 474 1313 z m -1 0 l 246 0 l 817 714 l 665 0 l 849 0 l 1054 965 l 807 965 l 235 247 l 389 965 l 204 965 z "},"К":{"ha":949,"x_min":0,"x_max":0,"o":"m 1071 965 l 799 965 l 297 533 l 389 965 l 204 965 l -1 0 l 183 0 l 253 326 l 403 444 l 658 0 l 864 0 l 865 4 l 543 553 z "},"Ќ":{"ha":949,"x_min":0,"x_max":0,"o":"m 879 1313 l 714 1313 l 535 1096 l 679 1096 z m 1071 965 l 799 965 l 297 533 l 389 965 l 204 965 l -1 0 l 183 0 l 253 326 l 403 444 l 658 0 l 864 0 l 865 4 l 543 553 z "},"Л":{"ha":968,"x_min":0,"x_max":0,"o":"m -51 -4 b 443 490 269 -4 344 132 l 529 806 l 808 806 l 636 0 l 824 0 l 1028 965 l 383 965 l 261 501 b -17 165 193 244 138 165 z "},"М":{"ha":1232,"x_min":0,"x_max":0,"o":"m -1 0 l 182 0 l 318 631 l 453 0 l 654 0 l 1042 647 l 903 0 l 1088 0 l 1293 965 l 1046 965 l 576 146 l 411 965 l 204 965 z "},"Н":{"ha":971,"x_min":0,"x_max":0,"o":"m -1 0 l 185 0 l 272 413 l 728 413 l 639 0 l 825 0 l 1031 965 l 844 965 l 761 571 l 307 571 l 390 965 l 204 965 z "},"О":{"ha":1010,"x_min":0,"x_max":0,"o":"m 433 -14 b 986 482 749 -14 922 190 b 638 979 1047 765 911 979 b 82 482 338 979 142 769 b 433 -14 21 199 169 -14 z m 461 144 b 265 483 283 144 222 283 b 607 821 307 682 435 821 b 803 483 783 821 844 682 b 461 144 760 283 639 144 z "},"П":{"ha":971,"x_min":0,"x_max":0,"o":"m -1 0 l 185 0 l 357 806 l 810 806 l 639 0 l 825 0 l 1031 965 l 204 965 z "},"Р":{"ha":874,"x_min":0,"x_max":0,"o":"m -1 0 l 183 0 l 260 353 l 486 353 b 910 649 717 353 865 443 b 615 965 953 851 835 965 l 204 965 z m 292 510 l 356 808 l 600 808 b 736 658 713 808 756 744 b 536 510 718 571 649 510 z "},"С":{"ha":974,"x_min":0,"x_max":0,"o":"m 421 -7 b 936 385 685 -7 853 139 l 756 385 b 454 151 692 238 588 151 b 264 483 301 151 221 282 b 596 818 307 688 444 818 b 786 585 731 818 794 732 l 968 585 b 629 976 983 832 853 976 b 82 482 342 976 143 772 b 421 -7 21 201 174 -7 z "},"Т":{"ha":907,"x_min":0,"x_max":0,"o":"m 286 0 l 472 0 l 644 806 l 982 806 l 1015 965 l 154 965 l 121 806 l 458 806 z "},"У":{"ha":871,"x_min":0,"x_max":0,"o":"m 124 -14 b 493 233 283 -14 375 60 l 994 965 l 775 965 l 461 464 l 331 965 l 140 965 l 336 285 l 301 239 b 138 139 251 169 201 142 b 32 143 103 138 67 140 l 0 -10 b 124 -14 50 -14 83 -14 z "},"Ў":{"ha":871,"x_min":0,"x_max":0,"o":"m 594 1085 b 847 1304 726 1085 811 1140 l 743 1304 b 613 1185 721 1214 675 1185 b 536 1304 547 1185 518 1221 l 435 1304 b 594 1085 403 1158 479 1085 z m 124 -14 b 493 233 283 -14 375 60 l 994 965 l 775 965 l 461 464 l 331 965 l 140 965 l 336 285 l 301 239 b 138 139 251 169 201 142 b 32 143 103 138 67 140 l 0 -10 b 124 -14 50 -14 83 -14 z "},"Ф":{"ha":1239,"x_min":0,"x_max":0,"o":"m 442 -46 l 628 -46 l 653 72 b 1214 481 975 78 1157 211 b 828 893 1269 739 1103 888 l 853 1011 l 667 1011 l 642 893 b 81 481 329 888 136 742 b 467 72 28 236 188 81 z m 500 226 b 260 481 292 232 228 332 b 608 739 290 631 397 733 z m 686 226 l 794 739 b 1035 481 1003 733 1067 631 b 686 226 1004 332 897 231 z "},"Х":{"ha":969,"x_min":0,"x_max":0,"o":"m -51 0 l 200 0 l 494 353 l 671 0 l 875 0 l 626 471 l 1079 965 l 828 965 l 535 617 l 357 965 l 154 965 l 408 490 z "},"Ч":{"ha":928,"x_min":0,"x_max":0,"o":"m 596 0 l 783 0 l 989 965 l 801 965 l 704 504 b 468 449 638 469 554 449 b 313 636 358 449 278 472 l 382 965 l 197 965 l 121 607 b 400 299 72 378 200 299 b 676 374 494 299 614 331 z "},"Ц":{"ha":1065,"x_min":0,"x_max":0,"o":"m 1019 965 l 832 965 l 661 160 l 218 160 l 390 965 l 204 965 l -1 0 l 807 0 l 760 -228 l 921 -228 l 1003 160 l 847 160 z "},"Ш":{"ha":1458,"x_min":0,"x_max":0,"o":"m -1 0 l 1314 0 l 1519 965 l 1332 965 l 1160 158 l 781 158 l 953 965 l 769 965 l 597 158 l 218 158 l 390 965 l 204 965 z "},"Щ":{"ha":1565,"x_min":0,"x_max":0,"o":"m 1519 965 l 1332 965 l 1160 158 l 781 158 l 953 965 l 769 965 l 597 158 l 218 158 l 390 965 l 204 965 l -1 0 l 1307 0 l 1260 -228 l 1421 -228 l 1503 160 l 1347 160 z "},"Џ":{"ha":971,"x_min":0,"x_max":0,"o":"m 1031 965 l 844 965 l 672 160 l 219 160 l 390 965 l 204 965 l -1 0 l 329 0 l 281 -228 l 449 -228 l 497 0 l 825 0 z "},"Ь":{"ha":875,"x_min":0,"x_max":0,"o":"m -1 0 l 439 0 b 836 297 674 0 796 104 b 569 593 878 488 765 593 l 311 593 l 390 965 l 204 965 z m 217 153 l 278 440 l 536 440 b 663 297 632 440 683 394 b 472 153 642 199 572 153 z "},"Ъ":{"ha":1035,"x_min":0,"x_max":0,"o":"m 729 593 l 471 593 l 551 965 l 154 965 l 121 807 l 331 807 l 158 0 l 599 0 b 997 297 833 0 957 104 b 729 593 1038 488 925 593 z m 824 297 b 632 153 803 199 732 153 l 378 153 l 439 440 l 697 440 b 824 297 793 440 843 394 z "},"Ы":{"ha":1217,"x_min":0,"x_max":0,"o":"m -1 0 l 425 0 b 824 297 660 0 783 104 b 556 593 864 488 754 593 l 311 593 l 390 965 l 204 965 z m 885 0 l 1071 0 l 1276 965 l 1090 965 z m 217 153 l 278 440 l 522 440 b 649 297 618 440 669 394 b 458 153 628 199 558 153 z "},"Љ":{"ha":1514,"x_min":0,"x_max":0,"o":"m -51 -4 b 443 490 269 -4 344 132 l 529 806 l 808 806 l 636 0 l 1078 0 b 1476 297 1313 0 1436 104 b 1208 593 1517 488 1404 593 l 950 593 l 1029 965 l 383 965 l 261 501 b -17 165 193 244 138 165 z m 856 153 l 918 440 l 1175 440 b 1301 297 1272 440 1322 394 b 1111 153 1281 199 1211 153 z "},"Њ":{"ha":1515,"x_min":0,"x_max":0,"o":"m 1210 593 l 951 593 l 1032 965 l 844 965 l 761 571 l 307 571 l 390 965 l 204 965 l -1 0 l 185 0 l 272 413 l 728 413 l 639 0 l 1081 0 b 1478 297 1314 0 1438 104 b 1210 593 1519 488 1407 593 z m 1304 297 b 1113 153 1283 199 1214 153 l 858 153 l 919 440 l 1178 440 b 1304 297 1274 440 1325 394 z "},"Ѕ":{"ha":885,"x_min":0,"x_max":0,"o":"m 413 -14 b 839 265 642 -14 800 89 b 593 549 871 422 778 521 l 421 575 b 313 693 336 588 297 624 b 521 824 329 774 415 824 b 701 647 635 824 706 761 l 878 647 b 542 979 893 857 761 979 b 133 699 326 979 169 865 b 365 422 103 554 193 449 l 524 399 b 654 271 631 382 671 347 b 431 140 638 193 551 140 b 207 318 301 140 214 206 l 24 318 b 413 -14 19 117 185 -14 z "},"Є":{"ha":989,"x_min":0,"x_max":0,"o":"m 610 818 b 818 614 733 818 810 747 l 1000 614 b 646 976 1004 843 851 976 b 82 482 351 976 144 782 b 440 -7 21 197 178 -7 b 944 353 671 -7 863 121 l 763 353 b 471 151 700 222 596 151 b 254 418 325 151 238 243 l 579 418 l 607 551 l 282 551 b 610 818 339 724 465 818 z "},"Э":{"ha":975,"x_min":0,"x_max":0,"o":"m 608 976 b 103 614 371 976 185 838 l 285 614 b 579 818 346 754 454 818 b 779 549 724 818 797 721 l 465 549 l 439 421 l 751 421 b 435 151 697 247 579 151 b 229 353 308 151 233 218 l 47 353 b 399 -7 36 128 194 -7 b 951 482 690 -7 888 186 b 608 976 1014 778 867 976 z "},"І":{"ha":331,"x_min":0,"x_max":0,"o":"m -1 0 l 185 0 l 390 965 l 204 965 z "},"Ї":{"ha":331,"x_min":0,"x_max":0,"o":"m 111 1121 l 285 1121 l 319 1289 l 147 1289 z m 376 1121 l 549 1121 l 585 1289 l 411 1289 z m -1 0 l 185 0 l 390 965 l 204 965 z "},"Ј":{"ha":594,"x_min":0,"x_max":0,"o":"m -56 -7 b 528 353 240 -7 465 56 l 658 965 l 474 965 l 353 396 b -19 164 313 214 188 164 z "},"Ћ":{"ha":1175,"x_min":0,"x_max":0,"o":"m 269 0 l 456 0 l 547 428 b 763 479 613 467 692 479 b 911 294 871 479 942 436 l 849 0 l 1035 0 l 1103 322 b 844 629 1153 553 1022 629 b 571 547 757 629 644 596 l 628 806 l 958 806 l 993 965 l 154 965 l 121 806 l 440 806 z "},"Ю":{"ha":1306,"x_min":0,"x_max":0,"o":"m 760 -14 b 1281 482 1035 -14 1214 167 b 971 979 1343 779 1213 979 b 468 556 722 979 549 817 l 303 556 l 390 965 l 204 965 l -1 0 l 185 0 l 272 410 l 439 410 b 760 -14 408 154 540 -14 z m 793 143 b 626 483 643 143 583 278 b 936 821 669 683 788 821 b 1099 483 1085 821 1142 685 b 793 143 1056 278 942 143 z "},"Я":{"ha":900,"x_min":0,"x_max":0,"o":"m -35 0 l 186 0 l 481 375 l 649 375 l 568 0 l 756 0 l 961 965 l 529 965 b 126 676 306 965 167 867 b 306 393 97 540 161 431 z m 433 528 b 300 671 331 528 281 581 b 494 813 319 758 393 813 l 742 813 l 682 528 z "},"Ђ":{"ha":1175,"x_min":0,"x_max":0,"o":"m 721 -14 b 1090 260 914 -14 1042 44 l 1103 322 b 844 629 1154 551 1022 629 b 571 547 757 629 644 596 l 628 806 l 958 806 l 993 965 l 154 965 l 121 806 l 440 806 l 269 0 l 456 0 l 547 428 b 763 479 613 467 692 479 b 915 313 871 479 943 435 l 906 269 b 708 129 882 163 800 129 b 624 133 681 129 658 131 l 593 -7 b 721 -14 650 -12 678 -14 z "},"Ѣ":{"ha":1018,"x_min":0,"x_max":0,"o":"m 713 593 l 454 593 l 475 692 l 667 692 l 694 818 l 501 818 l 533 965 l 347 965 l 315 818 l 124 818 l 96 692 l 289 692 l 142 0 l 582 0 b 979 297 817 0 939 104 b 713 593 1019 488 908 593 z m 806 297 b 615 153 785 199 715 153 l 360 153 l 421 440 l 679 440 b 806 297 775 440 826 394 z "},"Ѳ":{"ha":1010,"x_min":0,"x_max":0,"o":"m 638 979 b 82 482 338 979 142 769 b 433 -14 21 199 169 -14 b 986 482 749 -14 922 190 b 638 979 1047 765 911 979 z m 607 821 b 814 561 760 821 825 717 b 711 483 797 510 768 483 b 372 596 606 483 518 596 b 297 586 346 596 321 593 b 607 821 356 729 467 821 z m 461 144 b 253 397 310 144 243 244 b 353 471 271 454 299 471 b 699 371 447 471 525 371 b 771 376 725 371 749 372 b 461 144 713 236 606 144 z "},"Ѵ":{"ha":1025,"x_min":0,"x_max":0,"o":"m 308 0 l 535 0 l 943 688 b 1115 810 1004 789 1040 810 l 1150 979 b 799 785 950 989 878 925 l 444 143 l 328 965 l 140 965 z "},"Ғ":{"ha":849,"x_min":0,"x_max":0,"o":"m 922 806 l 957 965 l 288 965 l 197 539 l 42 539 l 18 422 l 172 422 l 82 0 l 268 0 l 357 422 l 517 422 l 539 539 l 382 539 l 439 806 z "},"Җ":{"ha":1444,"x_min":0,"x_max":0,"o":"m 1542 961 l 1543 965 l 1314 965 l 964 558 l 844 558 l 931 965 l 747 965 l 661 558 l 540 558 l 336 965 l 138 965 l 136 961 l 390 499 l -67 6 l -68 0 l 161 0 l 511 408 l 629 408 l 542 0 l 725 0 l 813 408 l 932 408 l 1133 0 l 1186 0 l 1138 -228 l 1300 -228 l 1382 160 l 1253 160 l 1085 467 z "},"Қ":{"ha":964,"x_min":0,"x_max":0,"o":"m 543 553 l 1071 965 l 799 965 l 297 533 l 389 965 l 204 965 l -1 0 l 183 0 l 253 326 l 403 444 l 658 0 l 706 0 l 657 -228 l 819 -228 l 901 160 l 774 160 z "},"Ң":{"ha":1078,"x_min":0,"x_max":0,"o":"m 1031 965 l 844 965 l 761 571 l 307 571 l 390 965 l 204 965 l -1 0 l 185 0 l 272 413 l 728 413 l 639 0 l 819 0 l 771 -228 l 933 -228 l 1014 160 l 858 160 z "},"Ү":{"ha":929,"x_min":0,"x_max":0,"o":"m 301 0 l 485 0 l 558 344 l 1051 965 l 824 965 l 486 489 l 338 965 l 140 965 l 374 344 z "},"Ұ":{"ha":929,"x_min":0,"x_max":0,"o":"m 1051 965 l 824 965 l 486 489 l 338 965 l 140 965 l 354 397 l 176 397 l 142 239 l 351 239 l 301 0 l 485 0 l 536 239 l 744 239 l 778 397 l 600 397 z "},"Ҳ":{"ha":975,"x_min":0,"x_max":0,"o":"m 626 471 l 1079 965 l 828 965 l 535 617 l 357 965 l 154 965 l 408 490 l -51 0 l 200 0 l 494 353 l 671 0 l 717 0 l 668 -228 l 831 -228 l 911 160 l 790 160 z "},"Ҷ":{"ha":1035,"x_min":0,"x_max":0,"o":"m 989 965 l 801 965 l 704 504 b 468 449 638 469 554 449 b 313 636 358 449 278 472 l 382 965 l 197 965 l 121 607 b 400 299 72 378 200 299 b 676 374 494 299 614 331 l 596 0 l 776 0 l 729 -228 l 890 -228 l 972 160 l 817 160 z "},"Һ":{"ha":903,"x_min":0,"x_max":0,"o":"m -4 0 l 183 0 l 282 464 b 497 515 347 500 426 515 b 646 329 606 515 676 471 l 576 0 l 761 0 l 839 358 b 579 665 888 588 742 665 b 310 594 478 665 374 629 l 389 965 l 201 965 z "},"Ӏ":{"ha":331,"x_min":0,"x_max":0,"o":"m -1 0 l 185 0 l 390 965 l 204 965 z "},"Ӂ":{"ha":1417,"x_min":0,"x_max":0,"o":"m 864 1085 b 1117 1304 996 1085 1081 1140 l 1013 1304 b 882 1185 990 1214 944 1185 b 806 1304 817 1185 788 1221 l 704 1304 b 864 1085 672 1158 749 1085 z m -68 0 l 161 0 l 511 408 l 629 408 l 542 0 l 725 0 l 813 408 l 932 408 l 1133 0 l 1336 0 l 1338 4 l 1085 467 l 1542 961 l 1543 965 l 1314 965 l 964 558 l 844 558 l 931 965 l 747 965 l 661 558 l 540 558 l 336 965 l 138 965 l 136 961 l 390 499 l -67 6 z "},"Ӑ":{"ha":1024,"x_min":0,"x_max":0,"o":"m 660 1085 b 913 1304 792 1085 876 1140 l 808 1304 b 678 1185 786 1214 740 1185 b 601 1304 613 1185 583 1221 l 500 1304 b 660 1085 468 1158 544 1085 z m -61 0 l 156 0 l 285 224 l 710 224 l 753 0 l 938 0 l 735 965 l 528 965 z m 368 376 l 604 782 l 682 376 z "},"Ӓ":{"ha":1024,"x_min":0,"x_max":0,"o":"m 450 1121 l 624 1121 l 658 1289 l 486 1289 z m 715 1121 l 888 1121 l 924 1289 l 750 1289 z m -61 0 l 156 0 l 285 224 l 710 224 l 753 0 l 938 0 l 735 965 l 528 965 z m 368 376 l 604 782 l 682 376 z "},"Ӕ":{"ha":1483,"x_min":0,"x_max":0,"o":"m -61 0 l 169 0 l 344 219 l 682 219 l 635 0 l 1349 0 l 1383 160 l 850 160 l 906 419 l 1367 419 l 1400 576 l 940 576 l 988 807 l 1519 807 l 1554 965 l 728 965 z m 463 371 l 806 801 l 714 371 z "},"Ӗ":{"ha":875,"x_min":0,"x_max":0,"o":"m 608 1085 b 861 1304 740 1085 825 1140 l 757 1304 b 626 1185 735 1214 689 1185 b 550 1304 561 1185 532 1221 l 449 1304 b 608 1085 417 1158 493 1085 z m -1 0 l 742 0 l 776 160 l 218 160 l 274 419 l 756 419 l 790 576 l 307 576 l 357 807 l 913 807 l 947 965 l 204 965 z "},"Ә":{"ha":1007,"x_min":0,"x_max":0,"o":"m 631 979 b 121 635 369 979 193 832 l 301 622 b 597 822 347 729 446 822 b 808 533 761 822 829 704 l 92 533 b 82 482 92 531 88 508 b 425 -14 21 201 175 -14 b 981 472 743 -14 918 175 b 631 979 1043 760 901 979 z m 458 144 b 251 390 315 144 243 222 l 774 390 b 458 144 717 236 610 144 z "},"Ӝ":{"ha":1417,"x_min":0,"x_max":0,"o":"m 654 1121 l 828 1121 l 863 1289 l 690 1289 z m 919 1121 l 1092 1121 l 1128 1289 l 954 1289 z m -68 0 l 161 0 l 511 408 l 629 408 l 542 0 l 725 0 l 813 408 l 932 408 l 1133 0 l 1336 0 l 1338 4 l 1085 467 l 1542 961 l 1543 965 l 1314 965 l 964 558 l 844 558 l 931 965 l 747 965 l 661 558 l 540 558 l 336 965 l 138 965 l 136 961 l 390 499 l -67 6 z "},"Ӟ":{"ha":903,"x_min":0,"x_max":0,"o":"m 407 1121 l 581 1121 l 615 1289 l 443 1289 z m 672 1121 l 844 1121 l 881 1289 l 707 1289 z m 397 -7 b 832 264 654 -7 800 103 b 679 500 856 378 801 471 b 890 692 825 533 874 614 b 593 979 928 861 807 979 b 147 661 357 979 196 863 l 329 661 b 561 831 368 781 450 831 b 710 690 672 831 728 774 b 522 575 693 613 629 575 l 451 575 l 419 425 l 490 425 b 656 289 614 425 674 375 b 422 144 636 201 547 144 b 221 318 286 144 211 211 l 40 318 b 397 -7 18 133 150 -7 z "},"Ӣ":{"ha":994,"x_min":0,"x_max":0,"o":"m 431 1138 l 851 1138 l 881 1271 l 460 1271 z m -1 0 l 246 0 l 817 714 l 665 0 l 849 0 l 1054 965 l 807 965 l 235 247 l 389 965 l 204 965 z "},"Ӥ":{"ha":994,"x_min":0,"x_max":0,"o":"m 421 1121 l 594 1121 l 629 1289 l 457 1289 z m 686 1121 l 858 1121 l 894 1289 l 721 1289 z m -1 0 l 246 0 l 817 714 l 665 0 l 849 0 l 1054 965 l 807 965 l 235 247 l 389 965 l 204 965 z "},"Ӧ":{"ha":1010,"x_min":0,"x_max":0,"o":"m 453 1121 l 626 1121 l 661 1289 l 489 1289 z m 718 1121 l 890 1121 l 926 1289 l 753 1289 z m 433 -14 b 986 482 749 -14 922 190 b 638 979 1047 765 911 979 b 82 482 338 979 142 769 b 433 -14 21 199 169 -14 z m 461 144 b 265 483 283 144 222 283 b 607 821 307 682 435 821 b 803 483 783 821 844 682 b 461 144 760 283 639 144 z "},"Ө":{"ha":1010,"x_min":0,"x_max":0,"o":"m 638 979 b 82 482 338 979 142 769 b 433 -14 21 199 169 -14 b 986 482 749 -14 922 190 b 638 979 1047 765 911 979 z m 607 821 b 814 551 763 821 828 713 l 283 551 b 607 821 338 713 456 821 z m 461 144 b 254 415 304 144 239 253 l 785 415 b 461 144 731 253 618 144 z "},"Ӫ":{"ha":1010,"x_min":0,"x_max":0,"o":"m 661 1289 l 489 1289 l 453 1121 l 626 1121 z m 926 1289 l 753 1289 l 718 1121 l 890 1121 z m 638 979 b 82 482 338 979 142 769 b 433 -14 21 199 169 -14 b 986 482 749 -14 922 190 b 638 979 1047 765 911 979 z m 607 821 b 814 551 763 821 828 713 l 283 551 b 607 821 338 713 456 821 z m 461 144 b 254 415 304 144 239 253 l 785 415 b 461 144 731 253 618 144 z "},"Ӭ":{"ha":975,"x_min":0,"x_max":0,"o":"m 632 1299 l 460 1299 l 424 1131 l 597 1131 z m 897 1299 l 724 1299 l 689 1131 l 861 1131 z m 608 976 b 103 614 371 976 185 838 l 285 614 b 579 818 346 754 454 818 b 779 549 724 818 797 721 l 465 549 l 439 421 l 751 421 b 435 151 697 247 579 151 b 229 353 308 151 233 218 l 47 353 b 399 -7 36 128 194 -7 b 951 482 690 -7 888 186 b 608 976 1014 778 867 976 z "},"Ӯ":{"ha":871,"x_min":0,"x_max":0,"o":"m 394 1138 l 815 1138 l 844 1271 l 424 1271 z m 124 -14 b 493 233 283 -14 375 60 l 994 965 l 775 965 l 461 464 l 331 965 l 140 965 l 336 285 l 301 239 b 138 139 251 169 201 142 b 32 143 103 138 67 140 l 0 -10 b 124 -14 50 -14 83 -14 z "},"Ӱ":{"ha":871,"x_min":0,"x_max":0,"o":"m 385 1121 l 558 1121 l 593 1289 l 421 1289 z m 650 1121 l 822 1121 l 858 1289 l 685 1289 z m 124 -14 b 493 233 283 -14 375 60 l 994 965 l 775 965 l 461 464 l 331 965 l 140 965 l 336 285 l 301 239 b 138 139 251 169 201 142 b 32 143 103 138 67 140 l 0 -10 b 124 -14 50 -14 83 -14 z "},"Ӳ":{"ha":871,"x_min":0,"x_max":0,"o":"m 424 1100 l 556 1100 l 749 1310 l 599 1310 z m 632 1100 l 765 1100 l 960 1310 l 807 1310 z m 124 -14 b 493 233 283 -14 375 60 l 994 965 l 775 965 l 461 464 l 331 965 l 140 965 l 336 285 l 301 239 b 138 139 251 169 201 142 b 32 143 103 138 67 140 l 0 -10 b 124 -14 50 -14 83 -14 z "},"Ӵ":{"ha":928,"x_min":0,"x_max":0,"o":"m 397 1121 l 571 1121 l 606 1289 l 433 1289 z m 663 1121 l 835 1121 l 871 1289 l 697 1289 z m 596 0 l 783 0 l 989 965 l 801 965 l 704 504 b 468 449 638 469 554 449 b 313 636 358 449 278 472 l 382 965 l 197 965 l 121 607 b 400 299 72 378 200 299 b 676 374 494 299 614 331 z "},"Ԝ":{"ha":1469,"x_min":0,"x_max":0,"o":"m 231 0 l 451 0 l 817 707 l 892 0 l 1122 0 l 1590 965 l 1389 965 l 1032 183 l 960 965 l 776 965 l 376 183 l 326 965 l 143 965 z "},"а":{"ha":800,"x_min":0,"x_max":0,"o":"m 250 -8 b 503 139 338 -8 432 38 l 474 0 l 656 0 l 803 694 l 621 694 l 590 551 b 385 703 560 653 486 703 b 38 361 229 703 85 583 b 250 -8 -14 115 107 -8 z m 335 139 b 217 346 239 139 188 213 b 424 556 246 481 328 556 b 544 346 521 556 572 474 b 335 139 518 219 432 139 z "},"б":{"ha":763,"x_min":0,"x_max":0,"o":"m 311 -12 b 725 340 536 -12 679 122 b 506 692 772 563 693 692 b 225 553 401 692 296 643 b 542 822 290 756 379 799 b 875 1056 726 849 842 908 l 700 1056 b 522 978 690 1011 628 997 b 188 775 381 950 278 900 b 58 461 129 694 85 588 b 65 128 28 311 29 207 b 311 -12 107 35 193 -12 z m 342 133 b 222 339 236 133 196 213 b 431 546 247 465 331 546 b 547 339 528 546 575 465 b 342 133 519 210 439 133 z "},"в":{"ha":729,"x_min":0,"x_max":0,"o":"m -4 0 l 368 0 b 665 193 544 0 639 68 b 575 346 681 263 650 324 b 724 500 667 376 706 424 b 510 694 749 622 671 694 l 143 694 z m 263 403 l 299 572 l 428 572 b 550 489 533 572 563 549 b 392 403 536 429 496 403 z m 203 122 l 239 292 l 374 292 b 496 207 476 292 507 267 b 338 122 483 149 439 122 z "},"г":{"ha":617,"x_min":0,"x_max":0,"o":"m -4 0 l 178 0 l 293 549 l 643 549 l 674 694 l 143 694 z "},"ѓ":{"ha":617,"x_min":0,"x_max":0,"o":"m 372 825 l 517 825 l 717 1042 l 551 1042 z m -4 0 l 178 0 l 293 549 l 643 549 l 674 694 l 143 694 z "},"ґ":{"ha":617,"x_min":0,"x_max":0,"o":"m 674 694 l 707 871 l 556 871 l 522 694 l 143 694 l -4 0 l 178 0 l 293 549 l 646 549 l 672 689 z "},"д":{"ha":908,"x_min":0,"x_max":0,"o":"m -93 -217 l 69 -217 l 115 0 l 644 0 l 599 -217 l 760 -217 l 838 147 l 717 147 l 832 694 l 297 694 l 208 368 b 104 147 181 271 156 213 l -15 147 z m 296 147 b 378 354 331 200 357 281 l 432 550 l 625 550 l 539 147 z "},"е":{"ha":738,"x_min":0,"x_max":0,"o":"m 308 -14 b 669 224 478 -14 599 53 l 504 224 b 332 129 465 158 415 129 b 194 290 232 129 179 190 l 689 290 b 704 354 696 315 700 335 b 447 708 750 571 643 708 b 36 351 242 708 82 571 b 308 -14 -12 129 107 -14 z m 221 418 b 418 567 256 511 332 567 b 550 418 506 567 561 514 z "},"ѐ":{"ha":738,"x_min":0,"x_max":0,"o":"m 392 825 l 531 825 l 458 1042 l 306 1042 z m 308 -14 b 669 224 478 -14 599 53 l 504 224 b 332 129 465 158 415 129 b 194 290 232 129 179 190 l 689 290 b 704 354 696 315 700 335 b 447 708 750 571 643 708 b 36 351 242 708 82 571 b 308 -14 -12 129 107 -14 z m 221 418 b 418 567 256 511 332 567 b 550 418 506 567 561 514 z "},"ё":{"ha":738,"x_min":0,"x_max":0,"o":"m 253 850 l 426 850 l 461 1018 l 289 1018 z m 518 850 l 690 850 l 726 1018 l 553 1018 z m 308 -14 b 669 224 478 -14 599 53 l 504 224 b 332 129 465 158 415 129 b 194 290 232 129 179 190 l 689 290 b 704 354 696 315 700 335 b 447 708 750 571 643 708 b 36 351 242 708 82 571 b 308 -14 -12 129 107 -14 z m 221 418 b 418 567 256 511 332 567 b 550 418 506 567 561 514 z "},"ж":{"ha":1157,"x_min":0,"x_max":0,"o":"m 1224 694 l 999 694 l 764 415 l 685 415 l 743 694 l 561 694 l 503 415 l 408 415 l 274 694 l 79 694 l 272 351 l -67 0 l 157 0 l 393 279 l 474 279 l 414 0 l 596 0 l 654 279 l 749 279 l 883 0 l 1078 0 l 885 344 z "},"з":{"ha":675,"x_min":0,"x_max":0,"o":"m 272 -14 b 610 196 468 -14 582 63 b 522 361 628 279 588 338 b 657 506 590 382 642 433 b 426 708 681 618 597 708 b 78 468 250 708 121 633 l 239 468 b 393 571 265 539 314 571 b 488 488 461 571 497 538 b 374 418 476 440 438 418 l 308 418 l 283 299 l 347 299 b 443 215 419 299 456 276 b 299 125 432 163 376 125 b 179 232 224 125 175 156 l 8 232 b 272 -14 -7 40 136 -14 z "},"и":{"ha":815,"x_min":0,"x_max":0,"o":"m -4 0 l 218 0 l 590 458 l 493 0 l 671 0 l 818 694 l 596 694 l 225 235 l 321 694 l 143 694 z "},"й":{"ha":815,"x_min":0,"x_max":0,"o":"m 492 814 b 744 1033 624 814 708 869 l 640 1033 b 510 914 618 943 572 914 b 433 1033 444 914 415 950 l 332 1033 b 492 814 300 888 376 814 z m -4 0 l 218 0 l 590 458 l 493 0 l 671 0 l 818 694 l 596 694 l 225 235 l 321 694 l 143 694 z "},"ѝ":{"ha":815,"x_min":0,"x_max":0,"o":"m 419 825 l 558 825 l 486 1042 l 333 1042 z m -4 0 l 218 0 l 590 458 l 493 0 l 671 0 l 818 694 l 596 694 l 225 235 l 321 694 l 143 694 z "},"к":{"ha":778,"x_min":0,"x_max":0,"o":"m 838 694 l 583 694 l 263 403 l 325 694 l 143 694 l -4 0 l 178 0 l 218 196 l 335 289 l 489 0 l 690 0 l 458 389 z "},"ќ":{"ha":778,"x_min":0,"x_max":0,"o":"m 750 1042 l 585 1042 l 406 825 l 550 825 z m 838 694 l 583 694 l 263 403 l 325 694 l 143 694 l -4 0 l 178 0 l 218 196 l 335 289 l 489 0 l 690 0 l 458 389 z "},"л":{"ha":786,"x_min":0,"x_max":0,"o":"m -58 -4 b 336 367 175 -4 263 81 l 382 549 l 579 549 l 463 0 l 642 0 l 789 694 l 243 694 l 160 368 b -26 147 117 201 79 151 z "},"м":{"ha":1064,"x_min":0,"x_max":0,"o":"m -4 0 l 167 0 l 268 481 l 390 0 l 549 0 l 853 475 l 751 0 l 921 0 l 1068 694 l 807 694 l 503 206 l 379 694 l 143 694 z "},"н":{"ha":800,"x_min":0,"x_max":0,"o":"m -4 0 l 176 0 l 236 278 l 535 278 l 475 0 l 657 0 l 804 694 l 624 694 l 565 422 l 267 422 l 324 694 l 143 694 z "},"о":{"ha":751,"x_min":0,"x_max":0,"o":"m 301 -14 b 724 439 556 -14 724 185 b 454 708 724 601 621 708 b 28 261 206 708 28 507 b 301 -14 28 99 135 -14 z m 331 131 b 204 275 250 131 204 185 b 424 564 204 411 286 564 b 546 422 504 564 546 511 b 331 131 546 285 467 131 z "},"п":{"ha":800,"x_min":0,"x_max":0,"o":"m -4 0 l 178 0 l 294 550 l 592 550 l 475 0 l 657 0 l 804 694 l 144 694 z "},"р":{"ha":800,"x_min":0,"x_max":0,"o":"m -75 -333 l 108 -333 l 208 139 b 408 -8 232 43 310 -8 b 764 346 576 -8 715 114 b 561 703 810 563 715 703 b 296 551 460 703 364 653 l 325 694 l 143 694 z m 375 139 b 254 346 281 139 225 217 b 464 556 282 476 369 556 b 582 346 557 556 611 482 b 375 139 554 210 468 139 z "},"с":{"ha":731,"x_min":0,"x_max":0,"o":"m 297 -14 b 683 278 488 -14 619 83 l 519 278 b 326 131 475 179 408 131 b 201 347 225 131 174 214 b 418 564 228 476 314 564 b 544 418 499 564 546 510 l 708 418 b 449 708 719 597 618 708 b 35 347 240 708 82 572 b 297 -14 -10 136 107 -14 z "},"т":{"ha":711,"x_min":0,"x_max":0,"o":"m 192 0 l 372 0 l 489 550 l 738 550 l 768 694 l 90 694 l 60 550 l 308 550 z "},"у":{"ha":764,"x_min":0,"x_max":0,"o":"m 25 -333 b 369 -87 157 -333 263 -272 l 829 694 l 617 694 l 350 183 l 271 694 l 82 694 l 224 -6 l 186 -69 b 17 -174 150 -133 90 -174 b -75 -169 -4 -174 -40 -174 l -110 -329 b 25 -333 -58 -333 -26 -333 z "},"ў":{"ha":764,"x_min":0,"x_max":0,"o":"m 453 814 b 706 1033 585 814 669 869 l 601 1033 b 471 914 579 943 533 914 b 394 1033 406 914 376 950 l 293 1033 b 453 814 261 888 338 814 z m 25 -333 b 369 -87 157 -333 263 -272 l 829 694 l 617 694 l 350 183 l 271 694 l 82 694 l 224 -6 l 186 -69 b 17 -174 150 -133 90 -174 b -75 -169 -4 -174 -40 -174 l -110 -329 b 25 -333 -58 -333 -26 -333 z "},"ф":{"ha":1021,"x_min":0,"x_max":0,"o":"m 275 -333 l 457 -333 l 524 -17 b 986 346 825 -10 943 144 b 678 711 1028 538 936 703 l 732 965 l 550 965 l 496 711 b 35 346 208 704 76 547 b 343 -17 -6 158 92 -10 z m 374 126 b 211 347 224 136 188 235 b 467 568 236 460 313 557 z m 554 126 l 647 568 b 808 347 797 557 833 461 b 554 126 785 235 707 136 z "},"х":{"ha":768,"x_min":0,"x_max":0,"o":"m -61 0 l 172 0 l 364 251 l 478 0 l 682 0 l 683 7 l 511 347 l 829 688 l 829 694 l 593 694 l 397 440 l 292 694 l 92 694 l 90 688 l 249 347 l -60 7 z "},"ч":{"ha":757,"x_min":0,"x_max":0,"o":"m 433 0 l 614 0 l 761 694 l 581 694 l 515 386 b 372 360 457 365 413 360 b 263 474 289 360 244 386 l 310 694 l 129 694 l 78 451 b 308 211 38 260 182 211 b 486 249 376 211 444 226 z "},"ц":{"ha":882,"x_min":0,"x_max":0,"o":"m 688 147 l 804 694 l 624 694 l 507 147 l 208 147 l 325 694 l 143 693 l -4 -1 l 619 0 l 571 -228 l 733 -228 l 813 147 z "},"ш":{"ha":1150,"x_min":0,"x_max":0,"o":"m -4 0 l 1006 0 l 1153 694 l 974 694 l 857 147 l 621 147 l 736 694 l 561 694 l 446 147 l 208 147 l 324 694 l 143 694 z "},"щ":{"ha":1232,"x_min":0,"x_max":0,"o":"m 1036 147 l 1153 694 l 974 694 l 857 147 l 621 147 l 736 694 l 561 694 l 446 147 l 208 147 l 324 694 l 143 694 l -4 0 l 969 0 l 921 -228 l 1082 -228 l 1163 147 z "},"џ":{"ha":800,"x_min":0,"x_max":0,"o":"m 804 694 l 624 694 l 507 147 l 208 147 l 325 694 l 143 693 l -4 -1 l 242 -1 l 193 -228 l 356 -228 l 403 0 l 657 0 z "},"ь":{"ha":717,"x_min":0,"x_max":0,"o":"m -4 0 l 354 0 b 658 229 544 0 629 92 b 449 457 688 363 617 457 l 274 457 l 324 694 l 143 694 z m 204 132 l 244 325 l 382 325 b 485 229 461 325 500 299 b 340 132 468 157 417 132 z "},"ъ":{"ha":846,"x_min":0,"x_max":0,"o":"m 578 457 l 401 457 l 451 694 l 85 694 l 53 550 l 242 550 l 125 0 l 483 0 b 788 229 674 0 757 92 b 578 457 815 363 746 457 z m 613 229 b 469 132 597 157 546 132 l 333 132 l 374 325 l 511 325 b 613 229 590 325 628 299 z "},"ы":{"ha":1013,"x_min":0,"x_max":0,"o":"m -4 0 l 354 0 b 653 226 539 0 624 93 b 442 453 681 358 601 453 l 272 453 l 324 694 l 143 694 z m 689 0 l 869 0 l 1017 694 l 836 694 z m 203 132 l 244 321 l 376 321 b 478 226 456 321 493 294 b 335 132 464 157 414 132 z "},"љ":{"ha":1182,"x_min":0,"x_max":0,"o":"m -58 -4 b 336 367 175 -4 263 81 l 382 549 l 578 549 l 461 0 l 819 0 b 1122 222 1010 0 1094 90 b 914 444 1150 354 1082 444 l 736 444 l 789 694 l 243 694 l 160 368 b -26 147 117 201 79 151 z m 669 128 l 710 317 l 847 317 b 947 222 929 317 961 289 b 806 128 933 156 889 128 z "},"њ":{"ha":1197,"x_min":0,"x_max":0,"o":"m 925 424 l 747 424 l 804 694 l 624 694 l 565 422 l 267 422 l 324 694 l 143 694 l -4 0 l 176 0 l 236 278 l 535 278 l 475 0 l 835 0 b 1135 211 1007 0 1107 81 b 925 424 1163 343 1088 424 z m 961 206 b 821 118 946 138 894 118 l 682 118 l 719 293 l 858 293 b 961 206 932 293 975 274 z "},"ѕ":{"ha":685,"x_min":0,"x_max":0,"o":"m 289 -14 b 622 196 488 -14 596 60 b 436 403 646 314 579 385 l 306 418 b 238 486 253 425 229 447 b 371 569 250 539 297 569 b 489 467 446 569 494 538 l 646 467 b 392 708 660 618 565 708 b 75 497 213 708 101 628 b 254 292 50 382 121 307 l 379 278 b 456 204 440 271 465 244 b 311 125 444 149 396 125 b 176 224 231 125 178 151 l 3 224 b 289 -14 -7 76 111 -14 z "},"є":{"ha":724,"x_min":0,"x_max":0,"o":"m 710 436 b 447 708 725 601 611 708 b 35 347 210 708 78 551 b 294 -14 -8 143 93 -14 b 671 258 479 -14 619 90 l 504 258 b 319 132 464 174 400 132 b 189 292 228 132 183 192 l 389 292 l 415 411 l 217 411 b 414 561 254 503 325 561 b 546 436 496 561 547 525 z "},"э":{"ha":722,"x_min":0,"x_max":0,"o":"m 428 708 b 51 436 243 708 103 604 l 218 436 b 403 563 258 521 324 563 b 533 403 496 563 540 503 l 333 403 l 308 283 l 506 283 b 310 133 469 192 399 133 b 176 258 226 133 176 169 l 14 258 b 275 -14 -1 93 113 -14 b 688 347 513 -14 644 143 b 428 708 731 551 631 708 z "},"і":{"ha":317,"x_min":0,"x_max":0,"o":"m 167 839 l 361 839 l 401 1031 l 207 1031 z m -6 0 l 176 0 l 324 694 l 142 694 z "},"ї":{"ha":411,"x_min":0,"x_max":0,"o":"m 94 850 l 268 850 l 303 1018 l 131 1018 z m 360 850 l 532 850 l 568 1018 l 394 1018 z m 43 0 l 222 0 l 369 694 l 190 694 z "},"ј":{"ha":371,"x_min":0,"x_max":0,"o":"m 222 839 l 415 839 l 456 1031 l 263 1031 z m -142 -340 b 228 -21 75 -340 183 -228 l 379 694 l 197 694 l 49 -10 b -137 -176 21 -139 -54 -176 b -229 -172 -165 -176 -187 -176 l -264 -335 b -142 -340 -214 -339 -176 -340 z "},"ћ":{"ha":854,"x_min":0,"x_max":0,"o":"m 622 703 b 344 533 507 703 413 646 l 400 794 l 649 794 l 674 913 l 424 913 l 454 1056 l 271 1056 l 240 913 l 121 913 l 96 794 l 215 794 l 47 0 l 229 0 l 303 339 b 513 549 331 472 418 549 b 613 385 594 549 638 500 l 532 0 l 714 0 l 801 415 b 622 703 842 607 764 703 z "},"ю":{"ha":1043,"x_min":0,"x_max":0,"o":"m 614 -14 b 1008 346 831 -14 964 138 b 767 708 1053 554 961 708 b 393 418 579 708 451 590 l 265 418 l 325 694 l 143 694 l -4 0 l 178 0 l 235 272 l 364 272 b 614 -14 350 106 449 -14 z m 644 133 b 543 347 549 133 514 214 b 736 561 571 481 642 561 b 833 347 829 561 861 481 b 644 133 804 214 738 133 z "},"я":{"ha":732,"x_min":0,"x_max":0,"o":"m -50 0 l 164 0 l 333 247 l 460 247 l 408 0 l 589 0 l 736 694 l 392 694 b 67 474 193 694 96 608 b 185 268 47 376 99 297 z m 356 378 b 242 469 286 378 226 396 b 394 561 257 543 324 561 l 528 561 l 488 378 z "},"ђ":{"ha":853,"x_min":0,"x_max":0,"o":"m 621 703 b 343 533 507 703 411 646 l 399 794 l 647 794 l 672 913 l 424 913 l 454 1056 l 274 1056 l 243 913 l 121 913 l 96 794 l 218 794 l 47 0 l 229 0 l 301 339 b 511 549 329 472 417 549 b 613 385 593 549 636 500 l 538 35 b 350 -117 513 -79 438 -117 b 265 -114 314 -117 300 -117 l 232 -268 b 360 -275 289 -272 317 -275 b 719 35 550 -275 675 -183 l 800 415 b 621 703 840 607 764 703 z "},"ѣ":{"ha":842,"x_min":0,"x_max":0,"o":"m 569 425 l 393 425 l 424 568 l 618 568 l 646 694 l 450 694 l 525 1056 l 346 1056 l 269 694 l 85 694 l 57 568 l 243 568 l 122 0 l 481 0 b 781 213 660 0 753 81 b 569 425 808 344 724 425 z m 607 213 b 460 118 592 139 532 118 l 326 118 l 367 307 l 500 307 b 607 213 574 307 624 286 z "},"ѳ":{"ha":746,"x_min":0,"x_max":0,"o":"m 299 -14 b 711 346 517 -14 663 114 b 451 708 757 560 649 708 b 35 346 238 708 83 574 b 299 -14 -10 140 106 -14 z m 489 351 b 271 426 417 351 358 426 b 235 424 251 426 242 425 b 421 561 272 511 339 561 b 540 372 514 561 558 490 b 489 351 529 358 514 351 z m 329 133 b 206 328 233 133 186 207 b 249 339 217 336 231 339 b 471 272 311 339 364 272 b 513 275 493 272 503 274 b 329 133 476 185 410 133 z "},"ѵ":{"ha":765,"x_min":0,"x_max":0,"o":"m 188 0 l 408 0 l 656 442 b 800 549 703 528 747 549 l 833 708 b 508 535 671 717 583 693 l 324 164 l 264 694 l 82 694 z "},"ғ":{"ha":678,"x_min":0,"x_max":0,"o":"m 704 549 l 735 694 l 206 694 l 139 379 l 7 379 l -12 263 l 114 263 l 58 0 l 239 0 l 294 263 l 429 263 l 450 379 l 318 379 l 354 549 z "},"җ":{"ha":1200,"x_min":0,"x_max":0,"o":"m 885 344 l 1224 694 l 999 694 l 764 415 l 685 415 l 743 694 l 561 694 l 503 415 l 408 415 l 274 694 l 79 694 l 272 351 l -67 0 l 157 0 l 393 279 l 474 279 l 414 0 l 596 0 l 654 279 l 749 279 l 883 0 l 938 0 l 889 -228 l 1050 -228 l 1131 147 l 996 147 z "},"қ":{"ha":799,"x_min":0,"x_max":0,"o":"m 458 389 l 838 694 l 583 694 l 263 403 l 325 694 l 143 694 l -4 0 l 178 0 l 218 196 l 335 289 l 489 0 l 538 0 l 489 -228 l 650 -228 l 729 147 l 603 147 z "},"ң":{"ha":882,"x_min":0,"x_max":0,"o":"m 688 147 l 804 694 l 624 694 l 565 422 l 267 422 l 324 694 l 143 694 l -4 0 l 176 0 l 236 278 l 535 278 l 475 0 l 619 0 l 571 -228 l 733 -228 l 813 147 z "},"ү":{"ha":738,"x_min":0,"x_max":0,"o":"m 133 -333 l 314 -333 l 375 -47 l 803 694 l 596 694 l 331 181 l 267 694 l 82 694 l 194 -47 z "},"ұ":{"ha":738,"x_min":0,"x_max":0,"o":"m 803 694 l 596 694 l 331 181 l 267 694 l 82 694 l 188 0 l -7 0 l -39 -146 l 174 -146 l 133 -333 l 314 -333 l 354 -146 l 563 -146 l 594 0 l 403 0 z "},"ҳ":{"ha":789,"x_min":0,"x_max":0,"o":"m 829 688 l 829 694 l 593 694 l 397 440 l 292 694 l 92 694 l 90 688 l 249 347 l -60 7 l -61 0 l 172 0 l 364 251 l 478 0 l 526 0 l 478 -228 l 639 -228 l 718 147 l 613 147 l 511 347 z "},"ҷ":{"ha":839,"x_min":0,"x_max":0,"o":"m 644 147 l 761 694 l 581 694 l 515 386 b 372 360 457 365 413 360 b 263 474 289 360 244 386 l 310 694 l 129 694 l 78 451 b 308 211 38 260 182 211 b 486 249 376 211 444 226 l 433 0 l 575 0 l 528 -228 l 689 -228 l 768 147 z "},"һ":{"ha":803,"x_min":0,"x_max":0,"o":"m -4 0 l 179 0 l 251 339 b 463 549 279 472 367 549 b 563 385 544 549 586 500 l 481 0 l 664 0 l 751 415 b 571 703 792 607 714 703 b 293 533 457 703 363 646 l 403 1056 l 221 1056 z "},"ӏ":{"ha":322,"x_min":0,"x_max":0,"o":"m -4 0 l 178 0 l 403 1056 l 221 1056 z "},"ӂ":{"ha":1157,"x_min":0,"x_max":0,"o":"m 678 814 b 931 1033 810 814 894 869 l 826 1033 b 696 914 804 943 758 914 b 619 1033 631 914 601 950 l 518 1033 b 678 814 486 888 563 814 z m 1224 694 l 999 694 l 764 415 l 685 415 l 743 694 l 561 694 l 503 415 l 408 415 l 274 694 l 79 694 l 272 351 l -67 0 l 157 0 l 393 279 l 474 279 l 414 0 l 596 0 l 654 279 l 749 279 l 883 0 l 1078 0 l 885 344 z "},"ӑ":{"ha":800,"x_min":0,"x_max":0,"o":"m 486 814 b 739 1033 618 814 703 869 l 635 1033 b 504 914 613 943 567 914 b 428 1033 439 914 410 950 l 326 1033 b 486 814 294 888 371 814 z m 250 -8 b 503 139 338 -8 432 38 l 474 0 l 656 0 l 803 694 l 621 694 l 590 551 b 385 703 560 653 486 703 b 38 361 229 703 85 583 b 250 -8 -14 115 107 -8 z m 335 139 b 217 346 239 139 188 213 b 424 556 246 481 328 556 b 544 346 521 556 572 474 b 335 139 518 219 432 139 z "},"ӓ":{"ha":800,"x_min":0,"x_max":0,"o":"m 276 850 l 450 850 l 485 1018 l 313 1018 z m 542 850 l 714 850 l 750 1018 l 576 1018 z m 250 -8 b 503 139 338 -8 432 38 l 474 0 l 656 0 l 803 694 l 621 694 l 590 551 b 385 703 560 653 486 703 b 38 361 229 703 85 583 b 250 -8 -14 115 107 -8 z m 335 139 b 217 346 239 139 188 213 b 424 556 246 481 328 556 b 544 346 521 556 572 474 b 335 139 518 219 432 139 z "},"ӕ":{"ha":1217,"x_min":0,"x_max":0,"o":"m 940 708 b 656 579 825 708 726 663 b 435 708 626 667 543 708 b 90 439 281 708 140 632 l 258 439 b 425 568 286 525 340 568 b 524 451 503 568 540 524 l 514 403 b 1 189 267 403 46 399 b 235 -14 -26 60 68 -14 b 550 133 392 -14 493 39 b 803 -14 585 36 672 -14 b 1157 236 958 -14 1088 56 l 997 236 b 821 128 967 163 900 128 b 689 293 728 128 676 193 l 1168 293 b 1185 354 1174 311 1179 332 b 940 708 1235 579 1129 708 z m 1028 410 l 715 410 b 910 567 750 519 824 567 b 1028 410 986 567 1039 517 z m 486 275 b 279 118 468 181 385 118 b 182 199 210 118 171 146 b 490 296 203 296 308 296 z "},"ӗ":{"ha":738,"x_min":0,"x_max":0,"o":"m 463 814 b 715 1033 594 814 679 869 l 611 1033 b 481 914 589 943 543 914 b 404 1033 415 914 386 950 l 303 1033 b 463 814 271 888 347 814 z m 308 -14 b 669 224 478 -14 599 53 l 504 224 b 332 129 465 158 415 129 b 194 290 232 129 179 190 l 689 290 b 704 354 696 315 700 335 b 447 708 750 571 643 708 b 36 351 242 708 82 571 b 308 -14 -12 129 107 -14 z m 221 418 b 418 567 256 511 332 567 b 550 418 506 567 561 514 z "},"ә":{"ha":740,"x_min":0,"x_max":0,"o":"m 293 -14 b 706 340 499 -14 660 125 b 438 708 750 549 632 708 b 64 463 260 708 125 619 l 228 463 b 408 567 265 531 331 567 b 549 399 511 567 563 504 l 50 399 b 31 311 39 360 33 335 b 293 -14 0 121 108 -14 z m 321 128 b 190 283 231 128 181 186 l 522 283 b 321 128 488 188 413 128 z "},"ӝ":{"ha":1157,"x_min":0,"x_max":0,"o":"m 676 1018 l 504 1018 l 468 850 l 642 850 z m 942 1018 l 768 1018 l 733 850 l 906 850 z m 1224 694 l 999 694 l 764 415 l 685 415 l 743 694 l 561 694 l 503 415 l 408 415 l 274 694 l 79 694 l 272 351 l -67 0 l 157 0 l 393 279 l 474 279 l 414 0 l 596 0 l 654 279 l 749 279 l 883 0 l 1078 0 l 885 344 z "},"ӟ":{"ha":675,"x_min":0,"x_max":0,"o":"m 236 850 l 410 850 l 444 1018 l 272 1018 z m 501 850 l 674 850 l 710 1018 l 536 1018 z m 272 -14 b 610 196 468 -14 582 63 b 522 361 628 279 588 338 b 657 506 590 382 642 433 b 426 708 681 618 597 708 b 78 468 250 708 121 633 l 239 468 b 393 571 265 539 314 571 b 488 488 461 571 497 538 b 374 418 476 440 438 418 l 308 418 l 283 299 l 347 299 b 443 215 419 299 456 276 b 299 125 432 163 376 125 b 179 232 224 125 175 156 l 8 232 b 272 -14 -7 40 136 -14 z "},"ӣ":{"ha":815,"x_min":0,"x_max":0,"o":"m 292 867 l 713 867 l 742 1000 l 321 1000 z m -4 0 l 218 0 l 590 458 l 493 0 l 671 0 l 818 694 l 596 694 l 225 235 l 321 694 l 143 694 z "},"ӥ":{"ha":815,"x_min":0,"x_max":0,"o":"m 281 850 l 454 850 l 489 1018 l 317 1018 z m 546 850 l 718 850 l 754 1018 l 581 1018 z m -4 0 l 218 0 l 590 458 l 493 0 l 671 0 l 818 694 l 596 694 l 225 235 l 321 694 l 143 694 z "},"ӧ":{"ha":751,"x_min":0,"x_max":0,"o":"m 264 850 l 438 850 l 472 1018 l 300 1018 z m 529 850 l 701 850 l 738 1018 l 564 1018 z m 301 -14 b 724 439 556 -14 724 185 b 454 708 724 601 621 708 b 28 261 206 708 28 507 b 301 -14 28 99 135 -14 z m 331 131 b 204 275 250 131 204 185 b 424 564 204 411 286 564 b 546 422 504 564 546 511 b 331 131 546 285 467 131 z "},"ө":{"ha":751,"x_min":0,"x_max":0,"o":"m 454 708 b 28 261 206 708 28 507 b 301 -14 28 99 135 -14 b 724 439 556 -14 724 185 b 454 708 724 601 621 708 z m 424 564 b 546 422 504 564 546 511 l 546 410 l 231 410 b 424 564 265 496 332 564 z m 331 131 b 204 275 250 131 204 185 l 204 285 l 519 285 b 331 131 486 199 421 131 z "},"ӫ":{"ha":751,"x_min":0,"x_max":0,"o":"m 472 1018 l 300 1018 l 264 850 l 438 850 z m 738 1018 l 564 1018 l 529 850 l 701 850 z m 454 708 b 28 261 206 708 28 507 b 301 -14 28 99 135 -14 b 724 439 556 -14 724 185 b 454 708 724 601 621 708 z m 424 564 b 546 422 504 564 546 511 l 546 410 l 231 410 b 424 564 265 496 332 564 z m 331 131 b 204 275 250 131 204 185 l 204 285 l 519 285 b 331 131 486 199 421 131 z "},"ӭ":{"ha":722,"x_min":0,"x_max":0,"o":"m 450 1018 l 278 1018 l 242 850 l 415 850 z m 715 1018 l 542 1018 l 507 850 l 679 850 z m 428 708 b 51 436 243 708 103 604 l 218 436 b 403 563 258 521 324 563 b 533 403 496 563 540 503 l 333 403 l 308 283 l 506 283 b 310 133 469 192 399 133 b 176 258 226 133 176 169 l 14 258 b 275 -14 -1 93 113 -14 b 688 347 513 -14 644 143 b 428 708 731 551 631 708 z "},"ӯ":{"ha":764,"x_min":0,"x_max":0,"o":"m 253 867 l 674 867 l 703 1000 l 282 1000 z m 25 -333 b 369 -87 157 -333 263 -272 l 829 694 l 617 694 l 350 183 l 271 694 l 82 694 l 224 -6 l 186 -69 b 17 -174 150 -133 90 -174 b -75 -169 -4 -174 -40 -174 l -110 -329 b 25 -333 -58 -333 -26 -333 z "},"ӱ":{"ha":764,"x_min":0,"x_max":0,"o":"m 243 850 l 417 850 l 451 1018 l 279 1018 z m 508 850 l 681 850 l 717 1018 l 543 1018 z m 25 -333 b 369 -87 157 -333 263 -272 l 829 694 l 617 694 l 350 183 l 271 694 l 82 694 l 224 -6 l 186 -69 b 17 -174 150 -133 90 -174 b -75 -169 -4 -174 -40 -174 l -110 -329 b 25 -333 -58 -333 -26 -333 z "},"ӳ":{"ha":764,"x_min":0,"x_max":0,"o":"m 282 829 l 414 829 l 607 1039 l 457 1039 z m 490 829 l 624 829 l 818 1039 l 665 1039 z m 25 -333 b 369 -87 157 -333 263 -272 l 829 694 l 617 694 l 350 183 l 271 694 l 82 694 l 224 -6 l 186 -69 b 17 -174 150 -133 90 -174 b -75 -169 -4 -174 -40 -174 l -110 -329 b 25 -333 -58 -333 -26 -333 z "},"ӵ":{"ha":757,"x_min":0,"x_max":0,"o":"m 257 850 l 431 850 l 465 1018 l 293 1018 z m 522 850 l 694 850 l 731 1018 l 557 1018 z m 433 0 l 614 0 l 761 694 l 581 694 l 515 386 b 372 360 457 365 413 360 b 263 474 289 360 244 386 l 310 694 l 129 694 l 78 451 b 308 211 38 260 182 211 b 486 249 376 211 444 226 z "},"ԝ":{"ha":1153,"x_min":0,"x_max":0,"o":"m 154 0 l 369 0 l 596 433 l 649 0 l 876 0 l 1218 694 l 1015 694 l 788 179 l 738 694 l 554 694 l 296 179 l 267 694 l 82 694 z "},"Δ":{"ha":1004,"x_min":0,"x_max":0,"o":"m -21 0 l 878 0 l 911 161 l 732 965 l 533 965 l 14 161 z m 210 160 l 597 769 l 725 160 z "},"Ω":{"ha":992,"x_min":0,"x_max":0,"o":"m 971 493 b 632 976 1031 774 904 976 b 83 493 335 976 143 774 b 154 150 54 356 78 229 l 13 150 l -21 0 l 340 0 l 354 65 l 356 65 l 363 100 l 374 150 l 372 150 l 376 169 b 267 493 268 204 232 328 b 600 822 308 685 429 822 b 786 493 768 822 828 685 b 535 169 751 324 664 201 l 513 65 l 499 0 l 860 0 l 893 150 l 760 150 b 971 493 867 226 940 350 z "},"μ":{"ha":918,"x_min":0,"x_max":0,"o":"m -68 -283 l 111 -283 l 185 68 b 328 -8 206 13 267 -8 b 574 122 413 -8 503 26 b 704 0 583 39 629 0 b 774 4 724 0 749 1 l 804 143 b 722 231 747 142 704 147 l 821 694 l 638 694 l 567 365 b 346 146 535 215 438 146 b 239 325 272 146 211 188 l 318 694 l 139 694 z "},"π":{"ha":982,"x_min":0,"x_max":0,"o":"m 833 546 l 957 546 l 989 694 l 143 694 l 113 546 l 236 546 l 121 0 l 304 0 l 419 546 l 650 546 l 600 307 b 842 -1 543 39 665 -1 l 875 163 b 785 318 804 163 754 171 z "},"⓿":{"ha":1189,"x_min":0,"x_max":0,"o":"m 624 -35 b 1140 485 908 -35 1140 196 b 624 1001 1140 771 908 1001 b 107 485 338 1001 107 771 b 624 -35 107 196 338 -35 z m 565 203 b 396 482 460 203 354 286 b 685 764 438 676 556 764 b 850 482 801 764 892 678 b 565 203 808 286 694 203 z m 586 304 b 742 482 658 304 717 364 b 663 663 767 601 735 663 b 504 482 589 663 529 601 b 586 304 478 364 513 304 z "},"❶":{"ha":1189,"x_min":0,"x_max":0,"o":"m 624 -35 b 1140 485 908 -35 1140 196 b 624 1001 1140 771 908 1001 b 107 485 338 1001 107 771 b 624 -35 107 196 338 -35 z m 390 224 l 410 318 l 564 318 l 619 576 b 447 529 590 544 517 529 l 471 633 b 675 774 576 636 647 671 l 768 774 l 672 318 l 793 318 l 772 224 z "},"❷":{"ha":1189,"x_min":0,"x_max":0,"o":"m 624 -35 b 1140 485 908 -35 1140 196 b 624 1001 1140 771 908 1001 b 107 485 338 1001 107 771 b 624 -35 107 196 338 -35 z m 363 221 l 383 324 l 599 435 b 767 586 699 486 754 526 b 689 675 778 639 749 675 b 551 574 628 675 574 638 l 451 582 b 710 775 486 696 589 775 b 872 588 825 775 897 700 b 668 376 851 492 765 428 l 578 325 l 814 325 l 793 221 z "},"❸":{"ha":1189,"x_min":0,"x_max":0,"o":"m 624 -35 b 1140 485 908 -35 1140 196 b 624 1001 1140 771 908 1001 b 107 485 338 1001 107 771 b 624 -35 107 196 338 -35 z m 576 204 b 374 378 485 204 374 260 l 482 389 b 593 297 481 328 531 297 b 718 374 661 297 708 331 b 624 449 729 425 690 449 l 599 449 l 618 538 l 643 538 b 750 603 711 538 742 563 b 675 669 756 636 732 669 b 546 583 614 669 568 638 l 444 593 b 696 763 482 696 572 763 b 857 608 808 763 875 689 b 735 493 843 543 793 506 b 822 369 792 483 836 438 b 576 204 801 274 719 204 z "},"❹":{"ha":1189,"x_min":0,"x_max":0,"o":"m 624 -35 b 1140 485 908 -35 1140 196 b 624 1001 1140 771 908 1001 b 107 485 338 1001 107 771 b 624 -35 107 196 338 -35 z m 600 221 l 626 343 l 326 343 l 346 435 l 676 771 l 825 771 l 753 435 l 833 435 l 814 343 l 735 343 l 708 221 z m 475 435 l 644 435 l 696 667 z "},"❺":{"ha":1189,"x_min":0,"x_max":0,"o":"m 624 -35 b 1140 485 908 -35 1140 196 b 624 1001 1140 771 908 1001 b 107 485 338 1001 107 771 b 624 -35 107 196 338 -35 z m 571 206 b 382 382 458 206 376 275 l 486 392 b 585 294 483 328 525 294 b 715 393 656 294 701 335 b 629 490 728 454 692 490 b 500 440 583 490 539 472 l 411 486 l 511 760 l 857 760 l 838 667 l 579 667 l 522 508 b 675 569 572 556 622 569 b 819 392 781 569 842 497 b 571 206 796 282 704 206 z "},"❻":{"ha":1189,"x_min":0,"x_max":0,"o":"m 624 -35 b 1140 485 908 -35 1140 196 b 624 1001 1140 771 908 1001 b 107 485 338 1001 107 771 b 624 -35 107 196 338 -35 z m 569 206 b 393 465 457 206 356 285 b 697 764 440 685 586 764 b 853 600 771 764 847 724 l 753 592 b 674 675 753 660 710 675 b 500 503 613 675 539 625 b 657 571 538 546 600 571 b 814 388 778 571 836 492 b 569 206 792 279 699 206 z m 583 294 b 711 392 650 294 700 336 b 625 489 724 449 692 489 b 492 394 556 489 503 449 b 583 294 481 340 513 294 z "},"❼":{"ha":1189,"x_min":0,"x_max":0,"o":"m 624 -35 b 1140 485 908 -35 1140 196 b 624 1001 1140 771 908 1001 b 107 485 338 1001 107 771 b 624 -35 107 196 338 -35 z m 474 203 b 769 660 522 422 631 546 l 433 660 l 453 753 l 867 753 l 872 647 b 586 203 707 522 633 417 z "},"❽":{"ha":1189,"x_min":0,"x_max":0,"o":"m 624 -35 b 1140 485 908 -35 1140 196 b 624 1001 1140 771 908 1001 b 107 485 338 1001 107 771 b 624 -35 107 196 338 -35 z m 565 208 b 378 367 429 208 360 283 b 519 500 394 444 457 485 b 450 615 475 513 438 553 b 685 767 468 700 554 767 b 851 615 800 767 869 700 b 735 500 839 551 785 511 b 819 367 789 483 836 443 b 565 208 801 282 728 208 z m 635 538 b 746 610 700 538 738 569 b 665 681 754 646 733 681 b 553 610 597 681 561 646 b 635 538 544 569 571 538 z m 583 294 b 717 375 664 294 708 332 b 618 456 726 422 696 456 b 483 375 539 456 493 422 b 583 294 474 332 504 294 z "},"❾":{"ha":1189,"x_min":0,"x_max":0,"o":"m 624 -35 b 1140 485 908 -35 1140 196 b 624 1001 1140 771 908 1001 b 107 485 338 1001 107 771 b 624 -35 107 196 338 -35 z m 563 207 b 397 367 490 207 399 257 l 497 376 b 585 296 500 313 543 296 b 750 465 649 296 717 339 b 597 401 710 418 651 401 b 439 578 482 401 417 476 b 689 765 461 689 558 765 b 854 507 794 765 892 692 b 563 207 804 278 690 207 z m 631 483 b 756 578 694 483 743 524 b 669 672 767 633 735 672 b 544 578 603 672 557 633 b 631 483 532 524 564 483 z "},"⓪":{"ha":1185,"x_min":0,"x_max":0,"o":"m 622 -32 b 1136 485 906 -32 1136 197 b 622 999 1136 769 906 999 b 107 485 338 999 107 769 b 622 -32 107 197 338 -32 z m 622 51 b 190 485 383 51 190 244 b 622 915 190 722 383 915 b 1053 485 860 915 1053 722 b 622 51 1053 244 860 51 z m 565 203 b 850 482 694 203 808 286 b 685 764 892 678 801 764 b 396 482 556 764 438 676 b 565 203 354 286 460 203 z m 586 304 b 504 482 513 304 478 364 b 663 663 529 601 589 663 b 742 482 735 663 767 601 b 586 304 717 364 658 304 z "},"①":{"ha":1185,"x_min":0,"x_max":0,"o":"m 622 -32 b 1136 485 906 -32 1136 197 b 622 999 1136 769 906 999 b 107 485 338 999 107 769 b 622 -32 107 197 338 -32 z m 622 51 b 190 485 383 51 190 244 b 622 915 190 722 383 915 b 1053 485 860 915 1053 722 b 622 51 1053 244 860 51 z m 389 224 l 772 224 l 793 318 l 672 318 l 768 774 l 675 774 b 471 633 646 671 576 636 l 447 529 b 619 576 515 529 589 544 l 564 318 l 410 318 z "},"②":{"ha":1185,"x_min":0,"x_max":0,"o":"m 622 -32 b 1136 485 906 -32 1136 197 b 622 999 1136 769 906 999 b 107 485 338 999 107 769 b 622 -32 107 197 338 -32 z m 622 51 b 190 485 383 51 190 244 b 622 915 190 722 383 915 b 1053 485 860 915 1053 722 b 622 51 1053 244 860 51 z m 363 221 l 793 221 l 814 325 l 576 325 l 668 376 b 872 588 765 428 851 492 b 710 775 897 700 825 775 b 451 582 589 775 486 696 l 551 574 b 689 675 574 638 628 675 b 767 586 749 675 778 639 b 599 435 754 526 699 486 l 383 324 z "},"③":{"ha":1185,"x_min":0,"x_max":0,"o":"m 622 -32 b 1136 485 906 -32 1136 197 b 622 999 1136 769 906 999 b 107 485 338 999 107 769 b 622 -32 107 197 338 -32 z m 622 51 b 190 485 383 51 190 244 b 622 915 190 722 383 915 b 1053 485 860 915 1053 722 b 622 51 1053 244 860 51 z m 576 204 b 822 369 719 204 801 274 b 735 493 836 438 792 483 b 857 608 793 506 843 543 b 696 763 875 689 808 763 b 444 593 572 763 482 696 l 546 583 b 675 669 568 638 614 669 b 750 603 732 669 756 636 b 643 538 742 563 711 538 l 618 538 l 599 449 l 624 449 b 718 374 690 449 729 425 b 593 297 708 331 661 297 b 482 389 531 297 481 328 l 374 378 b 576 204 374 260 485 204 z "},"④":{"ha":1185,"x_min":0,"x_max":0,"o":"m 622 -32 b 1136 485 906 -32 1136 197 b 622 999 1136 769 906 999 b 107 485 338 999 107 769 b 622 -32 107 197 338 -32 z m 622 51 b 190 485 383 51 190 244 b 622 915 190 722 383 915 b 1053 485 858 915 1053 722 b 622 51 1053 244 860 51 z m 600 221 l 708 221 l 735 343 l 814 343 l 833 435 l 753 435 l 825 771 l 676 771 l 346 435 l 326 343 l 626 343 z m 475 435 l 696 667 l 644 435 z "},"⑤":{"ha":1185,"x_min":0,"x_max":0,"o":"m 622 -32 b 1136 485 906 -32 1136 197 b 622 999 1136 769 906 999 b 107 485 338 999 107 769 b 622 -32 107 197 338 -32 z m 622 51 b 190 485 383 51 190 244 b 622 915 190 722 383 915 b 1053 485 858 915 1053 722 b 622 51 1053 244 860 51 z m 571 206 b 819 392 704 206 796 282 b 675 569 842 497 781 569 b 522 508 622 569 572 556 l 579 667 l 838 667 l 857 760 l 511 760 l 411 486 l 500 440 b 629 490 539 472 583 490 b 715 393 692 490 728 454 b 585 294 701 335 656 294 b 486 392 525 294 483 328 l 382 382 b 571 206 376 275 458 206 z "},"⑥":{"ha":1185,"x_min":0,"x_max":0,"o":"m 622 -32 b 1136 485 906 -32 1136 197 b 622 999 1136 769 906 999 b 107 485 338 999 107 769 b 622 -32 107 197 338 -32 z m 622 51 b 190 485 383 51 190 244 b 622 915 190 722 383 915 b 1053 485 860 915 1053 722 b 622 51 1053 244 860 51 z m 569 206 b 814 388 699 206 792 279 b 657 571 836 492 778 571 b 500 503 600 571 538 546 b 674 675 539 625 613 675 b 753 592 710 675 753 660 l 853 600 b 697 764 847 724 771 764 b 393 465 586 764 440 685 b 569 206 356 285 457 206 z m 583 294 b 492 394 513 294 481 340 b 625 489 503 449 556 489 b 711 392 692 489 724 449 b 583 294 700 336 650 294 z "},"⑦":{"ha":1185,"x_min":0,"x_max":0,"o":"m 622 -32 b 1136 485 906 -32 1136 197 b 622 999 1136 769 906 999 b 107 485 338 999 107 769 b 622 -32 107 197 338 -32 z m 622 51 b 190 485 383 51 190 244 b 622 915 190 722 383 915 b 1053 485 860 915 1053 722 b 622 51 1053 244 860 51 z m 474 203 l 586 203 b 872 647 633 417 707 522 l 867 753 l 453 753 l 433 660 l 769 660 b 474 203 631 546 522 422 z "},"⑧":{"ha":1185,"x_min":0,"x_max":0,"o":"m 622 -32 b 1136 485 906 -32 1136 197 b 622 999 1136 769 906 999 b 107 485 338 999 107 769 b 622 -32 107 197 338 -32 z m 622 51 b 190 485 383 51 190 244 b 622 915 190 722 383 915 b 1053 485 858 915 1053 722 b 622 51 1053 244 860 51 z m 565 208 b 819 367 728 208 801 282 b 735 500 836 443 789 485 b 851 615 785 513 839 551 b 685 767 869 700 800 767 b 450 615 554 767 468 700 b 519 500 438 553 475 513 b 378 367 457 485 394 444 b 565 208 360 283 435 208 z m 635 538 b 553 610 571 538 544 569 b 665 681 561 646 597 681 b 746 610 733 681 754 646 b 635 538 739 569 700 538 z m 583 294 b 483 375 504 294 474 332 b 618 456 492 422 539 456 b 717 375 696 456 726 422 b 583 294 707 332 664 294 z "},"⑨":{"ha":1185,"x_min":0,"x_max":0,"o":"m 622 -32 b 1136 485 906 -32 1136 197 b 622 999 1136 769 906 999 b 107 485 338 999 107 769 b 622 -32 107 197 338 -32 z m 622 51 b 190 485 383 51 190 244 b 622 915 190 722 383 915 b 1053 485 860 915 1053 722 b 622 51 1053 244 860 51 z m 563 207 b 854 507 690 207 804 278 b 689 765 893 692 794 765 b 439 578 558 765 461 689 b 597 401 418 476 482 401 b 750 465 651 401 710 418 b 585 296 717 339 649 296 b 497 376 543 296 500 313 l 397 367 b 563 207 399 257 490 207 z m 631 483 b 544 578 564 483 532 524 b 669 672 557 633 603 672 b 756 578 735 672 767 633 b 631 483 744 524 694 483 z "},"₀":{"ha":553,"x_min":0,"x_max":0,"o":"m 143 -282 b 428 -3 272 -282 388 -199 b 263 279 471 193 388 279 b -25 -3 135 279 17 192 b 143 -282 -67 -199 28 -282 z m 164 -182 b 82 -3 92 -182 56 -121 b 240 179 106 117 167 179 b 322 -3 313 179 346 117 b 164 -182 296 -121 236 -182 z "},"₁":{"ha":492,"x_min":0,"x_max":0,"o":"m -72 -278 l 310 -278 l 331 -181 l 213 -181 l 308 272 l 214 272 b 8 131 186 172 110 133 l -11 43 b 161 90 57 43 132 60 l 103 -181 l -53 -181 z "},"₂":{"ha":540,"x_min":0,"x_max":0,"o":"m -85 -278 l 346 -278 l 367 -182 l 117 -182 l 225 -122 b 428 89 322 -68 408 -7 b 263 276 453 201 390 276 b 4 83 138 276 39 197 l 107 76 b 242 176 128 139 181 176 b 318 88 301 176 331 139 b 161 -62 307 29 243 -18 l -65 -186 z "},"₃":{"ha":529,"x_min":0,"x_max":0,"o":"m 142 -282 b 385 -117 264 -282 365 -218 b 304 4 397 -57 363 -12 b 419 122 371 21 408 68 b 258 276 439 207 365 276 b 8 107 138 276 42 214 l 108 97 b 238 183 131 151 178 183 b 313 117 289 183 321 153 b 206 51 303 71 267 51 l 181 51 l 161 -37 l 186 -37 b 281 -112 254 -37 292 -62 b 154 -189 271 -160 219 -189 b 44 -99 90 -189 43 -154 l -62 -108 b 142 -282 -67 -211 18 -282 z "},"₄":{"ha":561,"x_min":0,"x_max":0,"o":"m 201 -278 l 311 -278 l 338 -156 l 417 -156 l 436 -64 l 357 -65 l 428 272 l 283 272 l -53 -65 l -72 -156 l 226 -156 z m 71 -64 l 297 171 l 247 -64 z "},"₅":{"ha":543,"x_min":0,"x_max":0,"o":"m 154 -282 b 403 -96 288 -282 379 -206 b 258 82 425 11 364 82 b 107 31 207 82 160 69 l 164 179 l 421 179 l 440 272 l 94 272 l -4 -1 l 83 -47 b 213 3 122 -15 167 3 b 299 -94 276 3 313 -33 b 168 -193 286 -151 239 -193 b 69 -96 108 -193 67 -160 l -35 -106 b 154 -282 -39 -212 42 -282 z "},"₆":{"ha":542,"x_min":0,"x_max":0,"o":"m 154 -282 b 399 -100 283 -282 376 -208 b 242 85 421 4 363 85 b 86 15 185 85 124 60 b 258 188 122 136 197 188 b 338 104 294 188 338 174 l 438 113 b 282 276 432 236 356 276 b -22 -21 171 276 25 199 b 154 -282 -60 -203 42 -282 z m 168 -193 b 76 -92 97 -193 64 -146 b 210 3 88 -37 140 3 b 296 -96 276 3 307 -39 b 168 -193 285 -150 235 -193 z "},"₇":{"ha":508,"x_min":0,"x_max":0,"o":"m 46 -278 l 158 -278 b 444 167 206 -64 279 42 l 439 272 l 25 272 l 6 179 l 340 179 b 46 -278 203 65 94 -58 z "},"₈":{"ha":551,"x_min":0,"x_max":0,"o":"m 142 -282 b 397 -124 306 -282 379 -208 b 315 8 413 -47 365 -7 b 429 125 361 21 415 61 b 261 276 446 210 376 276 b 28 125 131 276 44 210 b 93 10 15 63 53 22 b -46 -124 35 -6 -28 -46 b 142 -282 -64 -207 6 -282 z m 213 47 b 131 119 149 47 122 79 b 243 190 138 156 175 190 b 324 119 311 190 332 156 b 213 47 315 79 278 47 z m 161 -196 b 60 -115 82 -196 50 -158 b 196 -35 71 -68 117 -35 b 293 -115 274 -35 303 -68 b 161 -196 285 -158 240 -196 z "},"₉":{"ha":535,"x_min":0,"x_max":0,"o":"m 117 -282 b 408 19 244 -282 361 -211 b 244 276 447 204 350 276 b -7 89 113 276 17 200 b 151 -87 -28 -12 36 -87 b 306 -18 206 -87 265 -69 b 140 -192 272 -149 203 -192 b 51 -112 97 -192 56 -176 l -49 -121 b 117 -282 -47 -232 44 -282 z m 185 -4 b 99 89 118 -4 86 36 b 225 183 111 144 158 183 b 310 89 289 183 322 144 b 185 -4 299 36 249 -4 z "},"⁰":{"ha":553,"x_min":0,"x_max":0,"o":"m 314 522 b 599 801 443 522 558 606 b 433 1083 642 997 558 1083 b 146 801 306 1083 188 996 b 314 522 104 606 199 522 z m 335 622 b 253 801 263 622 226 683 b 411 983 276 921 338 983 b 493 801 483 983 517 921 b 335 622 467 683 407 622 z "},"¹":{"ha":492,"x_min":0,"x_max":0,"o":"m 99 526 l 481 526 l 501 624 l 383 624 l 479 1076 l 385 1076 b 179 935 357 976 281 938 l 160 847 b 332 894 228 847 303 864 l 274 624 l 118 624 z "},"²":{"ha":540,"x_min":0,"x_max":0,"o":"m 86 526 l 517 526 l 538 622 l 288 622 l 396 682 b 599 893 493 736 579 797 b 433 1081 624 1006 561 1081 b 175 888 308 1081 210 1001 l 278 881 b 413 981 299 943 351 981 b 489 892 472 981 501 943 b 332 742 478 833 414 786 l 106 618 z "},"³":{"ha":529,"x_min":0,"x_max":0,"o":"m 313 522 b 556 688 435 522 536 586 b 475 808 568 747 533 792 b 590 926 542 825 579 872 b 429 1081 610 1011 536 1081 b 179 911 308 1081 213 1018 l 279 901 b 408 988 301 956 349 988 b 483 921 460 988 492 957 b 376 856 474 875 438 856 l 351 856 l 332 767 l 357 767 b 451 692 425 767 463 742 b 325 615 442 644 390 615 b 215 706 261 615 214 650 l 108 696 b 313 522 104 593 189 522 z "},"⁴":{"ha":561,"x_min":0,"x_max":0,"o":"m 372 526 l 482 526 l 508 649 l 588 649 l 607 740 l 528 739 l 599 1076 l 454 1076 l 118 739 l 99 649 l 397 649 z m 242 740 l 468 975 l 418 740 z "},"⁵":{"ha":543,"x_min":0,"x_max":0,"o":"m 325 522 b 574 708 458 522 550 599 b 429 886 596 815 535 886 b 278 835 378 886 331 874 l 335 983 l 592 983 l 611 1076 l 265 1076 l 167 803 l 254 757 b 383 807 293 789 338 807 b 469 710 447 807 483 771 b 339 611 457 653 410 611 b 240 708 279 611 238 644 l 136 699 b 325 522 132 592 213 522 z "},"⁶":{"ha":542,"x_min":0,"x_max":0,"o":"m 325 522 b 569 704 454 522 547 596 b 413 889 592 808 533 889 b 257 819 356 889 294 864 b 429 992 293 940 368 992 b 508 908 465 992 508 978 l 608 917 b 453 1081 603 1040 526 1081 b 149 783 342 1081 196 1003 b 325 522 111 601 213 522 z m 339 611 b 247 713 268 611 235 658 b 381 807 258 767 311 807 b 467 708 447 807 478 765 b 339 611 456 654 406 611 z "},"⁷":{"ha":508,"x_min":0,"x_max":0,"o":"m 217 526 l 329 526 b 615 971 376 740 450 846 l 610 1076 l 196 1076 l 176 983 l 511 983 b 217 526 374 869 265 746 z "},"⁸":{"ha":551,"x_min":0,"x_max":0,"o":"m 313 522 b 568 681 476 522 550 596 b 486 813 583 757 536 797 b 600 929 532 825 586 865 b 432 1081 617 1014 547 1081 b 199 929 301 1081 215 1014 b 264 814 186 867 224 826 b 125 681 206 799 143 758 b 313 522 107 597 176 522 z m 383 851 b 301 924 319 851 293 883 b 414 994 308 960 346 994 b 494 924 482 994 503 960 b 383 851 486 883 449 851 z m 332 608 b 231 689 253 608 221 646 b 367 769 242 736 288 769 b 464 689 444 769 474 736 b 332 608 456 646 411 608 z "},"⁹":{"ha":535,"x_min":0,"x_max":0,"o":"m 288 522 b 579 824 415 522 532 593 b 415 1081 618 1008 521 1081 b 164 893 283 1081 188 1004 b 322 717 143 792 207 717 b 476 786 376 717 436 735 b 311 613 443 656 374 613 b 222 692 268 613 226 628 l 122 683 b 288 522 124 572 215 522 z m 356 800 b 269 893 289 800 257 840 b 396 988 282 949 329 988 b 481 893 460 988 493 949 b 356 800 469 840 419 800 z "},"⁄":{"ha":250,"x_min":0,"x_max":0,"o":"m -250 -42 l -125 -42 l 500 1007 l 375 1007 z "},"½":{"ha":1311,"x_min":0,"x_max":0,"o":"m 311 -42 l 436 -42 l 1061 1007 l 936 1007 z m 75 415 l 457 415 l 478 513 l 360 513 l 456 965 l 361 965 b 156 824 333 865 257 826 l 136 736 b 308 783 204 736 279 753 l 250 513 l 94 513 z m 744 -1 l 1175 -1 l 1196 94 l 946 94 l 1054 154 b 1257 365 1151 208 1238 269 b 1092 553 1282 478 1219 553 b 833 360 967 553 868 474 l 936 353 b 1071 453 957 415 1010 453 b 1147 364 1131 453 1160 415 b 990 214 1136 306 1072 258 l 764 90 z "},"¼":{"ha":1325,"x_min":0,"x_max":0,"o":"m 311 -42 l 436 -42 l 1061 1007 l 936 1007 z m 75 415 l 457 415 l 478 513 l 360 513 l 456 965 l 361 965 b 156 824 333 865 257 826 l 136 736 b 308 783 204 736 279 753 l 250 513 l 94 513 z m 1024 -1 l 1133 -1 l 1160 121 l 1239 121 l 1258 213 l 1179 211 l 1250 549 l 1106 549 l 769 211 l 750 121 l 1049 121 z m 893 213 l 1119 447 l 1069 213 z "},"¾":{"ha":1318,"x_min":0,"x_max":0,"o":"m 303 -42 l 428 -42 l 1053 1007 l 928 1007 z m 289 411 b 532 576 411 411 513 475 b 451 697 544 636 510 681 b 567 815 518 714 556 761 b 406 969 586 900 513 969 b 156 800 285 969 189 907 l 256 790 b 385 876 278 844 325 876 b 460 810 436 876 468 846 b 353 744 450 764 414 744 l 328 744 l 308 656 l 333 656 b 428 581 401 656 439 631 b 301 504 418 533 367 504 b 192 594 238 504 190 539 l 85 585 b 289 411 81 482 165 411 z m 1017 -1 l 1126 -1 l 1153 121 l 1232 121 l 1251 213 l 1172 211 l 1243 549 l 1099 549 l 763 211 l 743 121 l 1042 121 z m 886 213 l 1113 447 l 1063 213 z "},"⅛":{"ha":1340,"x_min":0,"x_max":0,"o":"m 311 -42 l 436 -42 l 1061 1007 l 936 1007 z m 75 415 l 457 415 l 478 513 l 360 513 l 456 965 l 361 965 b 156 824 333 865 257 826 l 136 736 b 308 783 204 736 279 753 l 250 513 l 94 513 z m 989 -6 b 1244 153 1153 -6 1226 68 b 1163 285 1260 229 1213 269 b 1276 401 1208 297 1263 338 b 1108 553 1293 486 1224 553 b 875 401 978 553 892 486 b 940 286 863 339 900 299 b 801 153 882 271 819 231 b 989 -6 783 69 853 -6 z m 1060 324 b 978 396 996 324 969 356 b 1090 467 985 432 1022 467 b 1171 396 1158 467 1179 432 b 1060 324 1163 356 1125 324 z m 1008 81 b 907 161 929 81 897 118 b 1043 242 918 208 964 242 b 1140 161 1121 242 1150 208 b 1008 81 1132 118 1088 81 z "},"⅜":{"ha":1333,"x_min":0,"x_max":0,"o":"m 303 -42 l 428 -42 l 1053 1007 l 928 1007 z m 289 411 b 532 576 411 411 513 475 b 451 697 544 636 510 681 b 567 815 518 714 556 761 b 406 969 586 900 513 969 b 156 800 285 969 189 907 l 256 790 b 385 876 278 844 325 876 b 460 810 436 876 468 846 b 353 744 450 764 414 744 l 328 744 l 308 656 l 333 656 b 428 581 401 656 439 631 b 301 504 418 533 367 504 b 192 594 238 504 190 539 l 85 585 b 289 411 81 482 165 411 z m 982 -6 b 1238 153 1146 -6 1219 68 b 1156 285 1253 229 1206 269 b 1269 401 1201 297 1256 338 b 1101 553 1286 486 1217 553 b 868 401 971 553 885 486 b 933 286 856 339 893 299 b 794 153 875 271 813 231 b 982 -6 776 69 846 -6 z m 1053 324 b 971 396 989 324 963 356 b 1083 467 978 432 1015 467 b 1164 396 1151 467 1172 432 b 1053 324 1156 356 1118 324 z m 1001 81 b 900 161 922 81 890 118 b 1036 242 911 208 957 242 b 1133 161 1114 242 1143 208 b 1001 81 1125 118 1081 81 z "},"⅝":{"ha":1344,"x_min":0,"x_max":0,"o":"m 314 -42 l 439 -42 l 1064 1007 l 939 1007 z m 301 411 b 550 597 435 411 526 488 b 406 775 572 704 511 775 b 254 724 354 775 307 763 l 311 872 l 568 872 l 588 965 l 242 965 l 143 692 l 231 646 b 360 696 269 678 314 696 b 446 599 424 696 460 660 b 315 500 433 542 386 500 b 217 597 256 500 214 533 l 113 588 b 301 411 108 481 189 411 z m 993 -6 b 1249 153 1157 -6 1231 68 b 1167 285 1264 229 1217 269 b 1281 401 1213 297 1267 338 b 1113 553 1297 486 1228 553 b 879 401 982 553 896 486 b 944 286 867 339 904 299 b 806 153 886 271 824 231 b 993 -6 788 69 857 -6 z m 1064 324 b 982 396 1000 324 974 356 b 1094 467 989 432 1026 467 b 1175 396 1163 467 1183 432 b 1064 324 1167 356 1129 324 z m 1013 81 b 911 161 933 81 901 118 b 1047 242 922 208 968 242 b 1144 161 1125 242 1154 208 b 1013 81 1136 118 1092 81 z "},"⅞":{"ha":1289,"x_min":0,"x_max":0,"o":"m 258 -42 l 383 -42 l 1008 1007 l 883 1007 z m 193 415 l 306 415 b 592 860 353 629 426 735 l 586 965 l 172 965 l 153 872 l 488 872 b 193 415 350 758 242 635 z m 938 -6 b 1193 153 1101 -6 1175 68 b 1111 285 1208 229 1161 269 b 1225 401 1157 297 1211 338 b 1057 553 1242 486 1172 553 b 824 401 926 553 840 486 b 889 286 811 339 849 299 b 750 153 831 271 768 231 b 938 -6 732 69 801 -6 z m 1008 324 b 926 396 944 324 918 356 b 1039 467 933 432 971 467 b 1119 396 1107 467 1128 432 b 1008 324 1111 356 1074 324 z m 957 81 b 856 161 878 81 846 118 b 992 242 867 208 913 242 b 1089 161 1069 242 1099 208 b 957 81 1081 118 1036 81 z "},".":{"ha":358,"x_min":0,"x_max":0,"o":"m 3 -11 l 203 -11 l 242 176 l 43 176 z "},",":{"ha":375,"x_min":0,"x_max":0,"o":"m -56 -186 l 106 -186 l 257 176 l 68 176 z "},":":{"ha":351,"x_min":0,"x_max":0,"o":"m 114 506 l 307 506 l 347 694 l 154 694 z m 4 -7 l 197 -7 l 238 182 l 44 182 z "},";":{"ha":374,"x_min":0,"x_max":0,"o":"m 140 506 l 332 506 l 372 694 l 181 694 z m -56 -186 l 106 -186 l 264 186 l 71 186 z "},"…":{"ha":1000,"x_min":0,"x_max":0,"o":"m 3 -11 l 201 -11 l 242 176 l 43 176 z m 325 -11 l 524 -11 l 563 176 l 364 176 z m 646 -11 l 844 -11 l 885 176 l 686 176 z "},"!":{"ha":358,"x_min":0,"x_max":0,"o":"m 82 288 l 247 288 l 404 965 l 218 965 z m 3 -11 l 203 -11 l 246 186 l 46 186 z "},"¡":{"ha":360,"x_min":0,"x_max":0,"o":"m 111 497 l 311 497 l 353 694 l 154 694 z m -56 -282 l 144 -282 l 272 368 l 94 368 z "},"?":{"ha":831,"x_min":0,"x_max":0,"o":"m 311 264 l 483 264 b 824 678 524 413 774 443 b 551 972 860 844 747 972 b 125 631 351 972 183 847 l 303 631 b 518 807 336 747 428 807 b 643 671 613 807 660 744 b 311 264 603 485 358 483 z m 239 -11 l 439 -11 l 478 176 l 278 176 z "},"¿":{"ha":831,"x_min":0,"x_max":0,"o":"m 350 507 l 550 507 l 589 694 l 389 694 z m 276 -289 b 703 53 476 -289 644 -164 l 525 53 b 310 -124 492 -64 400 -124 b 185 13 215 -124 168 -62 b 517 419 224 197 469 200 l 346 419 b 4 6 304 271 56 240 b 276 -289 -31 -161 81 -289 z "},"·":{"ha":357,"x_min":0,"x_max":0,"o":"m 82 361 l 281 361 l 322 558 l 122 558 z "},"•":{"ha":500,"x_min":0,"x_max":0,"o":"m 217 189 b 418 356 308 189 399 264 b 286 522 438 447 379 522 b 85 356 196 522 104 447 b 217 189 65 264 125 189 z "},"*":{"ha":457,"x_min":0,"x_max":0,"o":"m 253 697 l 331 822 l 356 699 l 446 746 l 386 849 l 514 833 l 533 922 l 393 906 l 497 1014 l 431 1058 l 353 936 l 326 1058 l 239 1013 l 299 907 l 169 922 l 150 832 l 290 851 l 182 742 z "},"#":{"ha":1261,"x_min":0,"x_max":0,"o":"m 1160 449 l 1194 600 l 974 600 l 1031 854 l 874 854 l 817 600 l 586 600 l 643 854 l 486 854 l 429 600 l 181 600 l 147 449 l 394 449 l 350 253 l 101 253 l 68 101 l 317 101 l 263 -139 l 419 -139 l 474 101 l 704 101 l 650 -139 l 807 -139 l 861 101 l 1081 101 l 1115 253 l 894 253 l 939 449 z m 738 253 l 507 253 l 551 449 l 782 449 z "},"/":{"ha":490,"x_min":0,"x_max":0,"o":"m -104 -208 l 63 -208 l 622 1035 l 456 1035 z "},"\\":{"ha":476,"x_min":0,"x_max":0,"o":"m 192 -208 l 344 -208 l 313 1035 l 160 1035 z "},"(":{"ha":390,"x_min":0,"x_max":0,"o":"m 110 -132 l 256 -132 b 233 472 197 67 189 263 b 511 1075 278 681 369 876 l 360 1075 b 74 472 210 899 121 692 b 110 -132 31 276 38 47 z "},")":{"ha":390,"x_min":0,"x_max":0,"o":"m -68 -132 l 83 -132 b 369 471 233 44 322 251 b 333 1075 413 667 406 896 l 188 1075 b 210 471 246 876 254 681 b -68 -132 165 263 74 67 z "},"{":{"ha":531,"x_min":0,"x_max":0,"o":"m 307 -126 b 399 -121 329 -126 372 -125 l 426 13 b 285 117 325 13 267 33 l 314 250 b 225 463 339 358 319 433 b 401 667 332 493 379 565 l 432 807 b 617 911 450 896 515 911 l 644 1044 b 557 1050 619 1049 583 1050 b 263 817 419 1050 299 976 l 231 672 b 86 531 211 585 192 531 l 57 393 b 143 251 160 393 161 339 l 113 111 b 307 -126 81 -28 176 -126 z "},"}":{"ha":531,"x_min":0,"x_max":0,"o":"m 24 -126 b 317 107 160 -126 282 -53 l 349 251 b 493 393 368 339 388 393 l 522 531 b 438 672 421 531 418 585 l 468 813 b 272 1050 499 951 403 1050 b 182 1044 250 1050 208 1049 l 153 911 b 294 807 254 911 313 890 l 265 674 b 356 461 242 565 260 490 b 178 257 249 431 200 358 l 149 117 b -36 13 129 28 64 13 l -65 -121 b 24 -126 -40 -125 -4 -126 z "},"[":{"ha":425,"x_min":0,"x_max":0,"o":"m 510 904 l 539 1042 l 196 1042 l -51 -118 l 292 -118 l 322 19 l 149 19 l 338 904 z "},"]":{"ha":425,"x_min":0,"x_max":0,"o":"m 525 1042 l 182 1042 l 151 904 l 325 904 l 136 19 l -36 19 l -65 -118 l 278 -118 z "},"-":{"ha":711,"x_min":0,"x_max":0,"o":"m 72 293 l 614 293 l 647 447 l 107 447 z "},"­":{"ha":710,"x_min":0,"x_max":0,"o":"m 72 293 l 614 293 l 647 447 l 107 447 z "},"–":{"ha":874,"x_min":0,"x_max":0,"o":"m 72 293 l 776 293 l 811 447 l 107 447 z "},"—":{"ha":1142,"x_min":0,"x_max":0,"o":"m 72 293 l 1044 293 l 1079 447 l 107 447 z "},"_":{"ha":982,"x_min":0,"x_max":0,"o":"m -25 -165 l 788 -165 l 821 -11 l 10 -11 z "},"‚":{"ha":375,"x_min":0,"x_max":0,"o":"m 14 -206 b 221 -11 171 -206 199 -111 l 257 165 l 58 165 l 21 -11 l 138 -11 b 19 -97 125 -74 79 -97 b -15 -94 10 -97 -3 -96 l -37 -203 b 14 -206 -25 -204 3 -206 z "},"„":{"ha":667,"x_min":0,"x_max":0,"o":"m 14 -206 b 221 -11 171 -206 199 -111 l 257 165 l 58 165 l 21 -11 l 138 -11 b 19 -97 125 -74 79 -97 b -15 -94 10 -97 -3 -96 l -37 -203 b 14 -206 -25 -204 3 -206 z m 307 -206 b 513 -11 464 -206 492 -111 l 550 165 l 350 165 l 314 -11 l 431 -11 b 313 -97 418 -74 372 -97 b 278 -94 303 -97 290 -96 l 254 -203 b 307 -206 267 -204 294 -206 z "},"“":{"ha":667,"x_min":0,"x_max":0,"o":"m 132 597 l 331 597 l 368 774 l 251 774 b 371 860 265 836 310 860 b 404 857 379 860 392 858 l 428 965 b 375 968 417 967 390 968 b 169 774 228 968 190 874 z m 424 597 l 624 597 l 661 774 l 544 774 b 663 860 558 836 601 860 b 697 857 672 860 683 858 l 721 965 b 668 968 708 967 681 968 b 461 774 519 968 482 874 z "},"”":{"ha":667,"x_min":0,"x_max":0,"o":"m 185 596 b 390 790 342 596 369 689 l 428 967 l 228 967 l 190 790 l 308 790 b 189 704 294 728 250 704 b 154 707 179 704 168 704 l 132 597 z m 476 596 b 682 790 633 596 661 689 l 719 967 l 521 967 l 483 790 l 600 790 b 482 704 588 728 542 704 b 447 707 472 704 460 704 l 425 597 z "},"‘":{"ha":375,"x_min":0,"x_max":0,"o":"m 132 597 l 331 597 l 368 774 l 251 774 b 371 860 265 836 310 860 b 404 857 379 860 392 858 l 428 965 b 375 968 417 967 390 968 b 169 774 228 968 190 874 z "},"’":{"ha":375,"x_min":0,"x_max":0,"o":"m 185 596 b 390 790 342 596 369 689 l 428 967 l 228 967 l 190 790 l 308 790 b 189 704 294 728 250 704 b 154 707 179 704 168 704 l 132 597 z "},"«":{"ha":847,"x_min":0,"x_max":0,"o":"m 265 64 l 432 64 l 228 347 l 544 631 l 361 631 l 60 349 z m 561 64 l 728 64 l 524 347 l 847 631 l 657 631 l 354 349 z "},"»":{"ha":847,"x_min":0,"x_max":0,"o":"m 1 64 l 190 64 l 493 346 l 286 631 l 121 631 l 325 347 z m 304 64 l 486 64 l 788 346 l 582 631 l 415 631 l 619 347 z "},"‹":{"ha":554,"x_min":0,"x_max":0,"o":"m 265 64 l 432 64 l 228 347 l 551 631 l 361 631 l 60 349 z "},"›":{"ha":553,"x_min":0,"x_max":0,"o":"m 1 64 l 190 64 l 493 346 l 286 631 l 121 631 l 325 347 z "},"\"":{"ha":589,"x_min":0,"x_max":0,"o":"m 157 590 l 304 590 l 396 965 l 228 965 z m 388 592 l 535 592 l 624 965 l 457 965 z "},"'":{"ha":360,"x_min":0,"x_max":0,"o":"m 157 590 l 304 590 l 396 965 l 228 965 z "}," ":{"ha":371,"x_min":0,"x_max":0,"o":""},"₿":{"ha":958,"x_min":0,"x_max":0,"o":"m 931 700 b 761 956 963 843 906 928 l 786 1075 l 639 1075 l 615 965 l 519 965 l 543 1075 l 396 1075 l 372 965 l 217 965 l 11 0 l 168 0 l 144 -110 l 293 -110 l 317 0 l 411 0 l 388 -110 l 536 -110 l 561 10 b 867 288 735 36 832 126 b 742 501 888 388 846 467 b 931 700 835 528 910 600 z m 763 692 b 589 575 746 614 696 575 l 321 575 l 368 806 l 639 806 b 763 692 747 806 778 768 z m 688 288 b 499 160 671 207 615 160 l 231 160 l 285 418 l 553 418 b 688 288 668 418 706 372 z "},"¢":{"ha":744,"x_min":0,"x_max":0,"o":"m 746 546 b 543 832 756 706 678 810 l 571 965 l 453 965 l 425 832 b 72 475 247 807 115 678 b 272 119 35 288 121 149 l 247 0 l 365 0 l 390 117 b 721 406 551 135 665 232 l 568 406 b 422 267 532 332 482 285 l 511 685 b 596 546 567 667 599 618 z m 226 475 b 392 681 250 578 313 653 l 304 268 b 226 475 235 293 203 368 z "},"¤":{"ha":885,"x_min":0,"x_max":0,"o":"m 126 107 l 257 214 b 574 215 342 160 464 160 l 658 107 l 790 217 l 707 325 b 774 640 786 421 811 543 l 904 749 l 818 858 l 689 751 b 368 751 601 810 478 807 l 283 858 l 151 749 l 235 640 b 169 324 160 543 135 419 l 38 217 z m 350 383 b 392 582 308 439 328 528 b 589 582 460 635 546 635 b 547 385 632 526 614 439 b 350 383 481 329 390 329 z "},"$":{"ha":964,"x_min":0,"x_max":0,"o":"m 917 647 b 669 972 929 826 835 942 l 692 1075 l 571 1075 l 550 978 b 174 699 351 968 208 857 b 404 422 140 550 232 449 l 432 418 l 375 154 b 246 318 299 179 251 236 l 63 318 b 342 -3 60 150 172 32 l 319 -110 l 442 -110 l 463 -14 b 878 265 686 -11 840 92 b 633 549 911 422 817 521 l 582 557 l 636 813 b 740 647 704 789 743 733 z m 461 575 b 351 693 375 588 336 624 b 517 821 367 763 432 810 l 465 575 z m 563 399 b 693 271 671 382 710 347 b 494 142 679 199 603 147 l 550 400 z "},"€":{"ha":1154,"x_min":0,"x_max":0,"o":"m 1147 585 b 808 976 1161 832 1031 976 b 300 614 567 976 388 832 l 128 614 l 104 506 l 265 506 b 260 482 264 497 261 490 l 256 460 l 94 460 l 71 351 l 247 351 b 600 -7 253 139 392 -7 b 1115 385 864 -7 1031 138 l 936 385 b 633 151 872 238 768 151 b 433 351 517 151 443 226 l 700 351 l 724 460 l 439 460 l 443 483 b 449 506 444 490 446 499 l 733 506 l 757 614 l 488 614 b 775 818 551 742 660 818 b 965 585 910 818 974 732 z "},"ƒ":{"ha":819,"x_min":0,"x_max":0,"o":"m 885 811 l 918 965 b 408 640 654 965 526 919 l 389 596 l 193 594 l 161 446 l 326 447 l 272 317 b -8 154 214 178 104 154 l -42 0 b 468 326 203 0 350 46 l 518 447 l 714 449 l 746 597 l 581 596 l 603 649 b 885 811 661 788 772 811 z "},"₽":{"ha":1006,"x_min":0,"x_max":0,"o":"m 133 0 l 317 0 l 357 192 l 724 192 l 751 322 l 386 322 l 396 375 l 660 375 b 1043 658 849 375 997 450 b 772 965 1085 857 950 965 l 339 965 l 240 506 l 103 506 l 75 375 l 214 375 l 203 322 l 65 322 l 36 192 l 174 192 z m 425 510 l 489 808 l 736 808 b 869 658 844 808 889 744 b 674 510 851 571 781 510 z "},"£":{"ha":919,"x_min":0,"x_max":0,"o":"m 906 618 b 615 972 940 825 829 972 b 200 671 356 972 233 825 b 210 496 186 603 200 549 l 106 496 l 75 351 l 199 351 b 31 160 174 292 121 239 l -3 0 l 767 0 l 801 160 l 225 160 b 374 351 303 222 351 286 l 672 351 l 703 496 l 383 496 b 379 657 378 549 367 599 b 585 814 397 738 469 814 b 735 618 699 814 749 746 z "},"₩":{"ha":1564,"x_min":0,"x_max":0,"o":"m 1624 965 l 1422 965 l 1235 556 l 1031 556 l 992 965 l 810 965 l 600 556 l 385 556 l 358 965 l 176 965 l 214 556 l 76 556 l 53 447 l 224 447 l 264 0 l 485 0 l 715 447 l 878 447 l 925 0 l 1156 0 l 1372 447 l 1554 447 l 1578 556 l 1425 556 z m 772 556 l 850 707 l 867 556 z m 408 183 l 392 447 l 544 447 z m 1065 183 l 1040 447 l 1186 447 z "},"¥":{"ha":1065,"x_min":0,"x_max":0,"o":"m 1165 965 l 924 965 l 556 494 l 364 965 l 164 965 l 397 447 l 189 447 l 165 339 l 439 339 l 429 292 l 156 292 l 132 183 l 406 183 l 367 0 l 554 0 l 593 183 l 865 183 l 889 292 l 615 292 l 626 339 l 899 339 l 921 447 l 718 447 z "},"+":{"ha":818,"x_min":0,"x_max":0,"o":"m 278 101 l 436 101 l 492 365 l 753 365 l 786 521 l 522 521 l 579 782 l 421 782 l 365 521 l 106 521 l 72 365 l 333 365 z "},"−":{"ha":817,"x_min":0,"x_max":0,"o":"m 72 365 l 750 365 l 785 521 l 106 521 z "},"×":{"ha":728,"x_min":0,"x_max":0,"o":"m 136 146 l 363 336 l 506 149 l 639 257 l 490 443 l 718 628 l 632 739 l 407 550 l 261 736 l 131 626 l 279 442 l 49 256 z "},"÷":{"ha":819,"x_min":0,"x_max":0,"o":"m 372 618 l 561 618 l 603 814 l 415 814 z m 72 365 l 754 365 l 788 521 l 106 521 z m 257 69 l 444 69 l 488 268 l 299 268 z "},"=":{"ha":858,"x_min":0,"x_max":0,"o":"m 103 507 l 822 507 l 856 663 l 136 663 z m 42 224 l 761 224 l 796 379 l 76 379 z "},"≠":{"ha":858,"x_min":0,"x_max":0,"o":"m 822 507 l 856 663 l 715 663 l 831 803 l 661 803 l 546 663 l 136 663 l 103 507 l 417 507 l 311 379 l 76 379 l 42 224 l 183 224 l 67 82 l 238 82 l 354 224 l 761 224 l 796 379 l 482 379 l 588 507 z "},">":{"ha":778,"x_min":0,"x_max":0,"o":"m 29 161 l 707 336 l 750 540 l 147 714 l 117 568 l 589 443 l 63 317 z "},"<":{"ha":778,"x_min":0,"x_max":0,"o":"m 669 161 l 700 306 l 226 431 l 754 557 l 788 714 l 110 538 l 65 335 z "},"≥":{"ha":779,"x_min":0,"x_max":0,"o":"m 46 238 l 714 364 l 757 565 l 144 700 l 117 567 l 615 468 l 78 383 z m 6 49 l 646 49 l 678 193 l 38 193 z "},"≤":{"ha":779,"x_min":0,"x_max":0,"o":"m 686 238 l 715 372 l 215 469 l 754 554 l 785 700 l 117 574 l 74 372 z m 6 49 l 646 49 l 678 193 l 38 193 z "},"±":{"ha":815,"x_min":0,"x_max":0,"o":"m 538 582 l 581 789 l 421 789 l 378 582 l 118 582 l 86 426 l 344 426 l 301 219 l 461 219 l 504 426 l 764 426 l 796 582 z m 0 22 l 678 22 l 710 178 l 32 178 z "},"≈":{"ha":878,"x_min":0,"x_max":0,"o":"m 93 460 l 239 460 b 350 563 253 528 296 563 b 626 469 442 563 490 469 b 886 711 751 469 850 540 l 740 711 b 629 610 724 631 676 610 b 353 703 528 610 486 703 b 93 460 232 703 129 631 z m 32 174 l 178 174 b 289 276 194 251 243 276 b 565 183 379 276 429 183 b 825 425 690 183 789 254 l 679 425 b 568 324 663 346 617 324 b 293 417 467 324 426 417 b 32 174 171 417 68 344 z "},"¬":{"ha":685,"x_min":0,"x_max":0,"o":"m 422 118 l 585 118 l 668 504 l 83 504 l 51 354 l 472 354 z "},"~":{"ha":878,"x_min":0,"x_max":0,"o":"m 63 314 l 207 314 b 318 417 222 383 265 417 b 594 324 410 417 458 324 b 856 567 721 324 818 394 l 710 567 b 599 464 693 486 646 464 b 322 557 496 464 454 557 b 63 314 200 557 99 486 z "},"^":{"ha":676,"x_min":0,"x_max":0,"o":"m 122 578 l 299 578 l 443 829 l 490 578 l 651 578 l 569 965 l 376 965 z "},"∅":{"ha":985,"x_min":0,"x_max":0,"o":"m 1017 772 l 935 875 l 821 781 b 600 851 765 825 690 851 b 100 440 358 851 149 668 b 121 201 81 351 89 269 l 8 108 l 89 6 l 201 99 b 425 28 258 54 333 28 b 924 440 665 28 875 211 b 903 678 943 529 935 611 z m 254 440 b 568 699 283 582 415 699 b 686 669 614 699 654 688 l 257 314 b 254 440 246 351 244 394 z m 771 440 b 457 181 742 297 610 181 b 338 211 410 181 369 192 l 767 567 b 771 440 779 529 781 486 z "},"∞":{"ha":1040,"x_min":0,"x_max":0,"o":"m 813 675 b 560 550 713 675 621 626 b 368 675 529 628 468 675 b 89 443 215 675 118 581 b 269 210 60 304 142 210 b 522 339 368 210 460 258 b 715 210 550 258 615 210 b 993 443 872 210 964 304 b 813 675 1022 581 944 675 z m 307 332 b 221 443 242 332 207 375 b 354 554 236 511 289 554 b 467 446 410 554 446 510 b 307 332 417 374 361 332 z m 860 443 b 728 332 846 375 794 332 b 615 446 674 332 633 376 b 775 554 667 510 722 554 b 860 443 842 554 874 511 z "},"∫":{"ha":718,"x_min":0,"x_max":0,"o":"m 49 -251 b 390 63 244 -251 344 -151 l 532 731 b 697 892 560 864 628 892 b 779 886 717 892 743 890 l 814 1049 b 690 1056 767 1054 721 1056 b 351 742 494 1056 397 954 l 210 74 b 44 -87 182 -60 114 -87 b -37 -82 25 -87 -1 -87 l -72 -244 b 49 -251 -25 -250 18 -251 z "},"∏":{"ha":1049,"x_min":0,"x_max":0,"o":"m 163 -75 l 328 -75 l 515 806 l 732 806 l 544 -75 l 710 -75 l 896 806 l 1046 806 l 1081 965 l 235 965 l 200 806 l 349 806 z "},"∑":{"ha":789,"x_min":0,"x_max":0,"o":"m -39 -239 l 611 -239 l 644 -82 l 189 -82 l 576 306 l 596 394 l 354 810 l 828 810 l 860 965 l 222 965 l 186 793 l 444 367 l -1 -65 z "},"√":{"ha":904,"x_min":0,"x_max":0,"o":"m 282 -333 l 486 -333 l 819 818 l 1065 818 l 1096 965 l 690 965 l 381 -129 l 218 393 l 39 393 z "},"µ":{"ha":875,"x_min":0,"x_max":0,"o":"m -68 -283 l 111 -283 l 185 68 b 328 -8 206 13 267 -8 b 574 122 413 -8 503 26 b 704 0 583 39 629 0 b 774 4 724 0 749 1 l 804 143 b 722 231 747 142 704 147 l 821 694 l 638 694 l 567 365 b 346 146 535 215 438 146 b 239 325 272 146 211 188 l 318 694 l 139 694 z "},"∂":{"ha":747,"x_min":0,"x_max":0,"o":"m 296 -7 b 731 429 513 -7 668 135 b 606 1056 800 761 683 944 l 392 1056 b 599 567 517 899 600 733 b 411 671 558 649 490 671 b 31 331 228 671 74 531 b 296 -7 -10 139 100 -7 z m 329 153 b 200 332 224 153 179 231 b 404 511 222 433 299 511 b 528 332 508 511 549 433 b 329 153 506 231 432 153 z "},"%":{"ha":1281,"x_min":0,"x_max":0,"o":"m 321 460 b 607 717 465 460 575 569 b 432 976 639 864 576 976 b 144 717 289 976 175 864 b 321 460 114 569 178 460 z m 204 0 l 381 0 l 1135 965 l 958 965 z m 349 592 b 289 717 289 592 275 651 b 403 844 304 782 342 844 b 463 717 464 844 476 782 b 349 592 449 651 410 592 z m 904 -11 b 1190 246 1050 -11 1160 99 b 1015 506 1222 393 1161 506 b 729 246 872 506 760 393 b 904 -11 699 99 761 -11 z m 933 121 b 874 246 872 121 858 181 b 986 374 888 311 925 374 b 1046 246 1047 374 1060 311 b 933 121 1032 181 994 121 z "},"‰":{"ha":1804,"x_min":0,"x_max":0,"o":"m 321 460 b 607 717 465 460 575 569 b 432 976 639 864 576 976 b 144 717 289 976 175 864 b 321 460 114 569 178 460 z m 204 0 l 381 0 l 1135 965 l 958 965 z m 349 592 b 289 717 289 592 275 651 b 403 844 304 782 342 844 b 463 717 464 844 476 782 b 349 592 449 651 410 592 z m 904 -11 b 1190 246 1050 -11 1160 99 b 1015 506 1222 393 1161 506 b 729 246 872 506 760 393 b 904 -11 699 99 761 -11 z m 1426 -11 b 1714 246 1574 -11 1682 99 b 1538 506 1746 393 1685 506 b 1251 246 1396 506 1282 393 b 1426 -11 1221 99 1285 -11 z m 933 121 b 874 246 872 121 858 181 b 986 374 888 311 925 374 b 1046 246 1047 374 1060 311 b 933 121 1032 181 994 121 z m 1457 121 b 1396 246 1396 121 1382 181 b 1510 374 1411 311 1449 374 b 1569 246 1571 374 1583 311 b 1457 121 1556 181 1517 121 z "},"↑":{"ha":836,"x_min":0,"x_max":0,"o":"m 281 97 l 447 97 l 549 572 l 671 413 l 807 525 l 531 875 l 103 524 l 190 410 l 381 568 z "},"↗":{"ha":744,"x_min":0,"x_max":0,"o":"m 54 296 l 147 178 l 556 513 l 506 290 l 665 290 l 771 785 l 271 786 l 236 626 l 458 628 z "},"→":{"ha":913,"x_min":0,"x_max":0,"o":"m 449 132 l 874 481 l 596 833 l 460 722 l 583 565 l 113 565 l 78 400 l 553 400 l 360 243 z "},"↘":{"ha":746,"x_min":0,"x_max":0,"o":"m 143 178 l 642 179 l 747 674 l 588 674 l 543 451 l 278 786 l 135 668 l 397 336 l 176 338 z "},"↓":{"ha":835,"x_min":0,"x_max":0,"o":"m 365 97 l 789 446 l 701 558 l 510 399 l 613 875 l 446 875 l 346 404 l 222 561 l 88 449 z "},"↙":{"ha":744,"x_min":0,"x_max":0,"o":"m 531 178 l 565 338 l 343 336 l 747 668 l 654 786 l 246 451 l 296 674 l 136 674 l 31 179 z "},"←":{"ha":911,"x_min":0,"x_max":0,"o":"m 369 132 l 506 243 l 379 400 l 854 400 l 890 565 l 419 565 l 610 722 l 521 833 l 94 481 z "},"↖":{"ha":746,"x_min":0,"x_max":0,"o":"m 525 178 l 668 296 l 406 628 l 626 626 l 660 786 l 161 785 l 56 290 l 215 290 l 260 513 z "},"↔":{"ha":1331,"x_min":0,"x_max":0,"o":"m 369 132 l 506 243 l 379 400 l 972 400 l 779 243 l 868 132 l 1293 481 l 1015 833 l 879 722 l 1003 565 l 419 565 l 610 722 l 521 833 l 94 481 z "},"↕":{"ha":824,"x_min":0,"x_max":0,"o":"m 317 -86 l 746 265 l 657 379 l 468 221 l 579 742 l 701 585 l 838 697 l 558 1050 l 135 700 l 222 588 l 413 747 l 301 217 l 178 376 l 42 264 z "},"◊":{"ha":699,"x_min":0,"x_max":0,"o":"m 174 0 l 376 0 l 667 482 l 582 965 l 379 965 l 88 482 z m 313 182 l 258 482 l 440 783 l 496 482 z "},"♥":{"ha":1033,"x_min":0,"x_max":0,"o":"m 517 76 b 933 669 706 251 933 479 b 735 883 933 788 854 883 b 524 725 639 883 567 833 l 511 725 b 310 883 474 833 390 883 b 100 665 185 883 103 794 b 517 76 100 465 331 251 z "}}}
